<svg width="194" height="50" viewBox="0 0 194 50" fill="none" xmlns="http://www.w3.org/2000/svg">
<path d="M0 25C0 11.1929 11.1929 0 25 0H169C182.807 0 194 11.1929 194 25V25C194 38.8071 182.807 50 169 50H25C11.1929 50 0 38.8071 0 25V25Z" fill="#C4C4C4"/>
<path d="M0 25C0 11.1929 11.1929 0 25 0H169C182.807 0 194 11.1929 194 25V25C194 38.8071 182.807 50 169 50H25C11.1929 50 0 38.8071 0 25V25Z" fill="url(#paint0_linear_10_2590)"/>
<path d="M39.868 36.3121C38.464 36.3121 37.1553 36.0868 35.942 35.6361C34.746 35.1681 33.706 34.5094 32.822 33.6601C31.938 32.8108 31.2447 31.8141 30.742 30.6701C30.2567 29.5261 30.014 28.2694 30.014 26.9001C30.014 25.5308 30.2567 24.2741 30.742 23.1301C31.2447 21.9861 31.938 20.9894 32.822 20.1401C33.7233 19.2908 34.772 18.6408 35.968 18.1901C37.164 17.7221 38.4727 17.4881 39.894 17.4881C41.4713 17.4881 42.8927 17.7654 44.158 18.3201C45.4407 18.8574 46.5153 19.6548 47.382 20.7121L44.678 23.2081C44.054 22.4974 43.3607 21.9688 42.598 21.6221C41.8353 21.2581 41.0033 21.0761 40.102 21.0761C39.2527 21.0761 38.4727 21.2148 37.762 21.4921C37.0513 21.7694 36.436 22.1681 35.916 22.6881C35.396 23.2081 34.9887 23.8234 34.694 24.5341C34.4167 25.2448 34.278 26.0334 34.278 26.9001C34.278 27.7668 34.4167 28.5554 34.694 29.2661C34.9887 29.9768 35.396 30.5921 35.916 31.1121C36.436 31.6321 37.0513 32.0308 37.762 32.3081C38.4727 32.5854 39.2527 32.7241 40.102 32.7241C41.0033 32.7241 41.8353 32.5508 42.598 32.2041C43.3607 31.8401 44.054 31.2941 44.678 30.5661L47.382 33.0621C46.5153 34.1194 45.4407 34.9254 44.158 35.4801C42.8927 36.0348 41.4627 36.3121 39.868 36.3121Z" fill="white"/>
<path d="M49.9404 36.0001V16.7081H53.9964V36.0001H49.9404Z" fill="white"/>
<path d="M57.7607 36.0001V22.0121H61.8167V36.0001H57.7607ZM59.7887 20.0621C59.0433 20.0621 58.4367 19.8454 57.9687 19.4121C57.5007 18.9788 57.2667 18.4414 57.2667 17.8001C57.2667 17.1588 57.5007 16.6214 57.9687 16.1881C58.4367 15.7548 59.0433 15.5381 59.7887 15.5381C60.534 15.5381 61.1407 15.7461 61.6087 16.1621C62.0767 16.5608 62.3107 17.0808 62.3107 17.7221C62.3107 18.3981 62.0767 18.9614 61.6087 19.4121C61.158 19.8454 60.5513 20.0621 59.7887 20.0621Z" fill="white"/>
<path d="M72.341 36.2081C70.833 36.2081 69.4897 35.9048 68.311 35.2981C67.1323 34.6741 66.205 33.8161 65.529 32.7241C64.8703 31.6321 64.541 30.3928 64.541 29.0061C64.541 27.6021 64.8703 26.3628 65.529 25.2881C66.205 24.1961 67.1323 23.3468 68.311 22.7401C69.4897 22.1161 70.833 21.8041 72.341 21.8041C73.8143 21.8041 75.097 22.1161 76.189 22.7401C77.281 23.3468 78.087 24.2221 78.607 25.3661L75.461 27.0561C75.097 26.3974 74.6377 25.9121 74.083 25.6001C73.5457 25.2881 72.9563 25.1321 72.315 25.1321C71.6217 25.1321 70.9977 25.2881 70.443 25.6001C69.8883 25.9121 69.4463 26.3541 69.117 26.9261C68.805 27.4981 68.649 28.1914 68.649 29.0061C68.649 29.8208 68.805 30.5141 69.117 31.0861C69.4463 31.6581 69.8883 32.1001 70.443 32.4121C70.9977 32.7241 71.6217 32.8801 72.315 32.8801C72.9563 32.8801 73.5457 32.7328 74.083 32.4381C74.6377 32.1261 75.097 31.6321 75.461 30.9561L78.607 32.6721C78.087 33.7988 77.281 34.6741 76.189 35.2981C75.097 35.9048 73.8143 36.2081 72.341 36.2081Z" fill="white"/>
<path d="M84.1948 33.1401L84.2988 28.2001L90.8248 22.0121H95.6608L89.3948 28.3821L87.2888 30.0981L84.1948 33.1401ZM80.8408 36.0001V16.7081H84.8968V36.0001H80.8408ZM91.2668 36.0001L86.5348 30.1241L89.0828 26.9781L96.1808 36.0001H91.2668Z" fill="white"/>
<path d="M118.134 17.8001H122.346V36.0001H118.134V17.8001ZM109.866 36.0001H105.654V17.8001H109.866V36.0001ZM118.446 28.5381H109.554V24.9761H118.446V28.5381Z" fill="white"/>
<path d="M133.308 36.2081C131.713 36.2081 130.309 35.8961 129.096 35.2721C127.9 34.6481 126.973 33.7988 126.314 32.7241C125.655 31.6321 125.326 30.3928 125.326 29.0061C125.326 27.6021 125.647 26.3628 126.288 25.2881C126.947 24.1961 127.839 23.3468 128.966 22.7401C130.093 22.1161 131.367 21.8041 132.788 21.8041C134.157 21.8041 135.388 22.0988 136.48 22.6881C137.589 23.2601 138.465 24.0921 139.106 25.1841C139.747 26.2588 140.068 27.5501 140.068 29.0581C140.068 29.2141 140.059 29.3961 140.042 29.6041C140.025 29.7948 140.007 29.9768 139.99 30.1501H128.628V27.7841H137.858L136.298 28.4861C136.298 27.7581 136.151 27.1254 135.856 26.5881C135.561 26.0508 135.154 25.6348 134.634 25.3401C134.114 25.0281 133.507 24.8721 132.814 24.8721C132.121 24.8721 131.505 25.0281 130.968 25.3401C130.448 25.6348 130.041 26.0594 129.746 26.6141C129.451 27.1514 129.304 27.7928 129.304 28.5381V29.1621C129.304 29.9248 129.469 30.6008 129.798 31.1901C130.145 31.7621 130.621 32.2041 131.228 32.5161C131.852 32.8108 132.58 32.9581 133.412 32.9581C134.157 32.9581 134.807 32.8454 135.362 32.6201C135.934 32.3948 136.454 32.0568 136.922 31.6061L139.08 33.9461C138.439 34.6741 137.633 35.2374 136.662 35.6361C135.691 36.0174 134.573 36.2081 133.308 36.2081Z" fill="white"/>
<path d="M142.768 36.0001V22.0121H146.642V25.9641L146.096 24.8201C146.512 23.8321 147.18 23.0868 148.098 22.5841C149.017 22.0641 150.135 21.8041 151.452 21.8041V25.5481C151.279 25.5308 151.123 25.5221 150.984 25.5221C150.846 25.5048 150.698 25.4961 150.542 25.4961C149.433 25.4961 148.532 25.8168 147.838 26.4581C147.162 27.0821 146.824 28.0614 146.824 29.3961V36.0001H142.768Z" fill="white"/>
<path d="M160.679 36.2081C159.085 36.2081 157.681 35.8961 156.467 35.2721C155.271 34.6481 154.344 33.7988 153.685 32.7241C153.027 31.6321 152.697 30.3928 152.697 29.0061C152.697 27.6021 153.018 26.3628 153.659 25.2881C154.318 24.1961 155.211 23.3468 156.337 22.7401C157.464 22.1161 158.738 21.8041 160.159 21.8041C161.529 21.8041 162.759 22.0988 163.851 22.6881C164.961 23.2601 165.836 24.0921 166.477 25.1841C167.119 26.2588 167.439 27.5501 167.439 29.0581C167.439 29.2141 167.431 29.3961 167.413 29.6041C167.396 29.7948 167.379 29.9768 167.361 30.1501H155.999V27.7841H165.229L163.669 28.4861C163.669 27.7581 163.522 27.1254 163.227 26.5881C162.933 26.0508 162.525 25.6348 162.005 25.3401C161.485 25.0281 160.879 24.8721 160.185 24.8721C159.492 24.8721 158.877 25.0281 158.339 25.3401C157.819 25.6348 157.412 26.0594 157.117 26.6141C156.823 27.1514 156.675 27.7928 156.675 28.5381V29.1621C156.675 29.9248 156.84 30.6008 157.169 31.1901C157.516 31.7621 157.993 32.2041 158.599 32.5161C159.223 32.8108 159.951 32.9581 160.783 32.9581C161.529 32.9581 162.179 32.8454 162.733 32.6201C163.305 32.3948 163.825 32.0568 164.293 31.6061L166.451 33.9461C165.81 34.6741 165.004 35.2374 164.033 35.6361C163.063 36.0174 161.945 36.2081 160.679 36.2081Z" fill="white"/>
<defs>
<linearGradient id="paint0_linear_10_2590" x1="97" y1="0" x2="97" y2="50" gradientUnits="userSpaceOnUse">
<stop stop-color="#424061"/>
<stop offset="1" stop-color="#2F2E3C"/>
</linearGradient>
</defs>
</svg>
