<?xml version="1.0" encoding="utf-8"?>
<!-- Generator: Adobe Illustrator 16.0.0, SVG Export Plug-In . SVG Version: 6.00 Build 0)  -->
<!DOCTYPE svg PUBLIC "-//W3C//DTD SVG 1.1//EN" "http://www.w3.org/Graphics/SVG/1.1/DTD/svg11.dtd">
<svg version="1.1" id="Layer_1" xmlns="http://www.w3.org/2000/svg" xmlns:xlink="http://www.w3.org/1999/xlink" x="0px" y="0px"
	 width="88px" height="60px" viewBox="0 0 88 60" enable-background="new 0 0 88 60" xml:space="preserve">
<path fill="#FF983C" d="M64,30c0,11.046-8.954,20-20,20s-20-8.954-20-20s8.954-20,20-20S64,18.954,64,30z"/>
<linearGradient id="SVGID_1_" gradientUnits="userSpaceOnUse" x1="22.4575" y1="41.0264" x2="15.7237" y2="2.1066" gradientTransform="matrix(1 0 0 -1 24.9448 51.3594)">
	<stop  offset="0" style="stop-color:#FFD236"/>
	<stop  offset="1" style="stop-color:#FF8F3D"/>
</linearGradient>
<path fill="url(#SVGID_1_)" d="M64,30c0,11.046-8.954,20-20,20s-20-8.954-20-20s8.954-20,20-20S64,18.954,64,30z"/>
<path fill="#FFFFFF" d="M52.045,27.228l-8.515,7.762l-7.575-7.827l2.156-2.086l5.55,5.734l6.362-5.8L52.045,27.228z"/>
</svg>
