<svg width="110" height="30" viewBox="0 0 110 30" fill="none" xmlns="http://www.w3.org/2000/svg">
<rect width="110" height="30" rx="15" fill="url(#paint0_linear_10_2327)"/>
<rect width="110" height="30" rx="15" fill="url(#paint1_linear_10_2327)"/>
<path d="M21.008 21.1919C20.112 21.1919 19.2533 21.0746 18.432 20.8399C17.6107 20.5946 16.9493 20.2799 16.448 19.8959L17.328 17.9439C17.808 18.2852 18.3733 18.5679 19.024 18.7919C19.6853 19.0052 20.352 19.1119 21.024 19.1119C21.536 19.1119 21.9467 19.0639 22.256 18.9679C22.576 18.8612 22.8107 18.7172 22.96 18.5359C23.1093 18.3546 23.184 18.1466 23.184 17.9119C23.184 17.6132 23.0667 17.3786 22.832 17.2079C22.5973 17.0266 22.288 16.8826 21.904 16.7759C21.52 16.6586 21.0933 16.5519 20.624 16.4559C20.1653 16.3492 19.7013 16.2212 19.232 16.0719C18.7733 15.9226 18.352 15.7306 17.968 15.4959C17.584 15.2612 17.2693 14.9519 17.024 14.5679C16.7893 14.1839 16.672 13.6932 16.672 13.0959C16.672 12.4559 16.8427 11.8746 17.184 11.3519C17.536 10.8186 18.0587 10.3972 18.752 10.0879C19.456 9.76791 20.336 9.60791 21.392 9.60791C22.096 9.60791 22.7893 9.69324 23.472 9.86391C24.1547 10.0239 24.7573 10.2692 25.28 10.5999L24.48 12.5679C23.9573 12.2692 23.4347 12.0506 22.912 11.9119C22.3893 11.7626 21.8773 11.6879 21.376 11.6879C20.8747 11.6879 20.464 11.7466 20.144 11.8639C19.824 11.9812 19.5947 12.1359 19.456 12.3279C19.3173 12.5092 19.248 12.7226 19.248 12.9679C19.248 13.2559 19.3653 13.4906 19.6 13.6719C19.8347 13.8426 20.144 13.9812 20.528 14.0879C20.912 14.1946 21.3333 14.3012 21.792 14.4079C22.2613 14.5146 22.7253 14.6372 23.184 14.7759C23.6533 14.9146 24.08 15.1012 24.464 15.3359C24.848 15.5706 25.1573 15.8799 25.392 16.2639C25.6373 16.6479 25.76 17.1332 25.76 17.7199C25.76 18.3492 25.584 18.9252 25.232 19.4479C24.88 19.9706 24.352 20.3919 23.648 20.7119C22.9547 21.0319 22.0747 21.1919 21.008 21.1919Z" fill="white"/>
<path d="M31.6271 21.1279C30.6458 21.1279 29.7818 20.9359 29.0351 20.5519C28.2991 20.1679 27.7285 19.6452 27.3231 18.9839C26.9178 18.3119 26.7151 17.5492 26.7151 16.6959C26.7151 15.8319 26.9125 15.0692 27.3071 14.4079C27.7125 13.7359 28.2618 13.2132 28.9551 12.8399C29.6485 12.4559 30.4325 12.2639 31.3071 12.2639C32.1498 12.2639 32.9071 12.4452 33.5791 12.8079C34.2618 13.1599 34.8005 13.6719 35.1951 14.3439C35.5898 15.0052 35.7871 15.7999 35.7871 16.7279C35.7871 16.8239 35.7818 16.9359 35.7711 17.0639C35.7605 17.1812 35.7498 17.2932 35.7391 17.3999H28.7471V15.9439H34.4271L33.4671 16.3759C33.4671 15.9279 33.3765 15.5386 33.1951 15.2079C33.0138 14.8772 32.7631 14.6212 32.4431 14.4399C32.1231 14.2479 31.7498 14.1519 31.3231 14.1519C30.8965 14.1519 30.5178 14.2479 30.1871 14.4399C29.8671 14.6212 29.6165 14.8826 29.4351 15.2239C29.2538 15.5546 29.1631 15.9492 29.1631 16.4079V16.7919C29.1631 17.2612 29.2645 17.6772 29.4671 18.0399C29.6805 18.3919 29.9738 18.6639 30.3471 18.8559C30.7311 19.0372 31.1791 19.1279 31.6911 19.1279C32.1498 19.1279 32.5498 19.0586 32.8911 18.9199C33.2431 18.7812 33.5631 18.5732 33.8511 18.2959L35.1791 19.7359C34.7845 20.1839 34.2885 20.5306 33.6911 20.7759C33.0938 21.0106 32.4058 21.1279 31.6271 21.1279Z" fill="white"/>
<path d="M41.7209 21.1279C40.7395 21.1279 39.8755 20.9359 39.1289 20.5519C38.3929 20.1679 37.8222 19.6452 37.4169 18.9839C37.0115 18.3119 36.8089 17.5492 36.8089 16.6959C36.8089 15.8319 37.0062 15.0692 37.4009 14.4079C37.8062 13.7359 38.3555 13.2132 39.0489 12.8399C39.7422 12.4559 40.5262 12.2639 41.4009 12.2639C42.2435 12.2639 43.0009 12.4452 43.6729 12.8079C44.3555 13.1599 44.8942 13.6719 45.2889 14.3439C45.6835 15.0052 45.8809 15.7999 45.8809 16.7279C45.8809 16.8239 45.8755 16.9359 45.8649 17.0639C45.8542 17.1812 45.8435 17.2932 45.8329 17.3999H38.8409V15.9439H44.5209L43.5609 16.3759C43.5609 15.9279 43.4702 15.5386 43.2889 15.2079C43.1075 14.8772 42.8569 14.6212 42.5369 14.4399C42.2169 14.2479 41.8435 14.1519 41.4169 14.1519C40.9902 14.1519 40.6115 14.2479 40.2809 14.4399C39.9609 14.6212 39.7102 14.8826 39.5289 15.2239C39.3475 15.5546 39.2569 15.9492 39.2569 16.4079V16.7919C39.2569 17.2612 39.3582 17.6772 39.5609 18.0399C39.7742 18.3919 40.0675 18.6639 40.4409 18.8559C40.8249 19.0372 41.2729 19.1279 41.7849 19.1279C42.2435 19.1279 42.6435 19.0586 42.9849 18.9199C43.3369 18.7812 43.6569 18.5732 43.9449 18.2959L45.2729 19.7359C44.8782 20.1839 44.3822 20.5306 43.7849 20.7759C43.1875 21.0106 42.4995 21.1279 41.7209 21.1279Z" fill="white"/>
<path d="M52.2499 20.9999V9.79991H54.3939L59.1619 17.7039H58.0259L62.7139 9.79991H64.8419L64.8739 20.9999H62.4419L62.4259 13.5279H62.8739L59.1299 19.8159H57.9619L54.1379 13.5279H54.6819V20.9999H52.2499Z" fill="white"/>
<path d="M71.4511 21.1279C70.5338 21.1279 69.7178 20.9359 69.0031 20.5519C68.2991 20.1679 67.7391 19.6452 67.3231 18.9839C66.9178 18.3119 66.7151 17.5492 66.7151 16.6959C66.7151 15.8319 66.9178 15.0692 67.3231 14.4079C67.7391 13.7359 68.2991 13.2132 69.0031 12.8399C69.7178 12.4559 70.5338 12.2639 71.4511 12.2639C72.3578 12.2639 73.1685 12.4559 73.8831 12.8399C74.5978 13.2132 75.1578 13.7306 75.5631 14.3919C75.9685 15.0532 76.1711 15.8212 76.1711 16.6959C76.1711 17.5492 75.9685 18.3119 75.5631 18.9839C75.1578 19.6452 74.5978 20.1679 73.8831 20.5519C73.1685 20.9359 72.3578 21.1279 71.4511 21.1279ZM71.4511 19.0799C71.8671 19.0799 72.2405 18.9839 72.5711 18.7919C72.9018 18.5999 73.1631 18.3279 73.3551 17.9759C73.5471 17.6132 73.6431 17.1866 73.6431 16.6959C73.6431 16.1946 73.5471 15.7679 73.3551 15.4159C73.1631 15.0639 72.9018 14.7919 72.5711 14.5999C72.2405 14.4079 71.8671 14.3119 71.4511 14.3119C71.0351 14.3119 70.6618 14.4079 70.3311 14.5999C70.0005 14.7919 69.7338 15.0639 69.5311 15.4159C69.3391 15.7679 69.2431 16.1946 69.2431 16.6959C69.2431 17.1866 69.3391 17.6132 69.5311 17.9759C69.7338 18.3279 70.0005 18.5999 70.3311 18.7919C70.6618 18.9839 71.0351 19.0799 71.4511 19.0799Z" fill="white"/>
<path d="M77.8395 20.9999V12.3919H80.2235V14.8239L79.8875 14.1199C80.1435 13.5119 80.5542 13.0532 81.1195 12.7439C81.6848 12.4239 82.3728 12.2639 83.1835 12.2639V14.5679C83.0768 14.5572 82.9808 14.5519 82.8955 14.5519C82.8102 14.5412 82.7195 14.5359 82.6235 14.5359C81.9408 14.5359 81.3862 14.7332 80.9595 15.1279C80.5435 15.5119 80.3355 16.1146 80.3355 16.9359V20.9999H77.8395Z" fill="white"/>
<path d="M88.8615 21.1279C87.8802 21.1279 87.0162 20.9359 86.2695 20.5519C85.5335 20.1679 84.9628 19.6452 84.5575 18.9839C84.1522 18.3119 83.9495 17.5492 83.9495 16.6959C83.9495 15.8319 84.1468 15.0692 84.5415 14.4079C84.9468 13.7359 85.4962 13.2132 86.1895 12.8399C86.8828 12.4559 87.6668 12.2639 88.5415 12.2639C89.3842 12.2639 90.1415 12.4452 90.8135 12.8079C91.4962 13.1599 92.0348 13.6719 92.4295 14.3439C92.8242 15.0052 93.0215 15.7999 93.0215 16.7279C93.0215 16.8239 93.0162 16.9359 93.0055 17.0639C92.9948 17.1812 92.9842 17.2932 92.9735 17.3999H85.9815V15.9439H91.6615L90.7015 16.3759C90.7015 15.9279 90.6108 15.5386 90.4295 15.2079C90.2482 14.8772 89.9975 14.6212 89.6775 14.4399C89.3575 14.2479 88.9842 14.1519 88.5575 14.1519C88.1308 14.1519 87.7522 14.2479 87.4215 14.4399C87.1015 14.6212 86.8508 14.8826 86.6695 15.2239C86.4882 15.5546 86.3975 15.9492 86.3975 16.4079V16.7919C86.3975 17.2612 86.4988 17.6772 86.7015 18.0399C86.9148 18.3919 87.2082 18.6639 87.5815 18.8559C87.9655 19.0372 88.4135 19.1279 88.9255 19.1279C89.3842 19.1279 89.7842 19.0586 90.1255 18.9199C90.4775 18.7812 90.7975 18.5732 91.0855 18.2959L92.4135 19.7359C92.0188 20.1839 91.5228 20.5306 90.9255 20.7759C90.3282 21.0106 89.6402 21.1279 88.8615 21.1279Z" fill="white"/>
<defs>
<linearGradient id="paint0_linear_10_2327" x1="59.0909" y1="-1.48126e-05" x2="57.6754" y2="29.9976" gradientUnits="userSpaceOnUse">
<stop stop-color="#FFD236"/>
<stop offset="1" stop-color="#FF8F3D"/>
</linearGradient>
<linearGradient id="paint1_linear_10_2327" x1="55" y1="0" x2="55" y2="30" gradientUnits="userSpaceOnUse">
<stop stop-color="#424061"/>
<stop offset="1" stop-color="#2F2E3C"/>
</linearGradient>
</defs>
</svg>
