<svg width="111" height="44" viewBox="0 0 111 44" fill="none" xmlns="http://www.w3.org/2000/svg">
<g filter="url(#filter0_d_10_2332)">
<rect x="4" width="103" height="36" rx="18" fill="#335AC4"/>
<rect x="4" width="103" height="36" rx="18" fill="url(#paint0_linear_10_2332)"/>
</g>
<path d="M24.695 24.1801C23.855 24.1801 23.05 24.0701 22.28 23.8501C21.51 23.6201 20.89 23.3251 20.42 22.9651L21.245 21.1351C21.695 21.4551 22.225 21.7201 22.835 21.9301C23.455 22.1301 24.08 22.2301 24.71 22.2301C25.19 22.2301 25.575 22.1851 25.865 22.0951C26.165 21.9951 26.385 21.8601 26.525 21.6901C26.665 21.5201 26.735 21.3251 26.735 21.1051C26.735 20.8251 26.625 20.6051 26.405 20.4451C26.185 20.2751 25.895 20.1401 25.535 20.0401C25.175 19.9301 24.775 19.8301 24.335 19.7401C23.905 19.6401 23.47 19.5201 23.03 19.3801C22.6 19.2401 22.205 19.0601 21.845 18.8401C21.485 18.6201 21.19 18.3301 20.96 17.9701C20.74 17.6101 20.63 17.1501 20.63 16.5901C20.63 15.9901 20.79 15.4451 21.11 14.9551C21.44 14.4551 21.93 14.0601 22.58 13.7701C23.24 13.4701 24.065 13.3201 25.055 13.3201C25.715 13.3201 26.365 13.4001 27.005 13.5601C27.645 13.7101 28.21 13.9401 28.7 14.2501L27.95 16.0951C27.46 15.8151 26.97 15.6101 26.48 15.4801C25.99 15.3401 25.51 15.2701 25.04 15.2701C24.57 15.2701 24.185 15.3251 23.885 15.4351C23.585 15.5451 23.37 15.6901 23.24 15.8701C23.11 16.0401 23.045 16.2401 23.045 16.4701C23.045 16.7401 23.155 16.9601 23.375 17.1301C23.595 17.2901 23.885 17.4201 24.245 17.5201C24.605 17.6201 25 17.7201 25.43 17.8201C25.87 17.9201 26.305 18.0351 26.735 18.1651C27.175 18.2951 27.575 18.4701 27.935 18.6901C28.295 18.9101 28.585 19.2001 28.805 19.5601C29.035 19.9201 29.15 20.3751 29.15 20.9251C29.15 21.5151 28.985 22.0551 28.655 22.5451C28.325 23.0351 27.83 23.4301 27.17 23.7301C26.52 24.0301 25.695 24.1801 24.695 24.1801Z" fill="white"/>
<path d="M35.5504 15.8101C36.1904 15.8101 36.7604 15.9401 37.2604 16.2001C37.7704 16.4501 38.1704 16.8401 38.4604 17.3701C38.7504 17.8901 38.8954 18.5601 38.8954 19.3801V24.0001H36.5554V19.7401C36.5554 19.0901 36.4104 18.6101 36.1204 18.3001C35.8404 17.9901 35.4404 17.8351 34.9204 17.8351C34.5504 17.8351 34.2154 17.9151 33.9154 18.0751C33.6254 18.2251 33.3954 18.4601 33.2254 18.7801C33.0654 19.1001 32.9854 19.5101 32.9854 20.0101V24.0001H30.6454V12.8701H32.9854V18.1651L32.4604 17.4901C32.7504 16.9501 33.1654 16.5351 33.7054 16.2451C34.2454 15.9551 34.8604 15.8101 35.5504 15.8101Z" fill="white"/>
<path d="M45.9665 24.0001V22.4251L45.8165 22.0801V19.2601C45.8165 18.7601 45.6615 18.3701 45.3515 18.0901C45.0515 17.8101 44.5865 17.6701 43.9565 17.6701C43.5265 17.6701 43.1015 17.7401 42.6815 17.8801C42.2715 18.0101 41.9215 18.1901 41.6315 18.4201L40.7915 16.7851C41.2315 16.4751 41.7615 16.2351 42.3815 16.0651C43.0015 15.8951 43.6315 15.8101 44.2715 15.8101C45.5015 15.8101 46.4565 16.1001 47.1365 16.6801C47.8165 17.2601 48.1565 18.1651 48.1565 19.3951V24.0001H45.9665ZM43.5065 24.1201C42.8765 24.1201 42.3365 24.0151 41.8865 23.8051C41.4365 23.5851 41.0915 23.2901 40.8515 22.9201C40.6115 22.5501 40.4915 22.1351 40.4915 21.6751C40.4915 21.1951 40.6065 20.7751 40.8365 20.4151C41.0765 20.0551 41.4515 19.7751 41.9615 19.5751C42.4715 19.3651 43.1365 19.2601 43.9565 19.2601H46.1015V20.6251H44.2115C43.6615 20.6251 43.2815 20.7151 43.0715 20.8951C42.8715 21.0751 42.7715 21.3001 42.7715 21.5701C42.7715 21.8701 42.8865 22.1101 43.1165 22.2901C43.3565 22.4601 43.6815 22.5451 44.0915 22.5451C44.4815 22.5451 44.8315 22.4551 45.1415 22.2751C45.4515 22.0851 45.6765 21.8101 45.8165 21.4501L46.1765 22.5301C46.0065 23.0501 45.6965 23.4451 45.2465 23.7151C44.7965 23.9851 44.2165 24.1201 43.5065 24.1201Z" fill="white"/>
<path d="M50.2743 24.0001V15.9301H52.5093V18.2101L52.1943 17.5501C52.4343 16.9801 52.8193 16.5501 53.3493 16.2601C53.8794 15.9601 54.5244 15.8101 55.2844 15.8101V17.9701C55.1844 17.9601 55.0944 17.9551 55.0144 17.9551C54.9344 17.9451 54.8493 17.9401 54.7593 17.9401C54.1193 17.9401 53.5994 18.1251 53.1994 18.4951C52.8094 18.8551 52.6144 19.4201 52.6144 20.1901V24.0001H50.2743Z" fill="white"/>
<path d="M60.6075 24.1201C59.6875 24.1201 58.8775 23.9401 58.1775 23.5801C57.4875 23.2201 56.9525 22.7301 56.5725 22.1101C56.1925 21.4801 56.0025 20.7651 56.0025 19.9651C56.0025 19.1551 56.1875 18.4401 56.5575 17.8201C56.9375 17.1901 57.4525 16.7001 58.1025 16.3501C58.7525 15.9901 59.4875 15.8101 60.3075 15.8101C61.0975 15.8101 61.8075 15.9801 62.4375 16.3201C63.0775 16.6501 63.5825 17.1301 63.9525 17.7601C64.3225 18.3801 64.5075 19.1251 64.5075 19.9951C64.5075 20.0851 64.5025 20.1901 64.4925 20.3101C64.4825 20.4201 64.4725 20.5251 64.4625 20.6251H57.9075V19.2601H63.2325L62.3325 19.6651C62.3325 19.2451 62.2475 18.8801 62.0775 18.5701C61.9075 18.2601 61.6725 18.0201 61.3725 17.8501C61.0725 17.6701 60.7225 17.5801 60.3225 17.5801C59.9225 17.5801 59.5675 17.6701 59.2575 17.8501C58.9575 18.0201 58.7225 18.2651 58.5525 18.5851C58.3825 18.8951 58.2975 19.2651 58.2975 19.6951V20.0551C58.2975 20.4951 58.3925 20.8851 58.5825 21.2251C58.7825 21.5551 59.0575 21.8101 59.4075 21.9901C59.7675 22.1601 60.1875 22.2451 60.6675 22.2451C61.0975 22.2451 61.4725 22.1801 61.7925 22.0501C62.1225 21.9201 62.4225 21.7251 62.6925 21.4651L63.9375 22.8151C63.5675 23.2351 63.1025 23.5601 62.5425 23.7901C61.9825 24.0101 61.3375 24.1201 60.6075 24.1201Z" fill="white"/>
<line x1="87.7133" y1="25.4096" x2="77.7133" y2="18.4096" stroke="white"/>
<line x1="88.2572" y1="12.4287" x2="78.2572" y2="18.4287" stroke="white"/>
<circle cx="88" cy="12" r="3" fill="white"/>
<circle cx="88" cy="25" r="3" fill="white"/>
<circle cx="78" cy="18" r="3" fill="white"/>
<defs>
<filter id="filter0_d_10_2332" x="0" y="0" width="111" height="44" filterUnits="userSpaceOnUse" color-interpolation-filters="sRGB">
<feFlood flood-opacity="0" result="BackgroundImageFix"/>
<feColorMatrix in="SourceAlpha" type="matrix" values="0 0 0 0 0 0 0 0 0 0 0 0 0 0 0 0 0 0 127 0" result="hardAlpha"/>
<feOffset dy="4"/>
<feGaussianBlur stdDeviation="2"/>
<feComposite in2="hardAlpha" operator="out"/>
<feColorMatrix type="matrix" values="0 0 0 0 0.0834201 0 0 0 0 0.101719 0 0 0 0 0.129167 0 0 0 0.15 0"/>
<feBlend mode="normal" in2="BackgroundImageFix" result="effect1_dropShadow_10_2332"/>
<feBlend mode="normal" in="SourceGraphic" in2="effect1_dropShadow_10_2332" result="shape"/>
</filter>
<linearGradient id="paint0_linear_10_2332" x1="55.5" y1="0" x2="55.5" y2="36" gradientUnits="userSpaceOnUse">
<stop stop-color="#424061"/>
<stop offset="1" stop-color="#2F2E3C"/>
</linearGradient>
</defs>
</svg>
