<svg width="412" height="70" viewBox="0 0 412 70" fill="none" xmlns="http://www.w3.org/2000/svg">
<path d="M0 6C0 2.68629 2.68629 0 6 0H406C409.314 0 412 2.68629 412 6V64C412 67.3137 409.314 70 406 70H5.99999C2.68628 70 0 67.3137 0 64V6Z" fill="url(#paint0_linear_10_2347)" fill-opacity="0.2"/>
<path d="M0 6C0 2.68629 2.68629 0 6 0H406C409.314 0 412 2.68629 412 6V64C412 67.3137 409.314 70 406 70H5.99999C2.68628 70 0 67.3137 0 64V6Z" fill="url(#paint1_linear_10_2347)"/>
<path d="M0 6C0 2.68629 2.68629 0 6 0H406C409.314 0 412 2.68629 412 6V64C412 67.3137 409.314 70 406 70H5.99999C2.68628 70 0 67.3137 0 64V6Z" fill="url(#paint2_linear_10_2347)"/>
<path d="M170.22 42.2001C169.127 42.2001 168.08 42.0467 167.08 41.7401C166.08 41.4201 165.287 41.0134 164.7 40.5201L165.6 38.5001C166.16 38.9401 166.853 39.3067 167.68 39.6001C168.507 39.8934 169.353 40.0401 170.22 40.0401C170.953 40.0401 171.547 39.9601 172 39.8001C172.453 39.6401 172.787 39.4267 173 39.1601C173.213 38.8801 173.32 38.5667 173.32 38.2201C173.32 37.7934 173.167 37.4534 172.86 37.2001C172.553 36.9334 172.153 36.7267 171.66 36.5801C171.18 36.4201 170.64 36.2734 170.04 36.1401C169.453 36.0067 168.86 35.8534 168.26 35.6801C167.673 35.4934 167.133 35.2601 166.64 34.9801C166.16 34.6867 165.767 34.3001 165.46 33.8201C165.153 33.3401 165 32.7267 165 31.9801C165 31.2201 165.2 30.5267 165.6 29.9001C166.013 29.2601 166.633 28.7534 167.46 28.3801C168.3 27.9934 169.36 27.8001 170.64 27.8001C171.48 27.8001 172.313 27.9067 173.14 28.1201C173.967 28.3334 174.687 28.6401 175.3 29.0401L174.48 31.0601C173.853 30.6867 173.207 30.4134 172.54 30.2401C171.873 30.0534 171.233 29.9601 170.62 29.9601C169.9 29.9601 169.313 30.0467 168.86 30.2201C168.42 30.3934 168.093 30.6201 167.88 30.9001C167.68 31.1801 167.58 31.5001 167.58 31.8601C167.58 32.2867 167.727 32.6334 168.02 32.9001C168.327 33.1534 168.72 33.3534 169.2 33.5001C169.693 33.6467 170.24 33.7934 170.84 33.9401C171.44 34.0734 172.033 34.2267 172.62 34.4001C173.22 34.5734 173.76 34.8001 174.24 35.0801C174.733 35.3601 175.127 35.7401 175.42 36.2201C175.727 36.7001 175.88 37.3067 175.88 38.0401C175.88 38.7867 175.673 39.4801 175.26 40.1201C174.86 40.7467 174.24 41.2534 173.4 41.6401C172.56 42.0134 171.5 42.2001 170.22 42.2001Z" fill="white"/>
<path d="M182.738 42.1401C181.831 42.1401 181.031 41.9734 180.338 41.6401C179.645 41.2934 179.105 40.7734 178.718 40.0801C178.331 39.3734 178.138 38.4867 178.138 37.4201V31.3201H180.638V37.0801C180.638 38.0401 180.851 38.7601 181.278 39.2401C181.718 39.7067 182.338 39.9401 183.138 39.9401C183.725 39.9401 184.231 39.8201 184.658 39.5801C185.098 39.3401 185.438 38.9801 185.678 38.5001C185.931 38.0201 186.058 37.4267 186.058 36.7201V31.3201H188.558V42.0001H186.178V39.1201L186.598 40.0001C186.238 40.6934 185.711 41.2267 185.018 41.6001C184.325 41.9601 183.565 42.1401 182.738 42.1401Z" fill="white"/>
<path d="M197.751 42.1401C196.845 42.1401 196.038 41.9401 195.331 41.5401C194.625 41.1401 194.065 40.5401 193.651 39.7401C193.251 38.9267 193.051 37.9001 193.051 36.6601C193.051 35.4067 193.258 34.3801 193.671 33.5801C194.098 32.7801 194.665 32.1867 195.371 31.8001C196.091 31.4001 196.885 31.2001 197.751 31.2001C198.805 31.2001 199.731 31.4267 200.531 31.8801C201.345 32.3334 201.985 32.9667 202.451 33.7801C202.931 34.5934 203.171 35.5534 203.171 36.6601C203.171 37.7667 202.931 38.7267 202.451 39.5401C201.985 40.3534 201.345 40.9934 200.531 41.4601C199.731 41.9134 198.805 42.1401 197.751 42.1401ZM191.831 42.0001V27.1601H194.331V33.8001L194.131 36.6401L194.211 39.4801V42.0001H191.831ZM197.471 40.0001C198.071 40.0001 198.605 39.8667 199.071 39.6001C199.551 39.3334 199.931 38.9467 200.211 38.4401C200.491 37.9334 200.631 37.3401 200.631 36.6601C200.631 35.9667 200.491 35.3734 200.211 34.8801C199.931 34.3734 199.551 33.9867 199.071 33.7201C198.605 33.4534 198.071 33.3201 197.471 33.3201C196.871 33.3201 196.331 33.4534 195.851 33.7201C195.371 33.9867 194.991 34.3734 194.711 34.8801C194.431 35.3734 194.291 35.9667 194.291 36.6601C194.291 37.3401 194.431 37.9334 194.711 38.4401C194.991 38.9467 195.371 39.3334 195.851 39.6001C196.331 39.8667 196.871 40.0001 197.471 40.0001Z" fill="white"/>
<path d="M219.022 31.2001C219.876 31.2001 220.629 31.3667 221.282 31.7001C221.949 32.0334 222.469 32.5467 222.842 33.2401C223.216 33.9201 223.402 34.8001 223.402 35.8801V42.0001H220.902V36.2001C220.902 35.2534 220.696 34.5467 220.282 34.0801C219.869 33.6134 219.276 33.3801 218.502 33.3801C217.956 33.3801 217.469 33.5001 217.042 33.7401C216.629 33.9801 216.302 34.3334 216.062 34.8001C215.836 35.2667 215.722 35.8601 215.722 36.5801V42.0001H213.222V36.2001C213.222 35.2534 213.016 34.5467 212.602 34.0801C212.189 33.6134 211.596 33.3801 210.822 33.3801C210.276 33.3801 209.789 33.5001 209.362 33.7401C208.949 33.9801 208.622 34.3334 208.382 34.8001C208.156 35.2667 208.042 35.8601 208.042 36.5801V42.0001H205.542V31.3201H207.922V34.1601L207.502 33.3201C207.862 32.6267 208.382 32.1001 209.062 31.7401C209.756 31.3801 210.542 31.2001 211.422 31.2001C212.422 31.2001 213.289 31.4467 214.022 31.9401C214.769 32.4334 215.262 33.1801 215.502 34.1801L214.522 33.8401C214.869 33.0401 215.442 32.4001 216.242 31.9201C217.042 31.4401 217.969 31.2001 219.022 31.2001Z" fill="white"/>
<path d="M226.597 42.0001V31.3201H229.097V42.0001H226.597ZM227.857 29.5601C227.39 29.5601 227.004 29.4134 226.697 29.1201C226.404 28.8267 226.257 28.4734 226.257 28.0601C226.257 27.6334 226.404 27.2801 226.697 27.0001C227.004 26.7067 227.39 26.5601 227.857 26.5601C228.324 26.5601 228.704 26.7001 228.997 26.9801C229.304 27.2467 229.457 27.5867 229.457 28.0001C229.457 28.4401 229.31 28.8134 229.017 29.1201C228.724 29.4134 228.337 29.5601 227.857 29.5601Z" fill="white"/>
<path d="M236.398 42.1401C235.225 42.1401 234.318 41.8401 233.678 41.2401C233.038 40.6267 232.718 39.7267 232.718 38.5401V28.9601H235.218V38.4801C235.218 38.9867 235.345 39.3801 235.598 39.6601C235.865 39.9401 236.232 40.0801 236.698 40.0801C237.258 40.0801 237.725 39.9334 238.098 39.6401L238.798 41.4201C238.505 41.6601 238.145 41.8401 237.718 41.9601C237.292 42.0801 236.852 42.1401 236.398 42.1401ZM230.958 33.4001V31.4001H238.078V33.4001H230.958Z" fill="white"/>
<defs>
<linearGradient id="paint0_linear_10_2347" x1="206" y1="0" x2="206" y2="70" gradientUnits="userSpaceOnUse">
<stop stop-color="#424061"/>
<stop offset="1" stop-color="#2F2E3C"/>
</linearGradient>
<linearGradient id="paint1_linear_10_2347" x1="206" y1="0" x2="206" y2="70" gradientUnits="userSpaceOnUse">
<stop stop-color="#424061"/>
<stop offset="1" stop-color="#2F2E3C"/>
</linearGradient>
<linearGradient id="paint2_linear_10_2347" x1="221.322" y1="-3.45627e-05" x2="219.262" y2="70.0896" gradientUnits="userSpaceOnUse">
<stop stop-color="#FFD236"/>
<stop offset="1" stop-color="#FF8F3D"/>
</linearGradient>
</defs>
</svg>
