<svg width="290" height="68" viewBox="0 0 290 68" fill="none" xmlns="http://www.w3.org/2000/svg">
<path d="M0 20C0 8.9543 8.95431 0 20 0H270C281.046 0 290 8.95431 290 20V48C290 59.0457 281.046 68 270 68H20C8.9543 68 0 59.0457 0 48V20Z" fill="url(#paint0_linear_10_2342)"/>
<path d="M32.9538 28.9998L26.9138 14.9998H30.4138L35.6938 27.3998H33.6338L38.9938 14.9998H42.2138L36.1538 28.9998H32.9538Z" fill="white"/>
<path d="M43.358 28.9998V18.2398H46.478V28.9998H43.358ZM44.918 16.7398C44.3446 16.7398 43.878 16.5731 43.518 16.2398C43.158 15.9064 42.978 15.4931 42.978 14.9998C42.978 14.5064 43.158 14.0931 43.518 13.7598C43.878 13.4264 44.3446 13.2598 44.918 13.2598C45.4913 13.2598 45.958 13.4198 46.318 13.7398C46.678 14.0464 46.858 14.4464 46.858 14.9398C46.858 15.4598 46.678 15.8931 46.318 16.2398C45.9713 16.5731 45.5046 16.7398 44.918 16.7398Z" fill="white"/>
<path d="M54.7136 29.1598C53.4869 29.1598 52.4069 28.9198 51.4736 28.4398C50.5536 27.9598 49.8403 27.3064 49.3336 26.4798C48.8269 25.6398 48.5736 24.6864 48.5736 23.6198C48.5736 22.5398 48.8203 21.5864 49.3136 20.7598C49.8203 19.9198 50.5069 19.2664 51.3736 18.7998C52.2403 18.3198 53.2203 18.0798 54.3136 18.0798C55.3669 18.0798 56.3136 18.3064 57.1536 18.7598C58.0069 19.1998 58.6803 19.8398 59.1736 20.6798C59.6669 21.5064 59.9136 22.4998 59.9136 23.6598C59.9136 23.7798 59.9069 23.9198 59.8936 24.0798C59.8803 24.2264 59.8669 24.3664 59.8536 24.4998H51.1136V22.6798H58.2136L57.0136 23.2198C57.0136 22.6598 56.9003 22.1731 56.6736 21.7598C56.4469 21.3464 56.1336 21.0264 55.7336 20.7998C55.3336 20.5598 54.8669 20.4398 54.3336 20.4398C53.8003 20.4398 53.3269 20.5598 52.9136 20.7998C52.5136 21.0264 52.2003 21.3531 51.9736 21.7798C51.7469 22.1931 51.6336 22.6864 51.6336 23.2598V23.7398C51.6336 24.3264 51.7603 24.8464 52.0136 25.2998C52.2803 25.7398 52.6469 26.0798 53.1136 26.3198C53.5936 26.5464 54.1536 26.6598 54.7936 26.6598C55.3669 26.6598 55.8669 26.5731 56.2936 26.3998C56.7336 26.2264 57.1336 25.9664 57.4936 25.6198L59.1536 27.4198C58.6603 27.9798 58.0403 28.4131 57.2936 28.7198C56.5469 29.0131 55.6869 29.1598 54.7136 29.1598Z" fill="white"/>
<path d="M64.2555 28.9998L60.3755 18.2398H63.3155L66.5355 27.4998H65.1355L68.4955 18.2398H71.1355L74.3955 27.4998H72.9955L76.3155 18.2398H79.0755L75.1755 28.9998H72.1555L69.2955 21.0598H70.2155L67.2555 28.9998H64.2555Z" fill="white"/>
<path d="M91.39 29.1598C90.23 29.1598 89.1967 28.9264 88.29 28.4598C87.3833 27.9798 86.67 27.3198 86.15 26.4798C85.6433 25.6398 85.39 24.6864 85.39 23.6198C85.39 22.5398 85.6433 21.5864 86.15 20.7598C86.67 19.9198 87.3833 19.2664 88.29 18.7998C89.1967 18.3198 90.23 18.0798 91.39 18.0798C92.5233 18.0798 93.51 18.3198 94.35 18.7998C95.19 19.2664 95.81 19.9398 96.21 20.8198L93.79 22.1198C93.51 21.6131 93.1567 21.2398 92.73 20.9998C92.3167 20.7598 91.8633 20.6398 91.37 20.6398C90.8367 20.6398 90.3567 20.7598 89.93 20.9998C89.5033 21.2398 89.1633 21.5798 88.91 22.0198C88.67 22.4598 88.55 22.9931 88.55 23.6198C88.55 24.2464 88.67 24.7798 88.91 25.2198C89.1633 25.6598 89.5033 25.9998 89.93 26.2398C90.3567 26.4798 90.8367 26.5998 91.37 26.5998C91.8633 26.5998 92.3167 26.4864 92.73 26.2598C93.1567 26.0198 93.51 25.6398 93.79 25.1198L96.21 26.4398C95.81 27.3064 95.19 27.9798 94.35 28.4598C93.51 28.9264 92.5233 29.1598 91.39 29.1598Z" fill="white"/>
<path d="M102.99 29.1598C101.843 29.1598 100.823 28.9198 99.9297 28.4398C99.0497 27.9598 98.3497 27.3064 97.8297 26.4798C97.323 25.6398 97.0697 24.6864 97.0697 23.6198C97.0697 22.5398 97.323 21.5864 97.8297 20.7598C98.3497 19.9198 99.0497 19.2664 99.9297 18.7998C100.823 18.3198 101.843 18.0798 102.99 18.0798C104.123 18.0798 105.136 18.3198 106.03 18.7998C106.923 19.2664 107.623 19.9131 108.13 20.7398C108.636 21.5664 108.89 22.5264 108.89 23.6198C108.89 24.6864 108.636 25.6398 108.13 26.4798C107.623 27.3064 106.923 27.9598 106.03 28.4398C105.136 28.9198 104.123 29.1598 102.99 29.1598ZM102.99 26.5998C103.51 26.5998 103.976 26.4798 104.39 26.2398C104.803 25.9998 105.13 25.6598 105.37 25.2198C105.61 24.7664 105.73 24.2331 105.73 23.6198C105.73 22.9931 105.61 22.4598 105.37 22.0198C105.13 21.5798 104.803 21.2398 104.39 20.9998C103.976 20.7598 103.51 20.6398 102.99 20.6398C102.47 20.6398 102.003 20.7598 101.59 20.9998C101.176 21.2398 100.843 21.5798 100.59 22.0198C100.35 22.4598 100.23 22.9931 100.23 23.6198C100.23 24.2331 100.35 24.7664 100.59 25.2198C100.843 25.6598 101.176 25.9998 101.59 26.2398C102.003 26.4798 102.47 26.5998 102.99 26.5998Z" fill="white"/>
<path d="M117.515 18.0798C118.369 18.0798 119.128 18.2531 119.795 18.5998C120.475 18.9331 121.008 19.4531 121.395 20.1598C121.782 20.8531 121.975 21.7464 121.975 22.8398V28.9998H118.855V23.3198C118.855 22.4531 118.662 21.8131 118.275 21.3998C117.902 20.9864 117.368 20.7798 116.675 20.7798C116.182 20.7798 115.735 20.8864 115.335 21.0998C114.949 21.2998 114.642 21.6131 114.415 22.0398C114.202 22.4664 114.095 23.0131 114.095 23.6798V28.9998H110.975V18.2398H113.955V21.2198L113.395 20.3198C113.782 19.5998 114.335 19.0464 115.055 18.6598C115.775 18.2731 116.595 18.0798 117.515 18.0798Z" fill="white"/>
<path d="M129.203 29.1598C127.937 29.1598 126.95 28.8398 126.243 28.1998C125.537 27.5464 125.183 26.5798 125.183 25.2998V15.8598H128.303V25.2598C128.303 25.7131 128.423 26.0664 128.663 26.3198C128.903 26.5598 129.23 26.6798 129.643 26.6798C130.137 26.6798 130.557 26.5464 130.903 26.2798L131.743 28.4798C131.423 28.7064 131.037 28.8798 130.583 28.9998C130.143 29.1064 129.683 29.1598 129.203 29.1598ZM123.523 20.8798V18.4798H130.983V20.8798H123.523Z" fill="white"/>
<path d="M138.503 29.1598C137.276 29.1598 136.196 28.9198 135.263 28.4398C134.343 27.9598 133.629 27.3064 133.123 26.4798C132.616 25.6398 132.363 24.6864 132.363 23.6198C132.363 22.5398 132.609 21.5864 133.103 20.7598C133.609 19.9198 134.296 19.2664 135.163 18.7998C136.029 18.3198 137.009 18.0798 138.103 18.0798C139.156 18.0798 140.103 18.3064 140.943 18.7598C141.796 19.1998 142.469 19.8398 142.963 20.6798C143.456 21.5064 143.703 22.4998 143.703 23.6598C143.703 23.7798 143.696 23.9198 143.683 24.0798C143.669 24.2264 143.656 24.3664 143.643 24.4998H134.903V22.6798H142.003L140.803 23.2198C140.803 22.6598 140.689 22.1731 140.463 21.7598C140.236 21.3464 139.923 21.0264 139.523 20.7998C139.123 20.5598 138.656 20.4398 138.123 20.4398C137.589 20.4398 137.116 20.5598 136.703 20.7998C136.303 21.0264 135.989 21.3531 135.763 21.7798C135.536 22.1931 135.423 22.6864 135.423 23.2598V23.7398C135.423 24.3264 135.549 24.8464 135.803 25.2998C136.069 25.7398 136.436 26.0798 136.903 26.3198C137.383 26.5464 137.943 26.6598 138.583 26.6598C139.156 26.6598 139.656 26.5731 140.083 26.3998C140.523 26.2264 140.923 25.9664 141.283 25.6198L142.943 27.4198C142.449 27.9798 141.829 28.4131 141.083 28.7198C140.336 29.0131 139.476 29.1598 138.503 29.1598Z" fill="white"/>
<path d="M149.4 29.1598C148.48 29.1598 147.593 29.0531 146.74 28.8398C145.9 28.6131 145.233 28.3331 144.74 27.9998L145.78 25.7598C146.273 26.0664 146.853 26.3198 147.52 26.5198C148.2 26.7064 148.867 26.7998 149.52 26.7998C150.24 26.7998 150.747 26.7131 151.04 26.5398C151.347 26.3664 151.5 26.1264 151.5 25.8198C151.5 25.5664 151.38 25.3798 151.14 25.2598C150.913 25.1264 150.607 25.0264 150.22 24.9598C149.833 24.8931 149.407 24.8264 148.94 24.7598C148.487 24.6931 148.027 24.6064 147.56 24.4998C147.093 24.3798 146.667 24.2064 146.28 23.9798C145.893 23.7531 145.58 23.4464 145.34 23.0598C145.113 22.6731 145 22.1731 145 21.5598C145 20.8798 145.193 20.2798 145.58 19.7598C145.98 19.2398 146.553 18.8331 147.3 18.5398C148.047 18.2331 148.94 18.0798 149.98 18.0798C150.713 18.0798 151.46 18.1598 152.22 18.3198C152.98 18.4798 153.613 18.7131 154.12 19.0198L153.08 21.2398C152.56 20.9331 152.033 20.7264 151.5 20.6198C150.98 20.4998 150.473 20.4398 149.98 20.4398C149.287 20.4398 148.78 20.5331 148.46 20.7198C148.14 20.9064 147.98 21.1464 147.98 21.4398C147.98 21.7064 148.093 21.9064 148.32 22.0398C148.56 22.1731 148.873 22.2798 149.26 22.3598C149.647 22.4398 150.067 22.5131 150.52 22.5798C150.987 22.6331 151.453 22.7198 151.92 22.8398C152.387 22.9598 152.807 23.1331 153.18 23.3598C153.567 23.5731 153.88 23.8731 154.12 24.2598C154.36 24.6331 154.48 25.1264 154.48 25.7398C154.48 26.4064 154.28 26.9998 153.88 27.5198C153.48 28.0264 152.9 28.4264 152.14 28.7198C151.393 29.0131 150.48 29.1598 149.4 29.1598Z" fill="white"/>
<path d="M160.805 29.1598C159.538 29.1598 158.552 28.8398 157.845 28.1998C157.138 27.5464 156.785 26.5798 156.785 25.2998V15.8598H159.905V25.2598C159.905 25.7131 160.025 26.0664 160.265 26.3198C160.505 26.5598 160.832 26.6798 161.245 26.6798C161.738 26.6798 162.158 26.5464 162.505 26.2798L163.345 28.4798C163.025 28.7064 162.638 28.8798 162.185 28.9998C161.745 29.1064 161.285 29.1598 160.805 29.1598ZM155.125 20.8798V18.4798H162.585V20.8798H155.125Z" fill="white"/>
<path d="M171.696 28.9998V26.8998L171.496 26.4398V22.6798C171.496 22.0131 171.29 21.4931 170.876 21.1198C170.476 20.7464 169.856 20.5598 169.016 20.5598C168.443 20.5598 167.876 20.6531 167.316 20.8398C166.77 21.0131 166.303 21.2531 165.916 21.5598L164.796 19.3798C165.383 18.9664 166.09 18.6464 166.916 18.4198C167.743 18.1931 168.583 18.0798 169.436 18.0798C171.076 18.0798 172.35 18.4664 173.256 19.2398C174.163 20.0131 174.616 21.2198 174.616 22.8598V28.9998H171.696ZM168.416 29.1598C167.576 29.1598 166.856 29.0198 166.256 28.7398C165.656 28.4464 165.196 28.0531 164.876 27.5598C164.556 27.0664 164.396 26.5131 164.396 25.8998C164.396 25.2598 164.55 24.6998 164.856 24.2198C165.176 23.7398 165.676 23.3664 166.356 23.0998C167.036 22.8198 167.923 22.6798 169.016 22.6798H171.876V24.4998H169.356C168.623 24.4998 168.116 24.6198 167.836 24.8598C167.57 25.0998 167.436 25.3998 167.436 25.7598C167.436 26.1598 167.59 26.4798 167.896 26.7198C168.216 26.9464 168.65 27.0598 169.196 27.0598C169.716 27.0598 170.183 26.9398 170.596 26.6998C171.01 26.4464 171.31 26.0798 171.496 25.5998L171.976 27.0398C171.75 27.7331 171.336 28.2598 170.736 28.6198C170.136 28.9798 169.363 29.1598 168.416 29.1598Z" fill="white"/>
<path d="M183.98 18.0798C184.833 18.0798 185.593 18.2531 186.26 18.5998C186.94 18.9331 187.473 19.4531 187.86 20.1598C188.247 20.8531 188.44 21.7464 188.44 22.8398V28.9998H185.32V23.3198C185.32 22.4531 185.127 21.8131 184.74 21.3998C184.367 20.9864 183.833 20.7798 183.14 20.7798C182.647 20.7798 182.2 20.8864 181.8 21.0998C181.413 21.2998 181.107 21.6131 180.88 22.0398C180.667 22.4664 180.56 23.0131 180.56 23.6798V28.9998H177.44V18.2398H180.42V21.2198L179.86 20.3198C180.247 19.5998 180.8 19.0464 181.52 18.6598C182.24 18.2731 183.06 18.0798 183.98 18.0798Z" fill="white"/>
<path d="M195.668 29.1598C194.401 29.1598 193.415 28.8398 192.708 28.1998C192.001 27.5464 191.648 26.5798 191.648 25.2998V15.8598H194.768V25.2598C194.768 25.7131 194.888 26.0664 195.128 26.3198C195.368 26.5598 195.695 26.6798 196.108 26.6798C196.601 26.6798 197.021 26.5464 197.368 26.2798L198.208 28.4798C197.888 28.7064 197.501 28.8798 197.048 28.9998C196.608 29.1064 196.148 29.1598 195.668 29.1598ZM189.988 20.8798V18.4798H197.448V20.8798H189.988Z" fill="white"/>
<path d="M203.58 29.1598C202.66 29.1598 201.773 29.0531 200.92 28.8398C200.08 28.6131 199.413 28.3331 198.92 27.9998L199.96 25.7598C200.453 26.0664 201.033 26.3198 201.7 26.5198C202.38 26.7064 203.046 26.7998 203.7 26.7998C204.42 26.7998 204.926 26.7131 205.22 26.5398C205.526 26.3664 205.68 26.1264 205.68 25.8198C205.68 25.5664 205.56 25.3798 205.32 25.2598C205.093 25.1264 204.786 25.0264 204.4 24.9598C204.013 24.8931 203.586 24.8264 203.12 24.7598C202.666 24.6931 202.206 24.6064 201.74 24.4998C201.273 24.3798 200.846 24.2064 200.46 23.9798C200.073 23.7531 199.76 23.4464 199.52 23.0598C199.293 22.6731 199.18 22.1731 199.18 21.5598C199.18 20.8798 199.373 20.2798 199.76 19.7598C200.16 19.2398 200.733 18.8331 201.48 18.5398C202.226 18.2331 203.12 18.0798 204.16 18.0798C204.893 18.0798 205.64 18.1598 206.4 18.3198C207.16 18.4798 207.793 18.7131 208.3 19.0198L207.26 21.2398C206.74 20.9331 206.213 20.7264 205.68 20.6198C205.16 20.4998 204.653 20.4398 204.16 20.4398C203.466 20.4398 202.96 20.5331 202.64 20.7198C202.32 20.9064 202.16 21.1464 202.16 21.4398C202.16 21.7064 202.273 21.9064 202.5 22.0398C202.74 22.1731 203.053 22.2798 203.44 22.3598C203.826 22.4398 204.246 22.5131 204.7 22.5798C205.166 22.6331 205.633 22.7198 206.1 22.8398C206.566 22.9598 206.986 23.1331 207.36 23.3598C207.746 23.5731 208.06 23.8731 208.3 24.2598C208.54 24.6331 208.66 25.1264 208.66 25.7398C208.66 26.4064 208.46 26.9998 208.06 27.5198C207.66 28.0264 207.08 28.4264 206.32 28.7198C205.573 29.0131 204.66 29.1598 203.58 29.1598Z" fill="white"/>
<path d="M222.849 28.9998V26.8998L222.649 26.4398V22.6798C222.649 22.0131 222.442 21.4931 222.029 21.1198C221.629 20.7464 221.009 20.5598 220.169 20.5598C219.595 20.5598 219.029 20.6531 218.469 20.8398C217.922 21.0131 217.455 21.2531 217.069 21.5598L215.949 19.3798C216.535 18.9664 217.242 18.6464 218.069 18.4198C218.895 18.1931 219.735 18.0798 220.589 18.0798C222.229 18.0798 223.502 18.4664 224.409 19.2398C225.315 20.0131 225.769 21.2198 225.769 22.8598V28.9998H222.849ZM219.569 29.1598C218.729 29.1598 218.009 29.0198 217.409 28.7398C216.809 28.4464 216.349 28.0531 216.029 27.5598C215.709 27.0664 215.549 26.5131 215.549 25.8998C215.549 25.2598 215.702 24.6998 216.009 24.2198C216.329 23.7398 216.829 23.3664 217.509 23.0998C218.189 22.8198 219.075 22.6798 220.169 22.6798H223.029V24.4998H220.509C219.775 24.4998 219.269 24.6198 218.989 24.8598C218.722 25.0998 218.589 25.3998 218.589 25.7598C218.589 26.1598 218.742 26.4798 219.049 26.7198C219.369 26.9464 219.802 27.0598 220.349 27.0598C220.869 27.0598 221.335 26.9398 221.749 26.6998C222.162 26.4464 222.462 26.0798 222.649 25.5998L223.129 27.0398C222.902 27.7331 222.489 28.2598 221.889 28.6198C221.289 28.9798 220.515 29.1598 219.569 29.1598Z" fill="white"/>
<path d="M235.132 18.0798C235.986 18.0798 236.746 18.2531 237.412 18.5998C238.092 18.9331 238.626 19.4531 239.012 20.1598C239.399 20.8531 239.592 21.7464 239.592 22.8398V28.9998H236.472V23.3198C236.472 22.4531 236.279 21.8131 235.892 21.3998C235.519 20.9864 234.986 20.7798 234.292 20.7798C233.799 20.7798 233.352 20.8864 232.952 21.0998C232.566 21.2998 232.259 21.6131 232.032 22.0398C231.819 22.4664 231.712 23.0131 231.712 23.6798V28.9998H228.592V18.2398H231.572V21.2198L231.012 20.3198C231.399 19.5998 231.952 19.0464 232.672 18.6598C233.392 18.2731 234.212 18.0798 235.132 18.0798Z" fill="white"/>
<path d="M247.119 29.1598C246.105 29.1598 245.192 28.9331 244.379 28.4798C243.565 28.0131 242.919 27.3664 242.439 26.5398C241.972 25.7131 241.739 24.7398 241.739 23.6198C241.739 22.4864 241.972 21.5064 242.439 20.6798C242.919 19.8531 243.565 19.2131 244.379 18.7598C245.192 18.3064 246.105 18.0798 247.119 18.0798C248.025 18.0798 248.819 18.2798 249.499 18.6798C250.179 19.0798 250.705 19.6864 251.079 20.4998C251.452 21.3131 251.639 22.3531 251.639 23.6198C251.639 24.8731 251.459 25.9131 251.099 26.7398C250.739 27.5531 250.219 28.1598 249.539 28.5598C248.872 28.9598 248.065 29.1598 247.119 29.1598ZM247.659 26.5998C248.165 26.5998 248.625 26.4798 249.039 26.2398C249.452 25.9998 249.779 25.6598 250.019 25.2198C250.272 24.7664 250.399 24.2331 250.399 23.6198C250.399 22.9931 250.272 22.4598 250.019 22.0198C249.779 21.5798 249.452 21.2398 249.039 20.9998C248.625 20.7598 248.165 20.6398 247.659 20.6398C247.139 20.6398 246.672 20.7598 246.259 20.9998C245.845 21.2398 245.512 21.5798 245.259 22.0198C245.019 22.4598 244.899 22.9931 244.899 23.6198C244.899 24.2331 245.019 24.7664 245.259 25.2198C245.512 25.6598 245.845 25.9998 246.259 26.2398C246.672 26.4798 247.139 26.5998 247.659 26.5998ZM250.479 28.9998V26.7998L250.539 23.5998L250.339 20.4198V14.1598H253.459V28.9998H250.479Z" fill="white"/>
<path d="M122.489 52.9998L117.969 42.2398H121.189L124.949 51.4998H123.349L127.249 42.2398H130.249L125.709 52.9998H122.489Z" fill="white"/>
<path d="M136.349 53.1598C135.202 53.1598 134.182 52.9198 133.289 52.4398C132.409 51.9598 131.709 51.3064 131.189 50.4798C130.682 49.6398 130.429 48.6864 130.429 47.6198C130.429 46.5398 130.682 45.5864 131.189 44.7598C131.709 43.9198 132.409 43.2664 133.289 42.7998C134.182 42.3198 135.202 42.0798 136.349 42.0798C137.482 42.0798 138.496 42.3198 139.389 42.7998C140.282 43.2664 140.982 43.9131 141.489 44.7398C141.996 45.5664 142.249 46.5264 142.249 47.6198C142.249 48.6864 141.996 49.6398 141.489 50.4798C140.982 51.3064 140.282 51.9598 139.389 52.4398C138.496 52.9198 137.482 53.1598 136.349 53.1598ZM136.349 50.5998C136.869 50.5998 137.336 50.4798 137.749 50.2398C138.162 49.9998 138.489 49.6598 138.729 49.2198C138.969 48.7664 139.089 48.2331 139.089 47.6198C139.089 46.9931 138.969 46.4598 138.729 46.0198C138.489 45.5798 138.162 45.2398 137.749 44.9998C137.336 44.7598 136.869 44.6398 136.349 44.6398C135.829 44.6398 135.362 44.7598 134.949 44.9998C134.536 45.2398 134.202 45.5798 133.949 46.0198C133.709 46.4598 133.589 46.9931 133.589 47.6198C133.589 48.2331 133.709 48.7664 133.949 49.2198C134.202 49.6598 134.536 49.9998 134.949 50.2398C135.362 50.4798 135.829 50.5998 136.349 50.5998Z" fill="white"/>
<path d="M148.735 53.1598C147.468 53.1598 146.481 52.8398 145.775 52.1998C145.068 51.5464 144.715 50.5798 144.715 49.2998V39.8598H147.835V49.2598C147.835 49.7131 147.955 50.0664 148.195 50.3198C148.435 50.5598 148.761 50.6798 149.175 50.6798C149.668 50.6798 150.088 50.5464 150.435 50.2798L151.275 52.4798C150.955 52.7064 150.568 52.8798 150.115 52.9998C149.675 53.1064 149.215 53.1598 148.735 53.1598ZM143.055 44.8798V42.4798H150.515V44.8798H143.055Z" fill="white"/>
<path d="M158.034 53.1598C156.807 53.1598 155.727 52.9198 154.794 52.4398C153.874 51.9598 153.161 51.3064 152.654 50.4798C152.147 49.6398 151.894 48.6864 151.894 47.6198C151.894 46.5398 152.141 45.5864 152.634 44.7598C153.141 43.9198 153.827 43.2664 154.694 42.7998C155.561 42.3198 156.541 42.0798 157.634 42.0798C158.687 42.0798 159.634 42.3064 160.474 42.7598C161.327 43.1998 162.001 43.8398 162.494 44.6798C162.987 45.5064 163.234 46.4998 163.234 47.6598C163.234 47.7798 163.227 47.9198 163.214 48.0798C163.201 48.2264 163.187 48.3664 163.174 48.4998H154.434V46.6798H161.534L160.334 47.2198C160.334 46.6598 160.221 46.1731 159.994 45.7598C159.767 45.3464 159.454 45.0264 159.054 44.7998C158.654 44.5598 158.187 44.4398 157.654 44.4398C157.121 44.4398 156.647 44.5598 156.234 44.7998C155.834 45.0264 155.521 45.3531 155.294 45.7798C155.067 46.1931 154.954 46.6864 154.954 47.2598V47.7398C154.954 48.3264 155.081 48.8464 155.334 49.2998C155.601 49.7398 155.967 50.0798 156.434 50.3198C156.914 50.5464 157.474 50.6598 158.114 50.6598C158.687 50.6598 159.187 50.5731 159.614 50.3998C160.054 50.2264 160.454 49.9664 160.814 49.6198L162.474 51.4198C161.981 51.9798 161.361 52.4131 160.614 52.7198C159.867 53.0131 159.007 53.1598 158.034 53.1598Z" fill="white"/>
<defs>
<linearGradient id="paint0_linear_10_2342" x1="155.785" y1="-3.35752e-05" x2="153.025" y2="68.0339" gradientUnits="userSpaceOnUse">
<stop stop-color="#FFD236"/>
<stop offset="1" stop-color="#FF8F3D"/>
</linearGradient>
</defs>
</svg>
