<svg width="168" height="50" viewBox="0 0 168 50" fill="none" xmlns="http://www.w3.org/2000/svg">
<path d="M0 25C0 11.1929 11.1929 0 25 0H143C156.807 0 168 11.1929 168 25V25C168 38.8071 156.807 50 143 50H25C11.1929 50 0 38.8071 0 25V25Z" fill="url(#paint0_linear_10_2352)"/>
<path d="M24.5026 30.9998L18.4626 16.9998H21.9626L27.2426 29.3998H25.1826L30.5426 16.9998H33.7626L27.7026 30.9998H24.5026Z" fill="white"/>
<path d="M39.0307 31.1598C37.884 31.1598 36.864 30.9198 35.9707 30.4398C35.0907 29.9598 34.3907 29.3064 33.8707 28.4798C33.364 27.6398 33.1107 26.6864 33.1107 25.6198C33.1107 24.5398 33.364 23.5864 33.8707 22.7598C34.3907 21.9198 35.0907 21.2664 35.9707 20.7998C36.864 20.3198 37.884 20.0798 39.0307 20.0798C40.164 20.0798 41.1774 20.3198 42.0707 20.7998C42.964 21.2664 43.664 21.9131 44.1707 22.7398C44.6774 23.5664 44.9307 24.5264 44.9307 25.6198C44.9307 26.6864 44.6774 27.6398 44.1707 28.4798C43.664 29.3064 42.964 29.9598 42.0707 30.4398C41.1774 30.9198 40.164 31.1598 39.0307 31.1598ZM39.0307 28.5998C39.5507 28.5998 40.0174 28.4798 40.4307 28.2398C40.844 27.9998 41.1707 27.6598 41.4107 27.2198C41.6507 26.7664 41.7707 26.2331 41.7707 25.6198C41.7707 24.9931 41.6507 24.4598 41.4107 24.0198C41.1707 23.5798 40.844 23.2398 40.4307 22.9998C40.0174 22.7598 39.5507 22.6398 39.0307 22.6398C38.5107 22.6398 38.044 22.7598 37.6307 22.9998C37.2174 23.2398 36.884 23.5798 36.6307 24.0198C36.3907 24.4598 36.2707 24.9931 36.2707 25.6198C36.2707 26.2331 36.3907 26.7664 36.6307 27.2198C36.884 27.6598 37.2174 27.9998 37.6307 28.2398C38.044 28.4798 38.5107 28.5998 39.0307 28.5998Z" fill="white"/>
<path d="M51.4162 31.1598C50.1495 31.1598 49.1628 30.8398 48.4562 30.1998C47.7495 29.5464 47.3962 28.5798 47.3962 27.2998V17.8598H50.5162V27.2598C50.5162 27.7131 50.6362 28.0664 50.8762 28.3198C51.1162 28.5598 51.4428 28.6798 51.8562 28.6798C52.3495 28.6798 52.7695 28.5464 53.1162 28.2798L53.9562 30.4798C53.6362 30.7064 53.2495 30.8798 52.7962 30.9998C52.3562 31.1064 51.8962 31.1598 51.4162 31.1598ZM45.7362 22.8798V20.4798H53.1962V22.8798H45.7362Z" fill="white"/>
<path d="M60.7155 31.1598C59.4889 31.1598 58.4089 30.9198 57.4755 30.4398C56.5555 29.9598 55.8422 29.3064 55.3355 28.4798C54.8289 27.6398 54.5755 26.6864 54.5755 25.6198C54.5755 24.5398 54.8222 23.5864 55.3155 22.7598C55.8222 21.9198 56.5089 21.2664 57.3755 20.7998C58.2422 20.3198 59.2222 20.0798 60.3155 20.0798C61.3689 20.0798 62.3155 20.3064 63.1555 20.7598C64.0089 21.1998 64.6822 21.8398 65.1755 22.6798C65.6689 23.5064 65.9155 24.4998 65.9155 25.6598C65.9155 25.7798 65.9089 25.9198 65.8955 26.0798C65.8822 26.2264 65.8689 26.3664 65.8555 26.4998H57.1155V24.6798H64.2155L63.0155 25.2198C63.0155 24.6598 62.9022 24.1731 62.6755 23.7598C62.4489 23.3464 62.1355 23.0264 61.7355 22.7998C61.3355 22.5598 60.8689 22.4398 60.3355 22.4398C59.8022 22.4398 59.3289 22.5598 58.9155 22.7998C58.5155 23.0264 58.2022 23.3531 57.9755 23.7798C57.7489 24.1931 57.6355 24.6864 57.6355 25.2598V25.7398C57.6355 26.3264 57.7622 26.8464 58.0155 27.2998C58.2822 27.7398 58.6489 28.0798 59.1155 28.3198C59.5955 28.5464 60.1555 28.6598 60.7955 28.6598C61.3689 28.6598 61.8689 28.5731 62.2955 28.3998C62.7355 28.2264 63.1355 27.9664 63.4955 27.6198L65.1555 29.4198C64.6622 29.9798 64.0422 30.4131 63.2955 30.7198C62.5489 31.0131 61.6889 31.1598 60.7155 31.1598Z" fill="white"/>
<path d="M74.0368 30.9998V19.9998C74.0368 18.7864 74.3968 17.8198 75.1168 17.0998C75.8368 16.3664 76.8635 15.9998 78.1968 15.9998C78.6501 15.9998 79.0835 16.0464 79.4968 16.1398C79.9235 16.2331 80.2835 16.3798 80.5768 16.5798L79.7568 18.8398C79.5835 18.7198 79.3901 18.6264 79.1768 18.5598C78.9635 18.4931 78.7368 18.4598 78.4968 18.4598C78.0435 18.4598 77.6901 18.5931 77.4368 18.8598C77.1968 19.1131 77.0768 19.4998 77.0768 20.0198V21.0198L77.1568 22.3598V30.9998H74.0368ZM72.3768 22.8798V20.4798H79.8368V22.8798H72.3768Z" fill="white"/>
<path d="M86.3745 31.1598C85.2278 31.1598 84.2078 30.9198 83.3145 30.4398C82.4345 29.9598 81.7345 29.3064 81.2145 28.4798C80.7078 27.6398 80.4545 26.6864 80.4545 25.6198C80.4545 24.5398 80.7078 23.5864 81.2145 22.7598C81.7345 21.9198 82.4345 21.2664 83.3145 20.7998C84.2078 20.3198 85.2278 20.0798 86.3745 20.0798C87.5078 20.0798 88.5211 20.3198 89.4145 20.7998C90.3078 21.2664 91.0078 21.9131 91.5145 22.7398C92.0211 23.5664 92.2745 24.5264 92.2745 25.6198C92.2745 26.6864 92.0211 27.6398 91.5145 28.4798C91.0078 29.3064 90.3078 29.9598 89.4145 30.4398C88.5211 30.9198 87.5078 31.1598 86.3745 31.1598ZM86.3745 28.5998C86.8945 28.5998 87.3611 28.4798 87.7745 28.2398C88.1878 27.9998 88.5145 27.6598 88.7545 27.2198C88.9945 26.7664 89.1145 26.2331 89.1145 25.6198C89.1145 24.9931 88.9945 24.4598 88.7545 24.0198C88.5145 23.5798 88.1878 23.2398 87.7745 22.9998C87.3611 22.7598 86.8945 22.6398 86.3745 22.6398C85.8545 22.6398 85.3878 22.7598 84.9745 22.9998C84.5611 23.2398 84.2278 23.5798 83.9745 24.0198C83.7345 24.4598 83.6145 24.9931 83.6145 25.6198C83.6145 26.2331 83.7345 26.7664 83.9745 27.2198C84.2278 27.6598 84.5611 27.9998 84.9745 28.2398C85.3878 28.4798 85.8545 28.5998 86.3745 28.5998Z" fill="white"/>
<path d="M94.3599 30.9998V20.2398H97.3399V23.2798L96.9199 22.3998C97.2399 21.6398 97.7533 21.0664 98.4599 20.6798C99.1666 20.2798 100.027 20.0798 101.04 20.0798V22.9598C100.907 22.9464 100.787 22.9398 100.68 22.9398C100.573 22.9264 100.46 22.9198 100.34 22.9198C99.4866 22.9198 98.7933 23.1664 98.2599 23.6598C97.7399 24.1398 97.4799 24.8931 97.4799 25.9198V30.9998H94.3599Z" fill="white"/>
<path d="M113.037 31.1598C111.771 31.1598 110.784 30.8398 110.077 30.1998C109.371 29.5464 109.017 28.5798 109.017 27.2998V17.8598H112.137V27.2598C112.137 27.7131 112.257 28.0664 112.497 28.3198C112.737 28.5598 113.064 28.6798 113.477 28.6798C113.971 28.6798 114.391 28.5464 114.737 28.2798L115.577 30.4798C115.257 30.7064 114.871 30.8798 114.417 30.9998C113.977 31.1064 113.517 31.1598 113.037 31.1598ZM107.357 22.8798V20.4798H114.817V22.8798H107.357Z" fill="white"/>
<path d="M123.869 20.0798C124.722 20.0798 125.482 20.2531 126.149 20.5998C126.829 20.9331 127.362 21.4531 127.749 22.1598C128.135 22.8531 128.329 23.7464 128.329 24.8398V30.9998H125.209V25.3198C125.209 24.4531 125.015 23.8131 124.629 23.3998C124.255 22.9864 123.722 22.7798 123.029 22.7798C122.535 22.7798 122.089 22.8864 121.689 23.0998C121.302 23.2998 120.995 23.6131 120.769 24.0398C120.555 24.4664 120.449 25.0131 120.449 25.6798V30.9998H117.329V16.1598H120.449V23.2198L119.749 22.3198C120.135 21.5998 120.689 21.0464 121.409 20.6598C122.129 20.2731 122.949 20.0798 123.869 20.0798Z" fill="white"/>
<path d="M131.157 30.9998V20.2398H134.277V30.9998H131.157ZM132.717 18.7398C132.143 18.7398 131.677 18.5731 131.317 18.2398C130.957 17.9064 130.777 17.4931 130.777 16.9998C130.777 16.5064 130.957 16.0931 131.317 15.7598C131.677 15.4264 132.143 15.2598 132.717 15.2598C133.29 15.2598 133.757 15.4198 134.117 15.7398C134.477 16.0464 134.657 16.4464 134.657 16.9398C134.657 17.4598 134.477 17.8931 134.117 18.2398C133.77 18.5731 133.303 18.7398 132.717 18.7398Z" fill="white"/>
<path d="M140.792 31.1598C139.872 31.1598 138.986 31.0531 138.132 30.8398C137.292 30.6131 136.626 30.3331 136.132 29.9998L137.172 27.7598C137.666 28.0664 138.246 28.3198 138.912 28.5198C139.592 28.7064 140.259 28.7998 140.912 28.7998C141.632 28.7998 142.139 28.7131 142.432 28.5398C142.739 28.3664 142.892 28.1264 142.892 27.8198C142.892 27.5664 142.772 27.3798 142.532 27.2598C142.306 27.1264 141.999 27.0264 141.612 26.9598C141.226 26.8931 140.799 26.8264 140.332 26.7598C139.879 26.6931 139.419 26.6064 138.952 26.4998C138.486 26.3798 138.059 26.2064 137.672 25.9798C137.286 25.7531 136.972 25.4464 136.732 25.0598C136.506 24.6731 136.392 24.1731 136.392 23.5598C136.392 22.8798 136.586 22.2798 136.972 21.7598C137.372 21.2398 137.946 20.8331 138.692 20.5398C139.439 20.2331 140.332 20.0798 141.372 20.0798C142.106 20.0798 142.852 20.1598 143.612 20.3198C144.372 20.4798 145.006 20.7131 145.512 21.0198L144.472 23.2398C143.952 22.9331 143.426 22.7264 142.892 22.6198C142.372 22.4998 141.866 22.4398 141.372 22.4398C140.679 22.4398 140.172 22.5331 139.852 22.7198C139.532 22.9064 139.372 23.1464 139.372 23.4398C139.372 23.7064 139.486 23.9064 139.712 24.0398C139.952 24.1731 140.266 24.2798 140.652 24.3598C141.039 24.4398 141.459 24.5131 141.912 24.5798C142.379 24.6331 142.846 24.7198 143.312 24.8398C143.779 24.9598 144.199 25.1331 144.572 25.3598C144.959 25.5731 145.272 25.8731 145.512 26.2598C145.752 26.6331 145.872 27.1264 145.872 27.7398C145.872 28.4064 145.672 28.9998 145.272 29.5198C144.872 30.0264 144.292 30.4264 143.532 30.7198C142.786 31.0131 141.872 31.1598 140.792 31.1598Z" fill="white"/>
<defs>
<linearGradient id="paint0_linear_10_2352" x1="84" y1="0" x2="84" y2="50" gradientUnits="userSpaceOnUse">
<stop stop-color="#424061"/>
<stop offset="1" stop-color="#2F2E3C"/>
</linearGradient>
</defs>
</svg>
