<svg width="18" height="18" viewBox="0 0 18 18" fill="none" xmlns="http://www.w3.org/2000/svg">
<path d="M13.7655 5.3248C14.3485 5.3248 14.821 4.85225 14.821 4.26933C14.821 3.68642 14.3485 3.21387 13.7655 3.21387C13.1826 3.21387 12.7101 3.68642 12.7101 4.26933C12.7101 4.85225 13.1826 5.3248 13.7655 5.3248Z" fill="#686583"/>
<path d="M9.07379 4.56738C6.62939 4.56738 4.64124 6.55604 4.64124 8.99993C4.64124 11.4443 6.6299 13.433 9.07379 13.433C11.5177 13.433 13.5063 11.4443 13.5063 8.99993C13.5068 6.55604 11.5182 4.56738 9.07379 4.56738ZM9.07379 11.8394C7.50802 11.8394 6.23429 10.5657 6.23429 8.99993C6.23429 7.43417 7.50802 6.16043 9.07379 6.16043C10.6396 6.16043 11.9133 7.43417 11.9133 8.99993C11.9133 10.5657 10.6396 11.8394 9.07379 11.8394Z" fill="#686583"/>
<path d="M12.5933 18H5.40667C2.4257 18 0 15.5743 0 12.5933V5.40667C0 2.4252 2.4252 0 5.40667 0H12.5933C15.5743 0 18 2.4252 18 5.40667V12.5933C18 15.5748 15.5743 18 12.5933 18ZM5.40667 1.69359C3.3589 1.69359 1.69359 3.3589 1.69359 5.40667V12.5933C1.69359 14.6411 3.3589 16.3069 5.40667 16.3069H12.5933C14.6411 16.3069 16.3069 14.6411 16.3069 12.5933V5.40667C16.3069 3.3589 14.6411 1.69359 12.5933 1.69359H5.40667Z" fill="#686583"/>
</svg>
