<svg width="16" height="19" viewBox="0 0 16 19" fill="none" xmlns="http://www.w3.org/2000/svg">
<path fill-rule="evenodd" clip-rule="evenodd" d="M2.99998 9.0001L13 16.0001L12.4265 16.8193L2.42651 9.81934L2.99998 9.0001Z" fill="white"/>
<path fill-rule="evenodd" clip-rule="evenodd" d="M3.00003 8.99993L13 2.99993L13.5145 3.85742L3.51453 9.85742L3.00003 8.99993Z" fill="white"/>
<path d="M16 3C16 4.65685 14.6569 6 13 6C11.3431 6 10 4.65685 10 3C10 1.34315 11.3431 0 13 0C14.6569 0 16 1.34315 16 3Z" fill="white"/>
<path d="M16 16C16 17.6569 14.6569 19 13 19C11.3431 19 10 17.6569 10 16C10 14.3431 11.3431 13 13 13C14.6569 13 16 14.3431 16 16Z" fill="white"/>
<path d="M6 9C6 10.6569 4.65685 12 3 12C1.34315 12 0 10.6569 0 9C0 7.34315 1.34315 6 3 6C4.65685 6 6 7.34315 6 9Z" fill="white"/>
</svg>
