<svg width="441" height="342" viewBox="0 0 441 342" fill="none" xmlns="http://www.w3.org/2000/svg">
<path d="M4.55998 29.9998V1.99982H15.96C18.9466 1.99982 21.56 2.59983 23.8 3.79983C26.0666 4.97316 27.8266 6.61316 29.08 8.71983C30.3333 10.8265 30.96 13.2532 30.96 15.9998C30.96 18.7465 30.3333 21.1732 29.08 23.2798C27.8266 25.3865 26.0666 27.0398 23.8 28.2398C21.56 29.4132 18.9466 29.9998 15.96 29.9998H4.55998ZM7.51998 27.4398H15.8C18.28 27.4398 20.4266 26.9598 22.24 25.9998C24.08 25.0132 25.5066 23.6665 26.52 21.9598C27.5333 20.2265 28.04 18.2398 28.04 15.9998C28.04 13.7332 27.5333 11.7465 26.52 10.0398C25.5066 8.33316 24.08 6.99983 22.24 6.03983C20.4266 5.05316 18.28 4.55982 15.8 4.55982H7.51998V27.4398Z" fill="#2E2F3B"/>
<path d="M44.7669 30.1998C42.7402 30.1998 40.9135 29.7465 39.2869 28.8398C37.6869 27.9065 36.4202 26.6398 35.4869 25.0398C34.5535 23.4132 34.0869 21.5598 34.0869 19.4798C34.0869 17.3732 34.5535 15.5198 35.4869 13.9198C36.4202 12.3198 37.6869 11.0665 39.2869 10.1598C40.8869 9.25316 42.7135 8.79983 44.7669 8.79983C46.8469 8.79983 48.6869 9.25316 50.2869 10.1598C51.9135 11.0665 53.1802 12.3198 54.0869 13.9198C55.0202 15.5198 55.4869 17.3732 55.4869 19.4798C55.4869 21.5598 55.0202 23.4132 54.0869 25.0398C53.1802 26.6398 51.9135 27.9065 50.2869 28.8398C48.6602 29.7465 46.8202 30.1998 44.7669 30.1998ZM44.7669 27.6798C46.2869 27.6798 47.6335 27.3465 48.8069 26.6798C49.9802 25.9865 50.9002 25.0265 51.5669 23.7998C52.2602 22.5465 52.6069 21.1065 52.6069 19.4798C52.6069 17.8265 52.2602 16.3865 51.5669 15.1598C50.9002 13.9332 49.9802 12.9865 48.8069 12.3198C47.6335 11.6265 46.3002 11.2798 44.8069 11.2798C43.3135 11.2798 41.9802 11.6265 40.8069 12.3198C39.6335 12.9865 38.7002 13.9332 38.0069 15.1598C37.3135 16.3865 36.9669 17.8265 36.9669 19.4798C36.9669 21.1065 37.3135 22.5465 38.0069 23.7998C38.7002 25.0265 39.6335 25.9865 40.8069 26.6798C41.9802 27.3465 43.3002 27.6798 44.7669 27.6798Z" fill="#2E2F3B"/>
<path d="M70.3137 37.9598C69.3271 37.9598 68.3804 37.7998 67.4737 37.4798C66.5937 37.1598 65.8337 36.6798 65.1937 36.0398L66.5137 33.9198C67.0471 34.4265 67.6204 34.8132 68.2337 35.0798C68.8737 35.3732 69.5804 35.5198 70.3537 35.5198C71.2871 35.5198 72.0871 35.2532 72.7537 34.7198C73.4471 34.2132 74.1004 33.3065 74.7137 31.9998L76.0737 28.9198L76.3937 28.4798L85.0337 8.99982H87.8337L77.3137 32.5198C76.7271 33.8798 76.0737 34.9598 75.3537 35.7598C74.6604 36.5598 73.9004 37.1198 73.0737 37.4398C72.2471 37.7865 71.3271 37.9598 70.3137 37.9598ZM75.9137 30.5998L66.2337 8.99982H69.1937L77.7537 28.2798L75.9137 30.5998Z" fill="#2E2F3B"/>
<path d="M99.0075 30.1998C96.9808 30.1998 95.1541 29.7465 93.5275 28.8398C91.9275 27.9065 90.6608 26.6398 89.7275 25.0398C88.7941 23.4132 88.3275 21.5598 88.3275 19.4798C88.3275 17.3732 88.7941 15.5198 89.7275 13.9198C90.6608 12.3198 91.9275 11.0665 93.5275 10.1598C95.1275 9.25316 96.9542 8.79983 99.0075 8.79983C101.087 8.79983 102.927 9.25316 104.527 10.1598C106.154 11.0665 107.421 12.3198 108.327 13.9198C109.261 15.5198 109.727 17.3732 109.727 19.4798C109.727 21.5598 109.261 23.4132 108.327 25.0398C107.421 26.6398 106.154 27.9065 104.527 28.8398C102.901 29.7465 101.061 30.1998 99.0075 30.1998ZM99.0075 27.6798C100.527 27.6798 101.874 27.3465 103.047 26.6798C104.221 25.9865 105.141 25.0265 105.807 23.7998C106.501 22.5465 106.847 21.1065 106.847 19.4798C106.847 17.8265 106.501 16.3865 105.807 15.1598C105.141 13.9332 104.221 12.9865 103.047 12.3198C101.874 11.6265 100.541 11.2798 99.0475 11.2798C97.5541 11.2798 96.2208 11.6265 95.0475 12.3198C93.8741 12.9865 92.9408 13.9332 92.2475 15.1598C91.5541 16.3865 91.2075 17.8265 91.2075 19.4798C91.2075 21.1065 91.5541 22.5465 92.2475 23.7998C92.9408 25.0265 93.8741 25.9865 95.0475 26.6798C96.2208 27.3465 97.5408 27.6798 99.0075 27.6798Z" fill="#2E2F3B"/>
<path d="M123.406 30.1998C121.619 30.1998 120.059 29.8665 118.726 29.1998C117.392 28.5332 116.352 27.5332 115.606 26.1998C114.886 24.8665 114.526 23.1998 114.526 21.1998V8.99982H117.366V20.8798C117.366 23.1198 117.912 24.8132 119.006 25.9598C120.126 27.0798 121.686 27.6398 123.686 27.6398C125.152 27.6398 126.419 27.3465 127.486 26.7598C128.579 26.1465 129.406 25.2665 129.966 24.1198C130.552 22.9732 130.846 21.5998 130.846 19.9998V8.99982H133.686V29.9998H130.966V24.2398L131.406 25.2798C130.739 26.8265 129.699 28.0398 128.286 28.9198C126.899 29.7732 125.272 30.1998 123.406 30.1998Z" fill="#2E2F3B"/>
<path d="M161.189 8.79983C162.896 8.79983 164.389 9.13316 165.669 9.79983C166.976 10.4398 167.989 11.4265 168.709 12.7598C169.456 14.0932 169.829 15.7732 169.829 17.7998V29.9998H166.989V18.0798C166.989 15.8665 166.429 14.1998 165.309 13.0798C164.216 11.9332 162.669 11.3598 160.669 11.3598C159.176 11.3598 157.869 11.6665 156.749 12.2798C155.656 12.8665 154.803 13.7332 154.189 14.8798C153.603 15.9998 153.309 17.3598 153.309 18.9598V29.9998H150.469V0.319824H153.309V14.7598L152.749 13.6798C153.416 12.1598 154.483 10.9732 155.949 10.1198C157.416 9.23982 159.163 8.79983 161.189 8.79983Z" fill="#2E2F3B"/>
<path d="M189.861 29.9998V25.3598L189.741 24.5998V16.8398C189.741 15.0532 189.234 13.6798 188.221 12.7198C187.234 11.7598 185.754 11.2798 183.781 11.2798C182.421 11.2798 181.127 11.5065 179.901 11.9598C178.674 12.4132 177.634 13.0132 176.781 13.7598L175.501 11.6398C176.567 10.7332 177.847 10.0398 179.341 9.55982C180.834 9.05316 182.407 8.79983 184.061 8.79983C186.781 8.79983 188.874 9.47982 190.341 10.8398C191.834 12.1732 192.581 14.2132 192.581 16.9598V29.9998H189.861ZM182.621 30.1998C181.047 30.1998 179.674 29.9465 178.501 29.4398C177.354 28.9065 176.474 28.1865 175.861 27.2798C175.247 26.3465 174.941 25.2798 174.941 24.0798C174.941 22.9865 175.194 21.9998 175.701 21.1198C176.234 20.2132 177.087 19.4932 178.261 18.9598C179.461 18.3998 181.061 18.1198 183.061 18.1198H190.301V20.2398H183.141C181.114 20.2398 179.701 20.5998 178.901 21.3198C178.127 22.0398 177.741 22.9332 177.741 23.9998C177.741 25.1998 178.207 26.1598 179.141 26.8798C180.074 27.5998 181.381 27.9598 183.061 27.9598C184.661 27.9598 186.034 27.5998 187.181 26.8798C188.354 26.1332 189.207 25.0665 189.741 23.6798L190.381 25.6398C189.847 27.0265 188.914 28.1332 187.581 28.9598C186.274 29.7865 184.621 30.1998 182.621 30.1998Z" fill="#2E2F3B"/>
<path d="M204.504 29.9998L195.184 8.99982H198.144L206.704 28.4798H205.304L213.984 8.99982H216.784L207.424 29.9998H204.504Z" fill="#2E2F3B"/>
<path d="M228.317 30.1998C226.131 30.1998 224.211 29.7465 222.557 28.8398C220.904 27.9065 219.611 26.6398 218.677 25.0398C217.744 23.4132 217.277 21.5598 217.277 19.4798C217.277 17.3998 217.717 15.5598 218.597 13.9598C219.504 12.3598 220.731 11.1065 222.277 10.1998C223.851 9.26649 225.611 8.79983 227.557 8.79983C229.531 8.79983 231.277 9.25316 232.797 10.1598C234.344 11.0398 235.557 12.2932 236.437 13.9198C237.317 15.5198 237.757 17.3732 237.757 19.4798C237.757 19.6132 237.744 19.7598 237.717 19.9198C237.717 20.0532 237.717 20.1998 237.717 20.3598H219.437V18.2398H236.197L235.077 19.0798C235.077 17.5598 234.744 16.2132 234.077 15.0398C233.437 13.8398 232.557 12.9065 231.437 12.2398C230.317 11.5732 229.024 11.2398 227.557 11.2398C226.117 11.2398 224.824 11.5732 223.677 12.2398C222.531 12.9065 221.637 13.8398 220.997 15.0398C220.357 16.2398 220.037 17.6132 220.037 19.1598V19.5998C220.037 21.1998 220.384 22.6132 221.077 23.8398C221.797 25.0398 222.784 25.9865 224.037 26.6798C225.317 27.3465 226.771 27.6798 228.397 27.6798C229.677 27.6798 230.864 27.4532 231.957 26.9998C233.077 26.5465 234.037 25.8532 234.837 24.9198L236.437 26.7598C235.504 27.8798 234.331 28.7332 232.917 29.3198C231.531 29.9065 229.997 30.1998 228.317 30.1998Z" fill="#2E2F3B"/>
<path d="M259.047 30.1998C257.074 30.1998 255.554 29.6665 254.487 28.5998C253.42 27.5332 252.887 26.0265 252.887 24.0798V4.35983H255.727V23.9198C255.727 25.1465 256.034 26.0932 256.647 26.7598C257.287 27.4265 258.194 27.7598 259.367 27.7598C260.62 27.7598 261.66 27.3998 262.487 26.6798L263.487 28.7198C262.927 29.2265 262.247 29.5998 261.447 29.8398C260.674 30.0798 259.874 30.1998 259.047 30.1998ZM249.127 11.3598V8.99982H262.127V11.3598H249.127Z" fill="#2E2F3B"/>
<path d="M278.577 8.79983C280.284 8.79983 281.777 9.13316 283.057 9.79983C284.364 10.4398 285.377 11.4265 286.097 12.7598C286.844 14.0932 287.217 15.7732 287.217 17.7998V29.9998H284.377V18.0798C284.377 15.8665 283.817 14.1998 282.697 13.0798C281.604 11.9332 280.057 11.3598 278.057 11.3598C276.564 11.3598 275.257 11.6665 274.137 12.2798C273.044 12.8665 272.19 13.7332 271.577 14.8798C270.99 15.9998 270.697 17.3598 270.697 18.9598V29.9998H267.857V0.319824H270.697V14.7598L270.137 13.6798C270.804 12.1598 271.87 10.9732 273.337 10.1198C274.804 9.23982 276.55 8.79983 278.577 8.79983Z" fill="#2E2F3B"/>
<path d="M303.008 30.1998C300.821 30.1998 298.901 29.7465 297.248 28.8398C295.595 27.9065 294.301 26.6398 293.368 25.0398C292.435 23.4132 291.968 21.5598 291.968 19.4798C291.968 17.3998 292.408 15.5598 293.288 13.9598C294.195 12.3598 295.421 11.1065 296.968 10.1998C298.541 9.26649 300.301 8.79983 302.248 8.79983C304.221 8.79983 305.968 9.25316 307.488 10.1598C309.035 11.0398 310.248 12.2932 311.128 13.9198C312.008 15.5198 312.448 17.3732 312.448 19.4798C312.448 19.6132 312.435 19.7598 312.408 19.9198C312.408 20.0532 312.408 20.1998 312.408 20.3598H294.128V18.2398H310.888L309.768 19.0798C309.768 17.5598 309.435 16.2132 308.768 15.0398C308.128 13.8398 307.248 12.9065 306.128 12.2398C305.008 11.5732 303.715 11.2398 302.248 11.2398C300.808 11.2398 299.515 11.5732 298.368 12.2398C297.221 12.9065 296.328 13.8398 295.688 15.0398C295.048 16.2398 294.728 17.6132 294.728 19.1598V19.5998C294.728 21.1998 295.075 22.6132 295.768 23.8398C296.488 25.0398 297.475 25.9865 298.728 26.6798C300.008 27.3465 301.461 27.6798 303.088 27.6798C304.368 27.6798 305.555 27.4532 306.648 26.9998C307.768 26.5465 308.728 25.8532 309.528 24.9198L311.128 26.7598C310.195 27.8798 309.021 28.7332 307.608 29.3198C306.221 29.9065 304.688 30.1998 303.008 30.1998Z" fill="#2E2F3B"/>
<path d="M337.937 30.1998C336.097 30.1998 334.444 29.7865 332.977 28.9598C331.511 28.1065 330.351 26.8798 329.497 25.2798C328.644 23.6798 328.217 21.7465 328.217 19.4798C328.217 17.1865 328.644 15.2532 329.497 13.6798C330.377 12.0798 331.551 10.8665 333.017 10.0398C334.484 9.21316 336.124 8.79983 337.937 8.79983C339.937 8.79983 341.724 9.25316 343.297 10.1598C344.897 11.0398 346.151 12.2798 347.057 13.8798C347.964 15.4798 348.417 17.3465 348.417 19.4798C348.417 21.5865 347.964 23.4532 347.057 25.0798C346.151 26.6798 344.897 27.9332 343.297 28.8398C341.724 29.7465 339.937 30.1998 337.937 30.1998ZM327.097 29.9998V0.319824H329.937V15.1998L329.537 19.4398L329.817 23.6798V29.9998H327.097ZM337.737 27.6798C339.231 27.6798 340.564 27.3465 341.737 26.6798C342.911 25.9865 343.844 25.0265 344.537 23.7998C345.231 22.5465 345.577 21.1065 345.577 19.4798C345.577 17.8265 345.231 16.3865 344.537 15.1598C343.844 13.9332 342.911 12.9865 341.737 12.3198C340.564 11.6265 339.231 11.2798 337.737 11.2798C336.244 11.2798 334.897 11.6265 333.697 12.3198C332.524 12.9865 331.591 13.9332 330.897 15.1598C330.231 16.3865 329.897 17.8265 329.897 19.4798C329.897 21.1065 330.231 22.5465 330.897 23.7998C331.591 25.0265 332.524 25.9865 333.697 26.6798C334.897 27.3465 336.244 27.6798 337.737 27.6798Z" fill="#2E2F3B"/>
<path d="M362.327 30.1998C360.14 30.1998 358.22 29.7465 356.567 28.8398C354.914 27.9065 353.62 26.6398 352.687 25.0398C351.753 23.4132 351.287 21.5598 351.287 19.4798C351.287 17.3998 351.727 15.5598 352.607 13.9598C353.514 12.3598 354.74 11.1065 356.287 10.1998C357.86 9.26649 359.62 8.79983 361.567 8.79983C363.54 8.79983 365.287 9.25316 366.807 10.1598C368.354 11.0398 369.567 12.2932 370.447 13.9198C371.327 15.5198 371.767 17.3732 371.767 19.4798C371.767 19.6132 371.754 19.7598 371.727 19.9198C371.727 20.0532 371.727 20.1998 371.727 20.3598H353.447V18.2398H370.207L369.087 19.0798C369.087 17.5598 368.754 16.2132 368.087 15.0398C367.447 13.8398 366.567 12.9065 365.447 12.2398C364.327 11.5732 363.034 11.2398 361.567 11.2398C360.127 11.2398 358.833 11.5732 357.687 12.2398C356.54 12.9065 355.647 13.8398 355.007 15.0398C354.367 16.2398 354.047 17.6132 354.047 19.1598V19.5998C354.047 21.1998 354.394 22.6132 355.087 23.8398C355.807 25.0398 356.794 25.9865 358.047 26.6798C359.327 27.3465 360.78 27.6798 362.407 27.6798C363.687 27.6798 364.873 27.4532 365.967 26.9998C367.087 26.5465 368.047 25.8532 368.847 24.9198L370.447 26.7598C369.514 27.8798 368.34 28.7332 366.927 29.3198C365.54 29.9065 364.007 30.1998 362.327 30.1998Z" fill="#2E2F3B"/>
<path d="M382.387 30.1998C380.654 30.1998 379.014 29.9598 377.467 29.4798C375.921 28.9732 374.707 28.3465 373.827 27.5998L375.107 25.3598C375.961 25.9998 377.054 26.5598 378.387 27.0398C379.721 27.4932 381.121 27.7198 382.587 27.7198C384.587 27.7198 386.027 27.4132 386.907 26.7998C387.787 26.1598 388.227 25.3198 388.227 24.2798C388.227 23.5065 387.974 22.9065 387.467 22.4798C386.987 22.0265 386.347 21.6932 385.547 21.4798C384.747 21.2398 383.854 21.0398 382.867 20.8798C381.881 20.7198 380.894 20.5332 379.907 20.3198C378.947 20.1065 378.067 19.7998 377.267 19.3998C376.467 18.9732 375.814 18.3998 375.307 17.6798C374.827 16.9598 374.587 15.9998 374.587 14.7998C374.587 13.6532 374.907 12.6265 375.547 11.7198C376.187 10.8132 377.121 10.1065 378.347 9.59982C379.601 9.06649 381.121 8.79983 382.907 8.79983C384.267 8.79983 385.627 8.98649 386.987 9.35983C388.347 9.70649 389.467 10.1732 390.347 10.7598L389.107 13.0398C388.174 12.3998 387.174 11.9465 386.107 11.6798C385.041 11.3865 383.974 11.2398 382.907 11.2398C381.014 11.2398 379.614 11.5732 378.707 12.2398C377.827 12.8798 377.387 13.7065 377.387 14.7198C377.387 15.5198 377.627 16.1465 378.107 16.5998C378.614 17.0532 379.267 17.4132 380.067 17.6798C380.894 17.9198 381.787 18.1198 382.747 18.2798C383.734 18.4398 384.707 18.6398 385.667 18.8798C386.654 19.0932 387.547 19.3998 388.347 19.7998C389.174 20.1732 389.827 20.7198 390.307 21.4398C390.814 22.1332 391.067 23.0532 391.067 24.1998C391.067 25.4265 390.721 26.4932 390.027 27.3998C389.361 28.2798 388.374 28.9732 387.067 29.4798C385.787 29.9598 384.227 30.1998 382.387 30.1998Z" fill="#2E2F3B"/>
<path d="M402.119 30.1998C400.145 30.1998 398.625 29.6665 397.559 28.5998C396.492 27.5332 395.959 26.0265 395.959 24.0798V4.35983H398.799V23.9198C398.799 25.1465 399.105 26.0932 399.719 26.7598C400.359 27.4265 401.265 27.7598 402.439 27.7598C403.692 27.7598 404.732 27.3998 405.559 26.6798L406.559 28.7198C405.999 29.2265 405.319 29.5998 404.519 29.8398C403.745 30.0798 402.945 30.1998 402.119 30.1998ZM392.199 11.3598V8.99982H405.199V11.3598H392.199Z" fill="#2E2F3B"/>
<path d="M9.59998 79.1998C7.86665 79.1998 6.22665 78.9598 4.67998 78.4798C3.13331 77.9732 1.91998 77.3465 1.03998 76.5998L2.31998 74.3598C3.17331 74.9998 4.26664 75.5598 5.59998 76.0398C6.93331 76.4932 8.33331 76.7198 9.79998 76.7198C11.8 76.7198 13.24 76.4132 14.12 75.7998C15 75.1598 15.44 74.3198 15.44 73.2798C15.44 72.5065 15.1866 71.9065 14.68 71.4798C14.2 71.0265 13.56 70.6932 12.76 70.4798C11.96 70.2398 11.0666 70.0398 10.08 69.8798C9.09331 69.7198 8.10664 69.5332 7.11998 69.3198C6.15998 69.1065 5.27998 68.7998 4.47998 68.3998C3.67998 67.9732 3.02664 67.3998 2.51998 66.6798C2.03998 65.9598 1.79998 64.9998 1.79998 63.7998C1.79998 62.6532 2.11998 61.6265 2.75998 60.7198C3.39998 59.8132 4.33331 59.1065 5.55998 58.5998C6.81331 58.0665 8.33331 57.7998 10.12 57.7998C11.48 57.7998 12.84 57.9865 14.2 58.3598C15.56 58.7065 16.68 59.1732 17.56 59.7598L16.32 62.0398C15.3866 61.3998 14.3866 60.9465 13.32 60.6798C12.2533 60.3865 11.1866 60.2398 10.12 60.2398C8.22665 60.2398 6.82665 60.5732 5.91998 61.2398C5.03998 61.8798 4.59998 62.7065 4.59998 63.7198C4.59998 64.5198 4.83998 65.1465 5.31998 65.5998C5.82665 66.0532 6.47998 66.4132 7.27998 66.6798C8.10665 66.9198 8.99998 67.1198 9.95998 67.2798C10.9466 67.4398 11.92 67.6398 12.88 67.8798C13.8666 68.0932 14.76 68.3998 15.56 68.7998C16.3866 69.1732 17.04 69.7198 17.52 70.4398C18.0266 71.1332 18.28 72.0532 18.28 73.1998C18.28 74.4265 17.9333 75.4932 17.24 76.3998C16.5733 77.2798 15.5866 77.9732 14.28 78.4798C13 78.9598 11.44 79.1998 9.59998 79.1998Z" fill="#2E2F3B"/>
<path d="M48.9312 57.7998C50.6379 57.7998 52.1179 58.1332 53.3712 58.7998C54.6512 59.4398 55.6379 60.4265 56.3312 61.7598C57.0512 63.0932 57.4112 64.7732 57.4112 66.7998V78.9998H54.5712V67.0798C54.5712 64.8665 54.0379 63.1998 52.9712 62.0798C51.9312 60.9332 50.4512 60.3598 48.5312 60.3598C47.0912 60.3598 45.8379 60.6665 44.7712 61.2798C43.7312 61.8665 42.9179 62.7332 42.3312 63.8798C41.7712 64.9998 41.4912 66.3598 41.4912 67.9598V78.9998H38.6512V67.0798C38.6512 64.8665 38.1179 63.1998 37.0512 62.0798C35.9846 60.9332 34.4912 60.3598 32.5712 60.3598C31.1579 60.3598 29.9179 60.6665 28.8512 61.2798C27.7846 61.8665 26.9579 62.7332 26.3712 63.8798C25.8112 64.9998 25.5312 66.3598 25.5312 67.9598V78.9998H22.6912V57.9998H25.4112V63.6798L24.9712 62.6798C25.6112 61.1598 26.6379 59.9732 28.0512 59.1198C29.4912 58.2398 31.1846 57.7998 33.1312 57.7998C35.1846 57.7998 36.9312 58.3198 38.3712 59.3598C39.8112 60.3732 40.7446 61.9065 41.1712 63.9598L40.0512 63.5198C40.6646 61.8132 41.7446 60.4398 43.2912 59.3998C44.8646 58.3332 46.7446 57.7998 48.9312 57.7998Z" fill="#2E2F3B"/>
<path d="M64.3131 78.9998V57.9998H67.1531V78.9998H64.3131ZM65.7531 53.3598C65.1664 53.3598 64.6731 53.1598 64.2731 52.7598C63.8731 52.3598 63.6731 51.8798 63.6731 51.3198C63.6731 50.7598 63.8731 50.2932 64.2731 49.9198C64.6731 49.5198 65.1664 49.3198 65.7531 49.3198C66.3398 49.3198 66.8331 49.5065 67.2331 49.8798C67.6331 50.2532 67.8331 50.7198 67.8331 51.2798C67.8331 51.8665 67.6331 52.3598 67.2331 52.7598C66.8598 53.1598 66.3664 53.3598 65.7531 53.3598Z" fill="#2E2F3B"/>
<path d="M74.2553 78.9998V49.3198H77.0953V78.9998H74.2553Z" fill="#2E2F3B"/>
<path d="M93.1175 79.1998C90.9308 79.1998 89.0108 78.7465 87.3575 77.8398C85.7041 76.9065 84.4108 75.6398 83.4775 74.0398C82.5441 72.4132 82.0775 70.5598 82.0775 68.4798C82.0775 66.3998 82.5175 64.5598 83.3975 62.9598C84.3042 61.3598 85.5308 60.1065 87.0775 59.1998C88.6508 58.2665 90.4108 57.7998 92.3575 57.7998C94.3308 57.7998 96.0775 58.2532 97.5975 59.1598C99.1441 60.0398 100.357 61.2932 101.237 62.9198C102.117 64.5198 102.557 66.3732 102.557 68.4798C102.557 68.6132 102.544 68.7598 102.517 68.9198C102.517 69.0532 102.517 69.1998 102.517 69.3598H84.2375V67.2398H100.997L99.8775 68.0798C99.8775 66.5598 99.5441 65.2132 98.8775 64.0398C98.2375 62.8398 97.3575 61.9065 96.2375 61.2398C95.1175 60.5732 93.8241 60.2398 92.3575 60.2398C90.9175 60.2398 89.6241 60.5732 88.4775 61.2398C87.3308 61.9065 86.4375 62.8398 85.7975 64.0398C85.1575 65.2398 84.8375 66.6132 84.8375 68.1598V68.5998C84.8375 70.1998 85.1841 71.6132 85.8775 72.8398C86.5975 74.0398 87.5841 74.9865 88.8375 75.6798C90.1175 76.3465 91.5708 76.6798 93.1975 76.6798C94.4775 76.6798 95.6642 76.4532 96.7575 75.9998C97.8775 75.5465 98.8375 74.8532 99.6375 73.9198L101.237 75.7598C100.304 76.8798 99.1308 77.7332 97.7175 78.3198C96.3308 78.9065 94.7975 79.1998 93.1175 79.1998Z" fill="#2E2F3B"/>
<path d="M105.818 84.8398L107.578 77.4398L107.898 79.1598C107.285 79.1598 106.765 78.9598 106.338 78.5598C105.938 78.1598 105.738 77.6398 105.738 76.9998C105.738 76.3598 105.938 75.8398 106.338 75.4398C106.765 75.0398 107.271 74.8398 107.858 74.8398C108.471 74.8398 108.965 75.0532 109.338 75.4798C109.738 75.9065 109.938 76.4132 109.938 76.9998C109.938 77.2132 109.925 77.4265 109.898 77.6398C109.871 77.8532 109.818 78.0932 109.738 78.3598C109.658 78.6265 109.551 78.9465 109.418 79.3198L107.738 84.8398H105.818Z" fill="#2E2F3B"/>
<path d="M151.123 57.7998C152.83 57.7998 154.31 58.1332 155.563 58.7998C156.843 59.4398 157.83 60.4265 158.523 61.7598C159.243 63.0932 159.603 64.7732 159.603 66.7998V78.9998H156.763V67.0798C156.763 64.8665 156.23 63.1998 155.163 62.0798C154.123 60.9332 152.643 60.3598 150.723 60.3598C149.283 60.3598 148.03 60.6665 146.963 61.2798C145.923 61.8665 145.11 62.7332 144.523 63.8798C143.963 64.9998 143.683 66.3598 143.683 67.9598V78.9998H140.843V67.0798C140.843 64.8665 140.31 63.1998 139.243 62.0798C138.177 60.9332 136.683 60.3598 134.763 60.3598C133.35 60.3598 132.11 60.6665 131.043 61.2798C129.977 61.8665 129.15 62.7332 128.563 63.8798C128.003 64.9998 127.723 66.3598 127.723 67.9598V78.9998H124.883V57.9998H127.603V63.6798L127.163 62.6798C127.803 61.1598 128.83 59.9732 130.243 59.1198C131.683 58.2398 133.377 57.7998 135.323 57.7998C137.377 57.7998 139.123 58.3198 140.563 59.3598C142.003 60.3732 142.937 61.9065 143.363 63.9598L142.243 63.5198C142.857 61.8132 143.937 60.4398 145.483 59.3998C147.057 58.3332 148.937 57.7998 151.123 57.7998Z" fill="#2E2F3B"/>
<path d="M175.185 79.1998C173.399 79.1998 171.839 78.8665 170.505 78.1998C169.172 77.5332 168.132 76.5332 167.385 75.1998C166.665 73.8665 166.305 72.1998 166.305 70.1998V57.9998H169.145V69.8798C169.145 72.1198 169.692 73.8132 170.785 74.9598C171.905 76.0798 173.465 76.6398 175.465 76.6398C176.932 76.6398 178.199 76.3465 179.265 75.7598C180.359 75.1465 181.185 74.2665 181.745 73.1198C182.332 71.9732 182.625 70.5998 182.625 68.9998V57.9998H185.465V78.9998H182.745V73.2398L183.185 74.2798C182.519 75.8265 181.479 77.0398 180.065 77.9198C178.679 78.7732 177.052 79.1998 175.185 79.1998Z" fill="#2E2F3B"/>
<path d="M192.58 78.9998V49.3198H195.42V78.9998H192.58Z" fill="#2E2F3B"/>
<path d="M202.522 78.9998V49.3198H205.362V78.9998H202.522Z" fill="#2E2F3B"/>
<path d="M221.385 79.1998C219.198 79.1998 217.278 78.7465 215.625 77.8398C213.971 76.9065 212.678 75.6398 211.745 74.0398C210.811 72.4132 210.345 70.5598 210.345 68.4798C210.345 66.3998 210.785 64.5598 211.665 62.9598C212.571 61.3598 213.798 60.1065 215.345 59.1998C216.918 58.2665 218.678 57.7998 220.625 57.7998C222.598 57.7998 224.345 58.2532 225.865 59.1598C227.411 60.0398 228.625 61.2932 229.505 62.9198C230.385 64.5198 230.825 66.3732 230.825 68.4798C230.825 68.6132 230.811 68.7598 230.785 68.9198C230.785 69.0532 230.785 69.1998 230.785 69.3598H212.505V67.2398H229.265L228.145 68.0798C228.145 66.5598 227.811 65.2132 227.145 64.0398C226.505 62.8398 225.625 61.9065 224.505 61.2398C223.385 60.5732 222.091 60.2398 220.625 60.2398C219.185 60.2398 217.891 60.5732 216.745 61.2398C215.598 61.9065 214.705 62.8398 214.065 64.0398C213.425 65.2398 213.105 66.6132 213.105 68.1598V68.5998C213.105 70.1998 213.451 71.6132 214.145 72.8398C214.865 74.0398 215.851 74.9865 217.105 75.6798C218.385 76.3465 219.838 76.6798 221.465 76.6798C222.745 76.6798 223.931 76.4532 225.025 75.9998C226.145 75.5465 227.105 74.8532 227.905 73.9198L229.505 75.7598C228.571 76.8798 227.398 77.7332 225.985 78.3198C224.598 78.9065 223.065 79.1998 221.385 79.1998Z" fill="#2E2F3B"/>
<path d="M242.445 79.1998C240.472 79.1998 238.952 78.6665 237.885 77.5998C236.819 76.5332 236.285 75.0265 236.285 73.0798V53.3598H239.125V72.9198C239.125 74.1465 239.432 75.0932 240.045 75.7598C240.685 76.4265 241.592 76.7598 242.765 76.7598C244.019 76.7598 245.059 76.3998 245.885 75.6798L246.885 77.7198C246.325 78.2265 245.645 78.5998 244.845 78.8398C244.072 79.0798 243.272 79.1998 242.445 79.1998ZM232.525 60.3598V57.9998H245.525V60.3598H232.525Z" fill="#2E2F3B"/>
<path d="M249.926 84.8398L251.686 77.4398L252.006 79.1598C251.393 79.1598 250.873 78.9598 250.446 78.5598C250.046 78.1598 249.846 77.6398 249.846 76.9998C249.846 76.3598 250.046 75.8398 250.446 75.4398C250.873 75.0398 251.379 74.8398 251.966 74.8398C252.579 74.8398 253.073 75.0532 253.446 75.4798C253.846 75.9065 254.046 76.4132 254.046 76.9998C254.046 77.2132 254.033 77.4265 254.006 77.6398C253.979 77.8532 253.926 78.0932 253.846 78.3598C253.766 78.6265 253.659 78.9465 253.526 79.3198L251.846 84.8398H249.926Z" fill="#2E2F3B"/>
<path d="M275.631 79.1998C273.658 79.1998 272.138 78.6665 271.071 77.5998C270.005 76.5332 269.471 75.0265 269.471 73.0798V53.3598H272.311V72.9198C272.311 74.1465 272.618 75.0932 273.231 75.7598C273.871 76.4265 274.778 76.7598 275.951 76.7598C277.205 76.7598 278.245 76.3998 279.071 75.6798L280.071 77.7198C279.511 78.2265 278.831 78.5998 278.031 78.8398C277.258 79.0798 276.458 79.1998 275.631 79.1998ZM265.711 60.3598V57.9998H278.711V60.3598H265.711Z" fill="#2E2F3B"/>
<path d="M297.601 78.9998V74.3598L297.481 73.5998V65.8398C297.481 64.0532 296.975 62.6798 295.961 61.7198C294.975 60.7598 293.495 60.2798 291.521 60.2798C290.161 60.2798 288.868 60.5065 287.641 60.9598C286.415 61.4132 285.375 62.0132 284.521 62.7598L283.241 60.6398C284.308 59.7332 285.588 59.0398 287.081 58.5598C288.575 58.0532 290.148 57.7998 291.801 57.7998C294.521 57.7998 296.615 58.4798 298.081 59.8398C299.575 61.1732 300.321 63.2132 300.321 65.9598V78.9998H297.601ZM290.361 79.1998C288.788 79.1998 287.415 78.9465 286.241 78.4398C285.095 77.9065 284.215 77.1865 283.601 76.2798C282.988 75.3465 282.681 74.2798 282.681 73.0798C282.681 71.9865 282.935 70.9998 283.441 70.1198C283.975 69.2132 284.828 68.4932 286.001 67.9598C287.201 67.3998 288.801 67.1198 290.801 67.1198H298.041V69.2398H290.881C288.855 69.2398 287.441 69.5998 286.641 70.3198C285.868 71.0398 285.481 71.9332 285.481 72.9998C285.481 74.1998 285.948 75.1598 286.881 75.8798C287.815 76.5998 289.121 76.9598 290.801 76.9598C292.401 76.9598 293.775 76.5998 294.921 75.8798C296.095 75.1332 296.948 74.0665 297.481 72.6798L298.121 74.6398C297.588 76.0265 296.655 77.1332 295.321 77.9598C294.015 78.7865 292.361 79.1998 290.361 79.1998Z" fill="#2E2F3B"/>
<path d="M313.875 79.1998C311.902 79.1998 310.382 78.6665 309.315 77.5998C308.248 76.5332 307.715 75.0265 307.715 73.0798V53.3598H310.555V72.9198C310.555 74.1465 310.862 75.0932 311.475 75.7598C312.115 76.4265 313.022 76.7598 314.195 76.7598C315.448 76.7598 316.488 76.3998 317.315 75.6798L318.315 77.7198C317.755 78.2265 317.075 78.5998 316.275 78.8398C315.502 79.0798 314.702 79.1998 313.875 79.1998ZM303.955 60.3598V57.9998H316.955V60.3598H303.955Z" fill="#2E2F3B"/>
<path d="M328.778 79.1998C326.805 79.1998 325.285 78.6665 324.218 77.5998C323.151 76.5332 322.618 75.0265 322.618 73.0798V53.3598H325.458V72.9198C325.458 74.1465 325.765 75.0932 326.378 75.7598C327.018 76.4265 327.925 76.7598 329.098 76.7598C330.351 76.7598 331.391 76.3998 332.218 75.6798L333.218 77.7198C332.658 78.2265 331.978 78.5998 331.178 78.8398C330.405 79.0798 329.605 79.1998 328.778 79.1998ZM318.858 60.3598V57.9998H331.858V60.3598H318.858Z" fill="#2E2F3B"/>
<path d="M345.406 79.1998C343.379 79.1998 341.553 78.7465 339.926 77.8398C338.326 76.9065 337.059 75.6398 336.126 74.0398C335.193 72.4132 334.726 70.5598 334.726 68.4798C334.726 66.3732 335.193 64.5198 336.126 62.9198C337.059 61.3198 338.326 60.0665 339.926 59.1598C341.526 58.2532 343.353 57.7998 345.406 57.7998C347.486 57.7998 349.326 58.2532 350.926 59.1598C352.553 60.0665 353.819 61.3198 354.726 62.9198C355.659 64.5198 356.126 66.3732 356.126 68.4798C356.126 70.5598 355.659 72.4132 354.726 74.0398C353.819 75.6398 352.553 76.9065 350.926 77.8398C349.299 78.7465 347.459 79.1998 345.406 79.1998ZM345.406 76.6798C346.926 76.6798 348.273 76.3465 349.446 75.6798C350.619 74.9865 351.539 74.0265 352.206 72.7998C352.899 71.5465 353.246 70.1065 353.246 68.4798C353.246 66.8265 352.899 65.3865 352.206 64.1598C351.539 62.9332 350.619 61.9865 349.446 61.3198C348.273 60.6265 346.939 60.2798 345.446 60.2798C343.953 60.2798 342.619 60.6265 341.446 61.3198C340.273 61.9865 339.339 62.9332 338.646 64.1598C337.953 65.3865 337.606 66.8265 337.606 68.4798C337.606 70.1065 337.953 71.5465 338.646 72.7998C339.339 74.0265 340.273 74.9865 341.446 75.6798C342.619 76.3465 343.939 76.6798 345.406 76.6798Z" fill="#2E2F3B"/>
<path d="M369.684 79.1998C367.657 79.1998 365.831 78.7465 364.204 77.8398C362.604 76.9065 361.337 75.6398 360.404 74.0398C359.471 72.4132 359.004 70.5598 359.004 68.4798C359.004 66.3732 359.471 64.5198 360.404 62.9198C361.337 61.3198 362.604 60.0665 364.204 59.1598C365.804 58.2532 367.631 57.7998 369.684 57.7998C371.764 57.7998 373.604 58.2532 375.204 59.1598C376.831 60.0665 378.097 61.3198 379.004 62.9198C379.937 64.5198 380.404 66.3732 380.404 68.4798C380.404 70.5598 379.937 72.4132 379.004 74.0398C378.097 75.6398 376.831 76.9065 375.204 77.8398C373.577 78.7465 371.737 79.1998 369.684 79.1998ZM369.684 76.6798C371.204 76.6798 372.551 76.3465 373.724 75.6798C374.897 74.9865 375.817 74.0265 376.484 72.7998C377.177 71.5465 377.524 70.1065 377.524 68.4798C377.524 66.8265 377.177 65.3865 376.484 64.1598C375.817 62.9332 374.897 61.9865 373.724 61.3198C372.551 60.6265 371.217 60.2798 369.724 60.2798C368.231 60.2798 366.897 60.6265 365.724 61.3198C364.551 61.9865 363.617 62.9332 362.924 64.1598C362.231 65.3865 361.884 66.8265 361.884 68.4798C361.884 70.1065 362.231 71.5465 362.924 72.7998C363.617 74.0265 364.551 74.9865 365.724 75.6798C366.897 76.3465 368.217 76.6798 369.684 76.6798Z" fill="#2E2F3B"/>
<path d="M383.096 84.8398L384.856 77.4398L385.176 79.1598C384.563 79.1598 384.043 78.9598 383.616 78.5598C383.216 78.1598 383.016 77.6398 383.016 76.9998C383.016 76.3598 383.216 75.8398 383.616 75.4398C384.043 75.0398 384.55 74.8398 385.136 74.8398C385.75 74.8398 386.243 75.0532 386.616 75.4798C387.016 75.9065 387.216 76.4132 387.216 76.9998C387.216 77.2132 387.203 77.4265 387.176 77.6398C387.15 77.8532 387.096 78.0932 387.016 78.3598C386.936 78.6265 386.83 78.9465 386.696 79.3198L385.016 84.8398H383.096Z" fill="#2E2F3B"/>
<path d="M30.2 106.8C31.9066 106.8 33.3866 107.133 34.64 107.8C35.92 108.44 36.9066 109.426 37.6 110.76C38.32 112.093 38.68 113.773 38.68 115.8V128H35.84V116.08C35.84 113.866 35.3066 112.2 34.24 111.08C33.2 109.933 31.72 109.36 29.8 109.36C28.36 109.36 27.1066 109.666 26.04 110.28C25 110.866 24.1866 111.733 23.6 112.88C23.04 114 22.76 115.36 22.76 116.96V128H19.92V116.08C19.92 113.866 19.3866 112.2 18.32 111.08C17.2533 109.933 15.76 109.36 13.84 109.36C12.4266 109.36 11.1866 109.666 10.12 110.28C9.05331 110.866 8.22665 111.733 7.63998 112.88C7.07998 114 6.79998 115.36 6.79998 116.96V128H3.95998V107H6.67998V112.68L6.23998 111.68C6.87998 110.16 7.90665 108.973 9.31998 108.12C10.76 107.24 12.4533 106.8 14.4 106.8C16.4533 106.8 18.2 107.32 19.64 108.36C21.08 109.373 22.0133 110.906 22.44 112.96L21.32 112.52C21.9333 110.813 23.0133 109.44 24.56 108.4C26.1333 107.333 28.0133 106.8 30.2 106.8Z" fill="#2E2F3B"/>
<path d="M54.1419 128.2C52.1152 128.2 50.2885 127.746 48.6619 126.84C47.0619 125.906 45.7952 124.64 44.8619 123.04C43.9285 121.413 43.4619 119.56 43.4619 117.48C43.4619 115.373 43.9285 113.52 44.8619 111.92C45.7952 110.32 47.0619 109.066 48.6619 108.16C50.2619 107.253 52.0885 106.8 54.1419 106.8C56.2219 106.8 58.0619 107.253 59.6619 108.16C61.2885 109.066 62.5552 110.32 63.4619 111.92C64.3952 113.52 64.8619 115.373 64.8619 117.48C64.8619 119.56 64.3952 121.413 63.4619 123.04C62.5552 124.64 61.2885 125.906 59.6619 126.84C58.0352 127.746 56.1952 128.2 54.1419 128.2ZM54.1419 125.68C55.6619 125.68 57.0085 125.346 58.1819 124.68C59.3552 123.986 60.2752 123.026 60.9419 121.8C61.6352 120.546 61.9819 119.106 61.9819 117.48C61.9819 115.826 61.6352 114.386 60.9419 113.16C60.2752 111.933 59.3552 110.986 58.1819 110.32C57.0085 109.626 55.6752 109.28 54.1819 109.28C52.6885 109.28 51.3552 109.626 50.1819 110.32C49.0085 110.986 48.0752 111.933 47.3819 113.16C46.6885 114.386 46.3419 115.826 46.3419 117.48C46.3419 119.106 46.6885 120.546 47.3819 121.8C48.0752 123.026 49.0085 123.986 50.1819 124.68C51.3552 125.346 52.6752 125.68 54.1419 125.68Z" fill="#2E2F3B"/>
<path d="M78.54 128.2C76.7533 128.2 75.1933 127.866 73.86 127.2C72.5266 126.533 71.4866 125.533 70.74 124.2C70.02 122.866 69.66 121.2 69.66 119.2V107H72.5V118.88C72.5 121.12 73.0466 122.813 74.14 123.96C75.26 125.08 76.82 125.64 78.82 125.64C80.2866 125.64 81.5533 125.346 82.62 124.76C83.7133 124.146 84.54 123.266 85.1 122.12C85.6867 120.973 85.98 119.6 85.98 118V107H88.82V128H86.1V122.24L86.54 123.28C85.8733 124.826 84.8333 126.04 83.42 126.92C82.0333 127.773 80.4066 128.2 78.54 128.2Z" fill="#2E2F3B"/>
<path d="M101.575 128.2C99.8416 128.2 98.2016 127.96 96.655 127.48C95.1083 126.973 93.895 126.346 93.015 125.6L94.295 123.36C95.1483 124 96.2416 124.56 97.575 125.04C98.9083 125.493 100.308 125.72 101.775 125.72C103.775 125.72 105.215 125.413 106.095 124.8C106.975 124.16 107.415 123.32 107.415 122.28C107.415 121.506 107.162 120.906 106.655 120.48C106.175 120.026 105.535 119.693 104.735 119.48C103.935 119.24 103.042 119.04 102.055 118.88C101.068 118.72 100.082 118.533 99.095 118.32C98.135 118.106 97.255 117.8 96.455 117.4C95.655 116.973 95.0016 116.4 94.495 115.68C94.015 114.96 93.775 114 93.775 112.8C93.775 111.653 94.095 110.626 94.735 109.72C95.375 108.813 96.3083 108.106 97.535 107.6C98.7883 107.066 100.308 106.8 102.095 106.8C103.455 106.8 104.815 106.986 106.175 107.36C107.535 107.706 108.655 108.173 109.535 108.76L108.295 111.04C107.362 110.4 106.362 109.946 105.295 109.68C104.228 109.386 103.162 109.24 102.095 109.24C100.202 109.24 98.8016 109.573 97.895 110.24C97.015 110.88 96.575 111.706 96.575 112.72C96.575 113.52 96.815 114.146 97.295 114.6C97.8016 115.053 98.455 115.413 99.255 115.68C100.082 115.92 100.975 116.12 101.935 116.28C102.922 116.44 103.895 116.64 104.855 116.88C105.842 117.093 106.735 117.4 107.535 117.8C108.362 118.173 109.015 118.72 109.495 119.44C110.002 120.133 110.255 121.053 110.255 122.2C110.255 123.426 109.908 124.493 109.215 125.4C108.548 126.28 107.562 126.973 106.255 127.48C104.975 127.96 103.415 128.2 101.575 128.2Z" fill="#2E2F3B"/>
<path d="M121.306 128.2C119.333 128.2 117.813 127.666 116.746 126.6C115.68 125.533 115.146 124.026 115.146 122.08V102.36H117.986V121.92C117.986 123.146 118.293 124.093 118.906 124.76C119.546 125.426 120.453 125.76 121.626 125.76C122.88 125.76 123.92 125.4 124.746 124.68L125.746 126.72C125.186 127.226 124.506 127.6 123.706 127.84C122.933 128.08 122.133 128.2 121.306 128.2ZM111.386 109.36V107H124.386V109.36H111.386Z" fill="#2E2F3B"/>
<path d="M143.276 128V123.36L143.156 122.6V114.84C143.156 113.053 142.65 111.68 141.636 110.72C140.65 109.76 139.17 109.28 137.196 109.28C135.836 109.28 134.543 109.506 133.316 109.96C132.09 110.413 131.05 111.013 130.196 111.76L128.916 109.64C129.983 108.733 131.263 108.04 132.756 107.56C134.25 107.053 135.823 106.8 137.476 106.8C140.196 106.8 142.29 107.48 143.756 108.84C145.25 110.173 145.996 112.213 145.996 114.96V128H143.276ZM136.036 128.2C134.463 128.2 133.09 127.946 131.916 127.44C130.77 126.906 129.89 126.186 129.276 125.28C128.663 124.346 128.356 123.28 128.356 122.08C128.356 120.986 128.61 120 129.116 119.12C129.65 118.213 130.503 117.493 131.676 116.96C132.876 116.4 134.476 116.12 136.476 116.12H143.716V118.24H136.556C134.53 118.24 133.116 118.6 132.316 119.32C131.543 120.04 131.156 120.933 131.156 122C131.156 123.2 131.623 124.16 132.556 124.88C133.49 125.6 134.796 125.96 136.476 125.96C138.076 125.96 139.45 125.6 140.596 124.88C141.77 124.133 142.623 123.066 143.156 121.68L143.796 123.64C143.263 125.026 142.33 126.133 140.996 126.96C139.69 127.786 138.036 128.2 136.036 128.2Z" fill="#2E2F3B"/>
<path d="M161.63 128.2C159.55 128.2 157.683 127.746 156.03 126.84C154.403 125.906 153.123 124.64 152.19 123.04C151.257 121.413 150.79 119.56 150.79 117.48C150.79 115.373 151.257 113.52 152.19 111.92C153.123 110.32 154.403 109.066 156.03 108.16C157.683 107.253 159.55 106.8 161.63 106.8C163.417 106.8 165.03 107.146 166.47 107.84C167.91 108.533 169.043 109.573 169.87 110.96L167.75 112.4C167.03 111.333 166.137 110.546 165.07 110.04C164.003 109.533 162.843 109.28 161.59 109.28C160.097 109.28 158.75 109.626 157.55 110.32C156.35 110.986 155.403 111.933 154.71 113.16C154.017 114.386 153.67 115.826 153.67 117.48C153.67 119.133 154.017 120.573 154.71 121.8C155.403 123.026 156.35 123.986 157.55 124.68C158.75 125.346 160.097 125.68 161.59 125.68C162.843 125.68 164.003 125.426 165.07 124.92C166.137 124.413 167.03 123.64 167.75 122.6L169.87 124.04C169.043 125.4 167.91 126.44 166.47 127.16C165.03 127.853 163.417 128.2 161.63 128.2Z" fill="#2E2F3B"/>
<path d="M185.057 106.8C186.763 106.8 188.257 107.133 189.537 107.8C190.843 108.44 191.857 109.426 192.577 110.76C193.323 112.093 193.697 113.773 193.697 115.8V128H190.857V116.08C190.857 113.866 190.297 112.2 189.177 111.08C188.083 109.933 186.537 109.36 184.537 109.36C183.043 109.36 181.737 109.666 180.617 110.28C179.523 110.866 178.67 111.733 178.057 112.88C177.47 114 177.177 115.36 177.177 116.96V128H174.337V98.3198H177.177V112.76L176.617 111.68C177.283 110.16 178.35 108.973 179.817 108.12C181.283 107.24 183.03 106.8 185.057 106.8Z" fill="#2E2F3B"/>
<path d="M209.488 128.2C207.301 128.2 205.381 127.746 203.728 126.84C202.074 125.906 200.781 124.64 199.848 123.04C198.914 121.413 198.448 119.56 198.448 117.48C198.448 115.4 198.888 113.56 199.768 111.96C200.674 110.36 201.901 109.106 203.448 108.2C205.021 107.266 206.781 106.8 208.728 106.8C210.701 106.8 212.448 107.253 213.968 108.16C215.514 109.04 216.728 110.293 217.608 111.92C218.488 113.52 218.928 115.373 218.928 117.48C218.928 117.613 218.914 117.76 218.888 117.92C218.888 118.053 218.888 118.2 218.888 118.36H200.608V116.24H217.368L216.248 117.08C216.248 115.56 215.914 114.213 215.248 113.04C214.608 111.84 213.728 110.906 212.608 110.24C211.488 109.573 210.194 109.24 208.728 109.24C207.288 109.24 205.994 109.573 204.848 110.24C203.701 110.906 202.808 111.84 202.168 113.04C201.528 114.24 201.208 115.613 201.208 117.16V117.6C201.208 119.2 201.554 120.613 202.248 121.84C202.968 123.04 203.954 123.986 205.208 124.68C206.488 125.346 207.941 125.68 209.568 125.68C210.848 125.68 212.034 125.453 213.128 125C214.248 124.546 215.208 123.853 216.008 122.92L217.608 124.76C216.674 125.88 215.501 126.733 214.088 127.32C212.701 127.906 211.168 128.2 209.488 128.2Z" fill="#2E2F3B"/>
<path d="M224.188 128.2C223.602 128.2 223.095 127.986 222.668 127.56C222.268 127.133 222.068 126.613 222.068 126C222.068 125.36 222.268 124.84 222.668 124.44C223.095 124.04 223.602 123.84 224.188 123.84C224.775 123.84 225.268 124.04 225.668 124.44C226.095 124.84 226.308 125.36 226.308 126C226.308 126.613 226.095 127.133 225.668 127.56C225.268 127.986 224.775 128.2 224.188 128.2Z" fill="#2E2F3B"/>
<path d="M231.865 128.2C231.278 128.2 230.772 127.986 230.345 127.56C229.945 127.133 229.745 126.613 229.745 126C229.745 125.36 229.945 124.84 230.345 124.44C230.772 124.04 231.278 123.84 231.865 123.84C232.452 123.84 232.945 124.04 233.345 124.44C233.772 124.84 233.985 125.36 233.985 126C233.985 126.613 233.772 127.133 233.345 127.56C232.945 127.986 232.452 128.2 231.865 128.2Z" fill="#2E2F3B"/>
<path d="M239.542 128.2C238.955 128.2 238.448 127.986 238.022 127.56C237.622 127.133 237.422 126.613 237.422 126C237.422 125.36 237.622 124.84 238.022 124.44C238.448 124.04 238.955 123.84 239.542 123.84C240.128 123.84 240.622 124.04 241.022 124.44C241.448 124.84 241.662 125.36 241.662 126C241.662 126.613 241.448 127.133 241.022 127.56C240.622 127.986 240.128 128.2 239.542 128.2Z" fill="#2E2F3B"/>
<path d="M247.218 128.2C246.631 128.2 246.125 127.986 245.698 127.56C245.298 127.133 245.098 126.613 245.098 126C245.098 125.36 245.298 124.84 245.698 124.44C246.125 124.04 246.631 123.84 247.218 123.84C247.805 123.84 248.298 124.04 248.698 124.44C249.125 124.84 249.338 125.36 249.338 126C249.338 126.613 249.125 127.133 248.698 127.56C248.298 127.986 247.805 128.2 247.218 128.2Z" fill="#2E2F3B"/>
<path d="M254.895 128.2C254.308 128.2 253.801 127.986 253.375 127.56C252.975 127.133 252.775 126.613 252.775 126C252.775 125.36 252.975 124.84 253.375 124.44C253.801 124.04 254.308 123.84 254.895 123.84C255.481 123.84 255.975 124.04 256.375 124.44C256.801 124.84 257.015 125.36 257.015 126C257.015 126.613 256.801 127.133 256.375 127.56C255.975 127.986 255.481 128.2 254.895 128.2Z" fill="#2E2F3B"/>
<path d="M277.4 119.6C277.4 118.48 277.573 117.52 277.92 116.72C278.293 115.92 278.747 115.213 279.28 114.6C279.84 113.986 280.427 113.413 281.04 112.88C281.68 112.346 282.28 111.813 282.84 111.28C283.4 110.72 283.853 110.12 284.2 109.48C284.547 108.813 284.72 108.04 284.72 107.16C284.72 105.72 284.16 104.546 283.04 103.64C281.92 102.733 280.333 102.28 278.28 102.28C276.573 102.28 275.093 102.56 273.84 103.12C272.587 103.653 271.52 104.453 270.64 105.52L268.52 103.92C269.587 102.586 270.96 101.56 272.64 100.84C274.32 100.12 276.267 99.7598 278.48 99.7598C280.347 99.7598 281.96 100.04 283.32 100.6C284.707 101.16 285.773 101.96 286.52 103C287.293 104.04 287.68 105.28 287.68 106.72C287.68 107.866 287.493 108.853 287.12 109.68C286.773 110.48 286.32 111.2 285.76 111.84C285.227 112.453 284.64 113.04 284 113.6C283.387 114.133 282.8 114.68 282.24 115.24C281.68 115.8 281.227 116.426 280.88 117.12C280.533 117.813 280.36 118.64 280.36 119.6H277.4ZM278.88 128.2C278.32 128.2 277.827 128 277.4 127.6C277 127.173 276.8 126.68 276.8 126.12C276.8 125.533 277 125.053 277.4 124.68C277.827 124.28 278.32 124.08 278.88 124.08C279.493 124.08 280 124.28 280.4 124.68C280.8 125.053 281 125.533 281 126.12C281 126.68 280.8 127.173 280.4 127.6C280 128 279.493 128.2 278.88 128.2Z" fill="#2E2F3B"/>
<path d="M2.48999 187V166H7.34999V183.04H17.88V187H2.48999Z" fill="#2E2F3B"/>
<path d="M27.5583 187.24C25.7183 187.24 24.0983 186.88 22.6983 186.16C21.3183 185.44 20.2483 184.46 19.4883 183.22C18.7283 181.96 18.3483 180.53 18.3483 178.93C18.3483 177.31 18.7183 175.88 19.4583 174.64C20.2183 173.38 21.2483 172.4 22.5483 171.7C23.8483 170.98 25.3183 170.62 26.9583 170.62C28.5383 170.62 29.9583 170.96 31.2183 171.64C32.4983 172.3 33.5083 173.26 34.2483 174.52C34.9883 175.76 35.3583 177.25 35.3583 178.99C35.3583 179.17 35.3483 179.38 35.3283 179.62C35.3083 179.84 35.2883 180.05 35.2683 180.25H22.1583V177.52H32.8083L31.0083 178.33C31.0083 177.49 30.8383 176.76 30.4983 176.14C30.1583 175.52 29.6883 175.04 29.0883 174.7C28.4883 174.34 27.7883 174.16 26.9883 174.16C26.1883 174.16 25.4783 174.34 24.8583 174.7C24.2583 175.04 23.7883 175.53 23.4483 176.17C23.1083 176.79 22.9383 177.53 22.9383 178.39V179.11C22.9383 179.99 23.1283 180.77 23.5083 181.45C23.9083 182.11 24.4583 182.62 25.1583 182.98C25.8783 183.32 26.7183 183.49 27.6783 183.49C28.5383 183.49 29.2883 183.36 29.9283 183.1C30.5883 182.84 31.1883 182.45 31.7283 181.93L34.2183 184.63C33.4783 185.47 32.5483 186.12 31.4283 186.58C30.3083 187.02 29.0183 187.24 27.5583 187.24Z" fill="#2E2F3B"/>
<path d="M44.4741 187.24C42.5741 187.24 41.0941 186.76 40.034 185.8C38.974 184.82 38.444 183.37 38.444 181.45V167.29H43.1241V181.39C43.1241 182.07 43.3041 182.6 43.6641 182.98C44.0241 183.34 44.5141 183.52 45.1341 183.52C45.8741 183.52 46.5041 183.32 47.0241 182.92L48.284 186.22C47.804 186.56 47.2241 186.82 46.5441 187C45.8841 187.16 45.1941 187.24 44.4741 187.24ZM35.9541 174.82V171.22H47.1441V174.82H35.9541Z" fill="#2E2F3B"/>
<path d="M49.5012 174.7L51.4812 167.5L52.1412 170.23C51.2812 170.23 50.5712 169.98 50.0112 169.48C49.4712 168.96 49.2012 168.26 49.2012 167.38C49.2012 166.52 49.4812 165.83 50.0412 165.31C50.6012 164.77 51.2912 164.5 52.1112 164.5C52.9512 164.5 53.6412 164.77 54.1812 165.31C54.7212 165.83 54.9912 166.52 54.9912 167.38C54.9912 167.64 54.9712 167.9 54.9312 168.16C54.9112 168.4 54.8412 168.69 54.7212 169.03C54.6212 169.37 54.4512 169.82 54.2112 170.38L52.4712 174.7H49.5012Z" fill="#2E2F3B"/>
<path d="M62.4654 187.24C61.0854 187.24 59.7554 187.08 58.4754 186.76C57.2154 186.42 56.2154 186 55.4754 185.5L57.0354 182.14C57.7754 182.6 58.6454 182.98 59.6454 183.28C60.6654 183.56 61.6654 183.7 62.6454 183.7C63.7254 183.7 64.4854 183.57 64.9254 183.31C65.3854 183.05 65.6154 182.69 65.6154 182.23C65.6154 181.85 65.4354 181.57 65.0754 181.39C64.7354 181.19 64.2754 181.04 63.6954 180.94C63.1154 180.84 62.4754 180.74 61.7754 180.64C61.0954 180.54 60.4054 180.41 59.7054 180.25C59.0054 180.07 58.3654 179.81 57.7854 179.47C57.2054 179.13 56.7354 178.67 56.3754 178.09C56.0354 177.51 55.8654 176.76 55.8654 175.84C55.8654 174.82 56.1554 173.92 56.7354 173.14C57.3354 172.36 58.1954 171.75 59.3154 171.31C60.4354 170.85 61.7754 170.62 63.3354 170.62C64.4354 170.62 65.5554 170.74 66.6954 170.98C67.8354 171.22 68.7854 171.57 69.5454 172.03L67.9854 175.36C67.2054 174.9 66.4154 174.59 65.6154 174.43C64.8354 174.25 64.0754 174.16 63.3354 174.16C62.2954 174.16 61.5354 174.3 61.0554 174.58C60.5754 174.86 60.3354 175.22 60.3354 175.66C60.3354 176.06 60.5054 176.36 60.8454 176.56C61.2054 176.76 61.6754 176.92 62.2554 177.04C62.8354 177.16 63.4654 177.27 64.1454 177.37C64.8454 177.45 65.5454 177.58 66.2454 177.76C66.9454 177.94 67.5754 178.2 68.1354 178.54C68.7154 178.86 69.1854 179.31 69.5454 179.89C69.9054 180.45 70.0854 181.19 70.0854 182.11C70.0854 183.11 69.7854 184 69.1854 184.78C68.5854 185.54 67.7154 186.14 66.5754 186.58C65.4554 187.02 64.0854 187.24 62.4654 187.24Z" fill="#2E2F3B"/>
<path d="M80.839 187V170.5C80.839 168.68 81.379 167.23 82.459 166.15C83.539 165.05 85.079 164.5 87.079 164.5C87.759 164.5 88.409 164.57 89.029 164.71C89.669 164.85 90.209 165.07 90.649 165.37L89.419 168.76C89.159 168.58 88.869 168.44 88.549 168.34C88.229 168.24 87.889 168.19 87.529 168.19C86.849 168.19 86.319 168.39 85.939 168.79C85.579 169.17 85.399 169.75 85.399 170.53V172.03L85.519 174.04V187H80.839ZM78.349 174.82V171.22H89.539V174.82H78.349ZM92.179 187V170.86H96.859V187H92.179ZM94.519 168.61C93.659 168.61 92.959 168.36 92.419 167.86C91.879 167.36 91.609 166.74 91.609 166C91.609 165.26 91.879 164.64 92.419 164.14C92.959 163.64 93.659 163.39 94.519 163.39C95.379 163.39 96.079 163.63 96.619 164.11C97.159 164.57 97.429 165.17 97.429 165.91C97.429 166.69 97.159 167.34 96.619 167.86C96.099 168.36 95.399 168.61 94.519 168.61Z" fill="#2E2F3B"/>
<path d="M110.397 170.62C111.677 170.62 112.817 170.88 113.817 171.4C114.837 171.9 115.637 172.68 116.217 173.74C116.797 174.78 117.087 176.12 117.087 177.76V187H112.407V178.48C112.407 177.18 112.117 176.22 111.537 175.6C110.977 174.98 110.177 174.67 109.137 174.67C108.397 174.67 107.727 174.83 107.127 175.15C106.547 175.45 106.087 175.92 105.747 176.56C105.427 177.2 105.267 178.02 105.267 179.02V187H100.587V170.86H105.057V175.33L104.217 173.98C104.797 172.9 105.627 172.07 106.707 171.49C107.787 170.91 109.017 170.62 110.397 170.62Z" fill="#2E2F3B"/>
<path d="M127.776 187.24C126.256 187.24 124.886 186.9 123.666 186.22C122.446 185.52 121.476 184.55 120.756 183.31C120.056 182.07 119.706 180.61 119.706 178.93C119.706 177.23 120.056 175.76 120.756 174.52C121.476 173.28 122.446 172.32 123.666 171.64C124.886 170.96 126.256 170.62 127.776 170.62C129.136 170.62 130.326 170.92 131.346 171.52C132.366 172.12 133.156 173.03 133.716 174.25C134.276 175.47 134.556 177.03 134.556 178.93C134.556 180.81 134.286 182.37 133.746 183.61C133.206 184.83 132.426 185.74 131.406 186.34C130.406 186.94 129.196 187.24 127.776 187.24ZM128.586 183.4C129.346 183.4 130.036 183.22 130.656 182.86C131.276 182.5 131.766 181.99 132.126 181.33C132.506 180.65 132.696 179.85 132.696 178.93C132.696 177.99 132.506 177.19 132.126 176.53C131.766 175.87 131.276 175.36 130.656 175C130.036 174.64 129.346 174.46 128.586 174.46C127.806 174.46 127.106 174.64 126.486 175C125.866 175.36 125.366 175.87 124.986 176.53C124.626 177.19 124.446 177.99 124.446 178.93C124.446 179.85 124.626 180.65 124.986 181.33C125.366 181.99 125.866 182.5 126.486 182.86C127.106 183.22 127.806 183.4 128.586 183.4ZM132.816 187V183.7L132.906 178.9L132.606 174.13V164.74H137.286V187H132.816Z" fill="#2E2F3B"/>
<path d="M156.594 187.24C154.874 187.24 153.344 186.88 152.004 186.16C150.684 185.44 149.634 184.46 148.854 183.22C148.094 181.96 147.714 180.53 147.714 178.93C147.714 177.31 148.094 175.88 148.854 174.64C149.634 173.38 150.684 172.4 152.004 171.7C153.344 170.98 154.874 170.62 156.594 170.62C158.294 170.62 159.814 170.98 161.154 171.7C162.494 172.4 163.544 173.37 164.304 174.61C165.064 175.85 165.444 177.29 165.444 178.93C165.444 180.53 165.064 181.96 164.304 183.22C163.544 184.46 162.494 185.44 161.154 186.16C159.814 186.88 158.294 187.24 156.594 187.24ZM156.594 183.4C157.374 183.4 158.074 183.22 158.694 182.86C159.314 182.5 159.804 181.99 160.164 181.33C160.524 180.65 160.704 179.85 160.704 178.93C160.704 177.99 160.524 177.19 160.164 176.53C159.804 175.87 159.314 175.36 158.694 175C158.074 174.64 157.374 174.46 156.594 174.46C155.814 174.46 155.114 174.64 154.494 175C153.874 175.36 153.374 175.87 152.994 176.53C152.634 177.19 152.454 177.99 152.454 178.93C152.454 179.85 152.634 180.65 152.994 181.33C153.374 181.99 153.874 182.5 154.494 182.86C155.114 183.22 155.814 183.4 156.594 183.4Z" fill="#2E2F3B"/>
<path d="M174.782 187.24C173.442 187.24 172.242 186.98 171.182 186.46C170.142 185.94 169.332 185.15 168.752 184.09C168.172 183.01 167.882 181.64 167.882 179.98V170.86H172.562V179.29C172.562 180.63 172.842 181.62 173.402 182.26C173.982 182.88 174.792 183.19 175.832 183.19C176.552 183.19 177.192 183.04 177.752 182.74C178.312 182.42 178.752 181.94 179.072 181.3C179.392 180.64 179.552 179.82 179.552 178.84V170.86H184.232V187H179.792V182.56L180.602 183.85C180.062 184.97 179.262 185.82 178.202 186.4C177.162 186.96 176.022 187.24 174.782 187.24Z" fill="#2E2F3B"/>
<path d="M194.568 187.24C192.668 187.24 191.188 186.76 190.128 185.8C189.068 184.82 188.538 183.37 188.538 181.45V167.29H193.218V181.39C193.218 182.07 193.398 182.6 193.758 182.98C194.118 183.34 194.608 183.52 195.228 183.52C195.968 183.52 196.598 183.32 197.118 182.92L198.378 186.22C197.898 186.56 197.318 186.82 196.638 187C195.978 187.16 195.288 187.24 194.568 187.24ZM186.048 174.82V171.22H197.238V174.82H186.048Z" fill="#2E2F3B"/>
<path d="M208.631 179.71L207.701 166H213.281L212.351 179.71H208.631ZM210.491 187.24C209.651 187.24 208.961 186.97 208.421 186.43C207.881 185.89 207.611 185.25 207.611 184.51C207.611 183.75 207.881 183.12 208.421 182.62C208.961 182.1 209.651 181.84 210.491 181.84C211.351 181.84 212.041 182.1 212.561 182.62C213.101 183.12 213.371 183.75 213.371 184.51C213.371 185.25 213.101 185.89 212.561 186.43C212.041 186.97 211.351 187.24 210.491 187.24Z" fill="#2E2F3B"/>
<path d="M0 265C0 253.954 8.95431 245 20 245H421C432.046 245 441 253.954 441 265V322C441 333.046 432.046 342 421 342H20C8.95429 342 0 333.046 0 322V265Z" fill="url(#paint0_linear_10_2381)"/>
<path d="M76.2465 272.46H86.3565V276.24H76.2465V272.46ZM76.6065 281.1H88.0365V285H71.7765V264H87.6465V267.9H76.6065V281.1Z" fill="#2E2F3B"/>
<path d="M76.2465 272.46H86.3565V276.24H76.2465V272.46ZM76.6065 281.1H88.0365V285H71.7765V264H87.6465V267.9H76.6065V281.1Z" fill="white"/>
<path d="M100.783 268.62C102.063 268.62 103.203 268.88 104.203 269.4C105.223 269.9 106.023 270.68 106.603 271.74C107.183 272.78 107.473 274.12 107.473 275.76V285H102.793V276.48C102.793 275.18 102.503 274.22 101.923 273.6C101.363 272.98 100.563 272.67 99.5234 272.67C98.7834 272.67 98.1134 272.83 97.5134 273.15C96.9334 273.45 96.4734 273.92 96.1334 274.56C95.8134 275.2 95.6535 276.02 95.6535 277.02V285H90.9734V268.86H95.4434V273.33L94.6034 271.98C95.1834 270.9 96.0134 270.07 97.0934 269.49C98.1734 268.91 99.4034 268.62 100.783 268.62Z" fill="#2E2F3B"/>
<path d="M100.783 268.62C102.063 268.62 103.203 268.88 104.203 269.4C105.223 269.9 106.023 270.68 106.603 271.74C107.183 272.78 107.473 274.12 107.473 275.76V285H102.793V276.48C102.793 275.18 102.503 274.22 101.923 273.6C101.363 272.98 100.563 272.67 99.5234 272.67C98.7834 272.67 98.1134 272.83 97.5134 273.15C96.9334 273.45 96.4734 273.92 96.1334 274.56C95.8134 275.2 95.6535 276.02 95.6535 277.02V285H90.9734V268.86H95.4434V273.33L94.6034 271.98C95.1834 270.9 96.0134 270.07 97.0934 269.49C98.1734 268.91 99.4034 268.62 100.783 268.62Z" fill="white"/>
<path d="M117.716 285.24C115.816 285.24 114.336 284.76 113.276 283.8C112.216 282.82 111.686 281.37 111.686 279.45V265.29H116.366V279.39C116.366 280.07 116.546 280.6 116.906 280.98C117.266 281.34 117.756 281.52 118.376 281.52C119.116 281.52 119.746 281.32 120.266 280.92L121.526 284.22C121.046 284.56 120.466 284.82 119.786 285C119.126 285.16 118.436 285.24 117.716 285.24ZM109.196 272.82V269.22H120.386V272.82H109.196Z" fill="#2E2F3B"/>
<path d="M117.716 285.24C115.816 285.24 114.336 284.76 113.276 283.8C112.216 282.82 111.686 281.37 111.686 279.45V265.29H116.366V279.39C116.366 280.07 116.546 280.6 116.906 280.98C117.266 281.34 117.756 281.52 118.376 281.52C119.116 281.52 119.746 281.32 120.266 280.92L121.526 284.22C121.046 284.56 120.466 284.82 119.786 285C119.126 285.16 118.436 285.24 117.716 285.24ZM109.196 272.82V269.22H120.386V272.82H109.196Z" fill="white"/>
<path d="M131.065 285.24C129.225 285.24 127.605 284.88 126.205 284.16C124.825 283.44 123.755 282.46 122.995 281.22C122.235 279.96 121.855 278.53 121.855 276.93C121.855 275.31 122.225 273.88 122.965 272.64C123.725 271.38 124.755 270.4 126.055 269.7C127.355 268.98 128.825 268.62 130.465 268.62C132.045 268.62 133.465 268.96 134.725 269.64C136.005 270.3 137.015 271.26 137.755 272.52C138.495 273.76 138.865 275.25 138.865 276.99C138.865 277.17 138.855 277.38 138.835 277.62C138.815 277.84 138.795 278.05 138.775 278.25H125.665V275.52H136.315L134.515 276.33C134.515 275.49 134.345 274.76 134.005 274.14C133.665 273.52 133.195 273.04 132.595 272.7C131.995 272.34 131.295 272.16 130.495 272.16C129.695 272.16 128.985 272.34 128.365 272.7C127.765 273.04 127.295 273.53 126.955 274.17C126.615 274.79 126.445 275.53 126.445 276.39V277.11C126.445 277.99 126.635 278.77 127.015 279.45C127.415 280.11 127.965 280.62 128.665 280.98C129.385 281.32 130.225 281.49 131.185 281.49C132.045 281.49 132.795 281.36 133.435 281.1C134.095 280.84 134.695 280.45 135.235 279.93L137.725 282.63C136.985 283.47 136.055 284.12 134.935 284.58C133.815 285.02 132.525 285.24 131.065 285.24Z" fill="#2E2F3B"/>
<path d="M131.065 285.24C129.225 285.24 127.605 284.88 126.205 284.16C124.825 283.44 123.755 282.46 122.995 281.22C122.235 279.96 121.855 278.53 121.855 276.93C121.855 275.31 122.225 273.88 122.965 272.64C123.725 271.38 124.755 270.4 126.055 269.7C127.355 268.98 128.825 268.62 130.465 268.62C132.045 268.62 133.465 268.96 134.725 269.64C136.005 270.3 137.015 271.26 137.755 272.52C138.495 273.76 138.865 275.25 138.865 276.99C138.865 277.17 138.855 277.38 138.835 277.62C138.815 277.84 138.795 278.05 138.775 278.25H125.665V275.52H136.315L134.515 276.33C134.515 275.49 134.345 274.76 134.005 274.14C133.665 273.52 133.195 273.04 132.595 272.7C131.995 272.34 131.295 272.16 130.495 272.16C129.695 272.16 128.985 272.34 128.365 272.7C127.765 273.04 127.295 273.53 126.955 274.17C126.615 274.79 126.445 275.53 126.445 276.39V277.11C126.445 277.99 126.635 278.77 127.015 279.45C127.415 280.11 127.965 280.62 128.665 280.98C129.385 281.32 130.225 281.49 131.185 281.49C132.045 281.49 132.795 281.36 133.435 281.1C134.095 280.84 134.695 280.45 135.235 279.93L137.725 282.63C136.985 283.47 136.055 284.12 134.935 284.58C133.815 285.02 132.525 285.24 131.065 285.24Z" fill="white"/>
<path d="M141.38 285V268.86H145.85V273.42L145.22 272.1C145.7 270.96 146.47 270.1 147.53 269.52C148.59 268.92 149.88 268.62 151.4 268.62V272.94C151.2 272.92 151.02 272.91 150.86 272.91C150.7 272.89 150.53 272.88 150.35 272.88C149.07 272.88 148.03 273.25 147.23 273.99C146.45 274.71 146.06 275.84 146.06 277.38V285H141.38Z" fill="#2E2F3B"/>
<path d="M141.38 285V268.86H145.85V273.42L145.22 272.1C145.7 270.96 146.47 270.1 147.53 269.52C148.59 268.92 149.88 268.62 151.4 268.62V272.94C151.2 272.92 151.02 272.91 150.86 272.91C150.7 272.89 150.53 272.88 150.35 272.88C149.07 272.88 148.03 273.25 147.23 273.99C146.45 274.71 146.06 275.84 146.06 277.38V285H141.38Z" fill="white"/>
<path d="M163.636 291.06C162.796 291.06 161.967 290.93 161.147 290.67C160.327 290.41 159.656 290.05 159.136 289.59L160.847 286.26C161.207 286.58 161.616 286.83 162.076 287.01C162.556 287.19 163.027 287.28 163.487 287.28C164.147 287.28 164.667 287.12 165.047 286.8C165.447 286.5 165.807 285.99 166.127 285.27L166.966 283.29L167.326 282.78L173.117 268.86H177.616L170.326 285.99C169.807 287.29 169.206 288.31 168.526 289.05C167.866 289.79 167.126 290.31 166.306 290.61C165.506 290.91 164.616 291.06 163.636 291.06ZM166.397 285.63L159.196 268.86H164.026L169.606 282.36L166.397 285.63Z" fill="#2E2F3B"/>
<path d="M163.636 291.06C162.796 291.06 161.967 290.93 161.147 290.67C160.327 290.41 159.656 290.05 159.136 289.59L160.847 286.26C161.207 286.58 161.616 286.83 162.076 287.01C162.556 287.19 163.027 287.28 163.487 287.28C164.147 287.28 164.667 287.12 165.047 286.8C165.447 286.5 165.807 285.99 166.127 285.27L166.966 283.29L167.326 282.78L173.117 268.86H177.616L170.326 285.99C169.807 287.29 169.206 288.31 168.526 289.05C167.866 289.79 167.126 290.31 166.306 290.61C165.506 290.91 164.616 291.06 163.636 291.06ZM166.397 285.63L159.196 268.86H164.026L169.606 282.36L166.397 285.63Z" fill="white"/>
<path d="M186.167 285.24C184.447 285.24 182.917 284.88 181.577 284.16C180.257 283.44 179.207 282.46 178.427 281.22C177.667 279.96 177.287 278.53 177.287 276.93C177.287 275.31 177.667 273.88 178.427 272.64C179.207 271.38 180.257 270.4 181.577 269.7C182.917 268.98 184.447 268.62 186.167 268.62C187.867 268.62 189.387 268.98 190.727 269.7C192.067 270.4 193.117 271.37 193.877 272.61C194.637 273.85 195.017 275.29 195.017 276.93C195.017 278.53 194.637 279.96 193.877 281.22C193.117 282.46 192.067 283.44 190.727 284.16C189.387 284.88 187.867 285.24 186.167 285.24ZM186.167 281.4C186.947 281.4 187.647 281.22 188.267 280.86C188.887 280.5 189.377 279.99 189.737 279.33C190.097 278.65 190.277 277.85 190.277 276.93C190.277 275.99 190.097 275.19 189.737 274.53C189.377 273.87 188.887 273.36 188.267 273C187.647 272.64 186.947 272.46 186.167 272.46C185.387 272.46 184.687 272.64 184.067 273C183.447 273.36 182.947 273.87 182.567 274.53C182.207 275.19 182.027 275.99 182.027 276.93C182.027 277.85 182.207 278.65 182.567 279.33C182.947 279.99 183.447 280.5 184.067 280.86C184.687 281.22 185.387 281.4 186.167 281.4Z" fill="#2E2F3B"/>
<path d="M186.167 285.24C184.447 285.24 182.917 284.88 181.577 284.16C180.257 283.44 179.207 282.46 178.427 281.22C177.667 279.96 177.287 278.53 177.287 276.93C177.287 275.31 177.667 273.88 178.427 272.64C179.207 271.38 180.257 270.4 181.577 269.7C182.917 268.98 184.447 268.62 186.167 268.62C187.867 268.62 189.387 268.98 190.727 269.7C192.067 270.4 193.117 271.37 193.877 272.61C194.637 273.85 195.017 275.29 195.017 276.93C195.017 278.53 194.637 279.96 193.877 281.22C193.117 282.46 192.067 283.44 190.727 284.16C189.387 284.88 187.867 285.24 186.167 285.24ZM186.167 281.4C186.947 281.4 187.647 281.22 188.267 280.86C188.887 280.5 189.377 279.99 189.737 279.33C190.097 278.65 190.277 277.85 190.277 276.93C190.277 275.99 190.097 275.19 189.737 274.53C189.377 273.87 188.887 273.36 188.267 273C187.647 272.64 186.947 272.46 186.167 272.46C185.387 272.46 184.687 272.64 184.067 273C183.447 273.36 182.947 273.87 182.567 274.53C182.207 275.19 182.027 275.99 182.027 276.93C182.027 277.85 182.207 278.65 182.567 279.33C182.947 279.99 183.447 280.5 184.067 280.86C184.687 281.22 185.387 281.4 186.167 281.4Z" fill="white"/>
<path d="M204.355 285.24C203.015 285.24 201.815 284.98 200.755 284.46C199.715 283.94 198.905 283.15 198.325 282.09C197.745 281.01 197.455 279.64 197.455 277.98V268.86H202.135V277.29C202.135 278.63 202.415 279.62 202.975 280.26C203.555 280.88 204.365 281.19 205.405 281.19C206.125 281.19 206.765 281.04 207.325 280.74C207.885 280.42 208.325 279.94 208.645 279.3C208.965 278.64 209.125 277.82 209.125 276.84V268.86H213.805V285H209.365V280.56L210.175 281.85C209.635 282.97 208.835 283.82 207.775 284.4C206.735 284.96 205.595 285.24 204.355 285.24Z" fill="#2E2F3B"/>
<path d="M204.355 285.24C203.015 285.24 201.815 284.98 200.755 284.46C199.715 283.94 198.905 283.15 198.325 282.09C197.745 281.01 197.455 279.64 197.455 277.98V268.86H202.135V277.29C202.135 278.63 202.415 279.62 202.975 280.26C203.555 280.88 204.365 281.19 205.405 281.19C206.125 281.19 206.765 281.04 207.325 280.74C207.885 280.42 208.325 279.94 208.645 279.3C208.965 278.64 209.125 277.82 209.125 276.84V268.86H213.805V285H209.365V280.56L210.175 281.85C209.635 282.97 208.835 283.82 207.775 284.4C206.735 284.96 205.595 285.24 204.355 285.24Z" fill="white"/>
<path d="M217.541 285V268.86H222.011V273.42L221.381 272.1C221.861 270.96 222.631 270.1 223.691 269.52C224.751 268.92 226.041 268.62 227.561 268.62V272.94C227.361 272.92 227.181 272.91 227.021 272.91C226.861 272.89 226.691 272.88 226.511 272.88C225.231 272.88 224.191 273.25 223.391 273.99C222.611 274.71 222.221 275.84 222.221 277.38V285H217.541Z" fill="#2E2F3B"/>
<path d="M217.541 285V268.86H222.011V273.42L221.381 272.1C221.861 270.96 222.631 270.1 223.691 269.52C224.751 268.92 226.041 268.62 227.561 268.62V272.94C227.361 272.92 227.181 272.91 227.021 272.91C226.861 272.89 226.691 272.88 226.511 272.88C225.231 272.88 224.191 273.25 223.391 273.99C222.611 274.71 222.221 275.84 222.221 277.38V285H217.541Z" fill="white"/>
<path d="M238.327 285V268.5C238.327 266.68 238.867 265.23 239.947 264.15C241.027 263.05 242.567 262.5 244.567 262.5C245.247 262.5 245.897 262.57 246.517 262.71C247.157 262.85 247.697 263.07 248.137 263.37L246.907 266.76C246.647 266.58 246.357 266.44 246.037 266.34C245.717 266.24 245.377 266.19 245.017 266.19C244.337 266.19 243.807 266.39 243.427 266.79C243.067 267.17 242.887 267.75 242.887 268.53V270.03L243.007 272.04V285H238.327ZM235.837 272.82V269.22H247.027V272.82H235.837Z" fill="#2E2F3B"/>
<path d="M238.327 285V268.5C238.327 266.68 238.867 265.23 239.947 264.15C241.027 263.05 242.567 262.5 244.567 262.5C245.247 262.5 245.897 262.57 246.517 262.71C247.157 262.85 247.697 263.07 248.137 263.37L246.907 266.76C246.647 266.58 246.357 266.44 246.037 266.34C245.717 266.24 245.377 266.19 245.017 266.19C244.337 266.19 243.807 266.39 243.427 266.79C243.067 267.17 242.887 267.75 242.887 268.53V270.03L243.007 272.04V285H238.327ZM235.837 272.82V269.22H247.027V272.82H235.837Z" fill="white"/>
<path d="M258.365 285V281.85L258.065 281.16V275.52C258.065 274.52 257.755 273.74 257.135 273.18C256.535 272.62 255.605 272.34 254.345 272.34C253.485 272.34 252.635 272.48 251.795 272.76C250.975 273.02 250.275 273.38 249.695 273.84L248.015 270.57C248.895 269.95 249.955 269.47 251.195 269.13C252.435 268.79 253.695 268.62 254.975 268.62C257.435 268.62 259.345 269.2 260.705 270.36C262.065 271.52 262.745 273.33 262.745 275.79V285H258.365ZM253.445 285.24C252.185 285.24 251.105 285.03 250.205 284.61C249.305 284.17 248.615 283.58 248.135 282.84C247.655 282.1 247.415 281.27 247.415 280.35C247.415 279.39 247.645 278.55 248.105 277.83C248.585 277.11 249.335 276.55 250.355 276.15C251.375 275.73 252.705 275.52 254.345 275.52H258.635V278.25H254.855C253.755 278.25 252.995 278.43 252.575 278.79C252.175 279.15 251.975 279.6 251.975 280.14C251.975 280.74 252.205 281.22 252.665 281.58C253.145 281.92 253.795 282.09 254.615 282.09C255.395 282.09 256.095 281.91 256.715 281.55C257.335 281.17 257.785 280.62 258.065 279.9L258.785 282.06C258.445 283.1 257.825 283.89 256.925 284.43C256.025 284.97 254.865 285.24 253.445 285.24Z" fill="#2E2F3B"/>
<path d="M258.365 285V281.85L258.065 281.16V275.52C258.065 274.52 257.755 273.74 257.135 273.18C256.535 272.62 255.605 272.34 254.345 272.34C253.485 272.34 252.635 272.48 251.795 272.76C250.975 273.02 250.275 273.38 249.695 273.84L248.015 270.57C248.895 269.95 249.955 269.47 251.195 269.13C252.435 268.79 253.695 268.62 254.975 268.62C257.435 268.62 259.345 269.2 260.705 270.36C262.065 271.52 262.745 273.33 262.745 275.79V285H258.365ZM253.445 285.24C252.185 285.24 251.105 285.03 250.205 284.61C249.305 284.17 248.615 283.58 248.135 282.84C247.655 282.1 247.415 281.27 247.415 280.35C247.415 279.39 247.645 278.55 248.105 277.83C248.585 277.11 249.335 276.55 250.355 276.15C251.375 275.73 252.705 275.52 254.345 275.52H258.635V278.25H254.855C253.755 278.25 252.995 278.43 252.575 278.79C252.175 279.15 251.975 279.6 251.975 280.14C251.975 280.74 252.205 281.22 252.665 281.58C253.145 281.92 253.795 282.09 254.615 282.09C255.395 282.09 256.095 281.91 256.715 281.55C257.335 281.17 257.785 280.62 258.065 279.9L258.785 282.06C258.445 283.1 257.825 283.89 256.925 284.43C256.025 284.97 254.865 285.24 253.445 285.24Z" fill="white"/>
<path d="M270.468 285L263.688 268.86H268.518L274.158 282.75H271.758L277.608 268.86H282.108L275.298 285H270.468Z" fill="#2E2F3B"/>
<path d="M270.468 285L263.688 268.86H268.518L274.158 282.75H271.758L277.608 268.86H282.108L275.298 285H270.468Z" fill="white"/>
<path d="M290.658 285.24C288.938 285.24 287.408 284.88 286.068 284.16C284.748 283.44 283.698 282.46 282.918 281.22C282.158 279.96 281.778 278.53 281.778 276.93C281.778 275.31 282.158 273.88 282.918 272.64C283.698 271.38 284.748 270.4 286.068 269.7C287.408 268.98 288.938 268.62 290.658 268.62C292.358 268.62 293.878 268.98 295.218 269.7C296.558 270.4 297.608 271.37 298.368 272.61C299.128 273.85 299.508 275.29 299.508 276.93C299.508 278.53 299.128 279.96 298.368 281.22C297.608 282.46 296.558 283.44 295.218 284.16C293.878 284.88 292.358 285.24 290.658 285.24ZM290.658 281.4C291.438 281.4 292.138 281.22 292.758 280.86C293.378 280.5 293.868 279.99 294.228 279.33C294.588 278.65 294.768 277.85 294.768 276.93C294.768 275.99 294.588 275.19 294.228 274.53C293.868 273.87 293.378 273.36 292.758 273C292.138 272.64 291.438 272.46 290.658 272.46C289.878 272.46 289.178 272.64 288.558 273C287.938 273.36 287.438 273.87 287.058 274.53C286.698 275.19 286.518 275.99 286.518 276.93C286.518 277.85 286.698 278.65 287.058 279.33C287.438 279.99 287.938 280.5 288.558 280.86C289.178 281.22 289.878 281.4 290.658 281.4Z" fill="#2E2F3B"/>
<path d="M290.658 285.24C288.938 285.24 287.408 284.88 286.068 284.16C284.748 283.44 283.698 282.46 282.918 281.22C282.158 279.96 281.778 278.53 281.778 276.93C281.778 275.31 282.158 273.88 282.918 272.64C283.698 271.38 284.748 270.4 286.068 269.7C287.408 268.98 288.938 268.62 290.658 268.62C292.358 268.62 293.878 268.98 295.218 269.7C296.558 270.4 297.608 271.37 298.368 272.61C299.128 273.85 299.508 275.29 299.508 276.93C299.508 278.53 299.128 279.96 298.368 281.22C297.608 282.46 296.558 283.44 295.218 284.16C293.878 284.88 292.358 285.24 290.658 285.24ZM290.658 281.4C291.438 281.4 292.138 281.22 292.758 280.86C293.378 280.5 293.868 279.99 294.228 279.33C294.588 278.65 294.768 277.85 294.768 276.93C294.768 275.99 294.588 275.19 294.228 274.53C293.868 273.87 293.378 273.36 292.758 273C292.138 272.64 291.438 272.46 290.658 272.46C289.878 272.46 289.178 272.64 288.558 273C287.938 273.36 287.438 273.87 287.058 274.53C286.698 275.19 286.518 275.99 286.518 276.93C286.518 277.85 286.698 278.65 287.058 279.33C287.438 279.99 287.938 280.5 288.558 280.86C289.178 281.22 289.878 281.4 290.658 281.4Z" fill="white"/>
<path d="M308.846 285.24C307.506 285.24 306.306 284.98 305.246 284.46C304.206 283.94 303.396 283.15 302.816 282.09C302.236 281.01 301.946 279.64 301.946 277.98V268.86H306.626V277.29C306.626 278.63 306.906 279.62 307.466 280.26C308.046 280.88 308.856 281.19 309.896 281.19C310.616 281.19 311.256 281.04 311.816 280.74C312.376 280.42 312.816 279.94 313.136 279.3C313.456 278.64 313.616 277.82 313.616 276.84V268.86H318.296V285H313.856V280.56L314.666 281.85C314.126 282.97 313.326 283.82 312.266 284.4C311.226 284.96 310.086 285.24 308.846 285.24Z" fill="#2E2F3B"/>
<path d="M308.846 285.24C307.506 285.24 306.306 284.98 305.246 284.46C304.206 283.94 303.396 283.15 302.816 282.09C302.236 281.01 301.946 279.64 301.946 277.98V268.86H306.626V277.29C306.626 278.63 306.906 279.62 307.466 280.26C308.046 280.88 308.856 281.19 309.896 281.19C310.616 281.19 311.256 281.04 311.816 280.74C312.376 280.42 312.816 279.94 313.136 279.3C313.456 278.64 313.616 277.82 313.616 276.84V268.86H318.296V285H313.856V280.56L314.666 281.85C314.126 282.97 313.326 283.82 312.266 284.4C311.226 284.96 310.086 285.24 308.846 285.24Z" fill="white"/>
<path d="M322.032 285V268.86H326.502V273.42L325.872 272.1C326.352 270.96 327.122 270.1 328.182 269.52C329.242 268.92 330.532 268.62 332.052 268.62V272.94C331.852 272.92 331.672 272.91 331.512 272.91C331.352 272.89 331.182 272.88 331.002 272.88C329.722 272.88 328.682 273.25 327.882 273.99C327.102 274.71 326.712 275.84 326.712 277.38V285H322.032Z" fill="#2E2F3B"/>
<path d="M322.032 285V268.86H326.502V273.42L325.872 272.1C326.352 270.96 327.122 270.1 328.182 269.52C329.242 268.92 330.532 268.62 332.052 268.62V272.94C331.852 272.92 331.672 272.91 331.512 272.91C331.352 272.89 331.182 272.88 331.002 272.88C329.722 272.88 328.682 273.25 327.882 273.99C327.102 274.71 326.712 275.84 326.712 277.38V285H322.032Z" fill="white"/>
<path d="M334.235 285V268.86H338.915V285H334.235ZM336.575 266.61C335.715 266.61 335.015 266.36 334.475 265.86C333.935 265.36 333.665 264.74 333.665 264C333.665 263.26 333.935 262.64 334.475 262.14C335.015 261.64 335.715 261.39 336.575 261.39C337.435 261.39 338.135 261.63 338.675 262.11C339.215 262.57 339.485 263.17 339.485 263.91C339.485 264.69 339.215 265.34 338.675 265.86C338.155 266.36 337.455 266.61 336.575 266.61Z" fill="#2E2F3B"/>
<path d="M334.235 285V268.86H338.915V285H334.235ZM336.575 266.61C335.715 266.61 335.015 266.36 334.475 265.86C333.935 265.36 333.665 264.74 333.665 264C333.665 263.26 333.935 262.64 334.475 262.14C335.015 261.64 335.715 261.39 336.575 261.39C337.435 261.39 338.135 261.63 338.675 262.11C339.215 262.57 339.485 263.17 339.485 263.91C339.485 264.69 339.215 265.34 338.675 265.86C338.155 266.36 337.455 266.61 336.575 266.61Z" fill="white"/>
<path d="M349.258 285.24C347.358 285.24 345.878 284.76 344.818 283.8C343.758 282.82 343.228 281.37 343.228 279.45V265.29H347.908V279.39C347.908 280.07 348.088 280.6 348.448 280.98C348.808 281.34 349.298 281.52 349.918 281.52C350.658 281.52 351.288 281.32 351.808 280.92L353.068 284.22C352.588 284.56 352.008 284.82 351.328 285C350.668 285.16 349.978 285.24 349.258 285.24ZM340.738 272.82V269.22H351.928V272.82H340.738Z" fill="#2E2F3B"/>
<path d="M349.258 285.24C347.358 285.24 345.878 284.76 344.818 283.8C343.758 282.82 343.228 281.37 343.228 279.45V265.29H347.908V279.39C347.908 280.07 348.088 280.6 348.448 280.98C348.808 281.34 349.298 281.52 349.918 281.52C350.658 281.52 351.288 281.32 351.808 280.92L353.068 284.22C352.588 284.56 352.008 284.82 351.328 285C350.668 285.16 349.978 285.24 349.258 285.24ZM340.738 272.82V269.22H351.928V272.82H340.738Z" fill="white"/>
<path d="M362.607 285.24C360.767 285.24 359.147 284.88 357.747 284.16C356.367 283.44 355.297 282.46 354.537 281.22C353.777 279.96 353.397 278.53 353.397 276.93C353.397 275.31 353.767 273.88 354.507 272.64C355.267 271.38 356.297 270.4 357.597 269.7C358.897 268.98 360.367 268.62 362.007 268.62C363.587 268.62 365.007 268.96 366.267 269.64C367.547 270.3 368.557 271.26 369.297 272.52C370.037 273.76 370.407 275.25 370.407 276.99C370.407 277.17 370.397 277.38 370.377 277.62C370.357 277.84 370.337 278.05 370.317 278.25H357.207V275.52H367.857L366.057 276.33C366.057 275.49 365.887 274.76 365.547 274.14C365.207 273.52 364.737 273.04 364.137 272.7C363.537 272.34 362.837 272.16 362.037 272.16C361.237 272.16 360.527 272.34 359.907 272.7C359.307 273.04 358.837 273.53 358.497 274.17C358.157 274.79 357.987 275.53 357.987 276.39V277.11C357.987 277.99 358.177 278.77 358.557 279.45C358.957 280.11 359.507 280.62 360.207 280.98C360.927 281.32 361.767 281.49 362.727 281.49C363.587 281.49 364.337 281.36 364.977 281.1C365.637 280.84 366.237 280.45 366.777 279.93L369.267 282.63C368.527 283.47 367.597 284.12 366.477 284.58C365.357 285.02 364.067 285.24 362.607 285.24Z" fill="#2E2F3B"/>
<path d="M362.607 285.24C360.767 285.24 359.147 284.88 357.747 284.16C356.367 283.44 355.297 282.46 354.537 281.22C353.777 279.96 353.397 278.53 353.397 276.93C353.397 275.31 353.767 273.88 354.507 272.64C355.267 271.38 356.297 270.4 357.597 269.7C358.897 268.98 360.367 268.62 362.007 268.62C363.587 268.62 365.007 268.96 366.267 269.64C367.547 270.3 368.557 271.26 369.297 272.52C370.037 273.76 370.407 275.25 370.407 276.99C370.407 277.17 370.397 277.38 370.377 277.62C370.357 277.84 370.337 278.05 370.317 278.25H357.207V275.52H367.857L366.057 276.33C366.057 275.49 365.887 274.76 365.547 274.14C365.207 273.52 364.737 273.04 364.137 272.7C363.537 272.34 362.837 272.16 362.037 272.16C361.237 272.16 360.527 272.34 359.907 272.7C359.307 273.04 358.837 273.53 358.497 274.17C358.157 274.79 357.987 275.53 357.987 276.39V277.11C357.987 277.99 358.177 278.77 358.557 279.45C358.957 280.11 359.507 280.62 360.207 280.98C360.927 281.32 361.767 281.49 362.727 281.49C363.587 281.49 364.337 281.36 364.977 281.1C365.637 280.84 366.237 280.45 366.777 279.93L369.267 282.63C368.527 283.47 367.597 284.12 366.477 284.58C365.357 285.02 364.067 285.24 362.607 285.24Z" fill="white"/>
<path d="M79.0859 322.24C77.3459 322.24 75.7959 321.89 74.4359 321.19C73.0759 320.47 72.0059 319.48 71.2259 318.22C70.4659 316.96 70.0859 315.53 70.0859 313.93C70.0859 312.31 70.4659 310.88 71.2259 309.64C72.0059 308.38 73.0759 307.4 74.4359 306.7C75.7959 305.98 77.3459 305.62 79.0859 305.62C80.7859 305.62 82.2659 305.98 83.5259 306.7C84.7859 307.4 85.7159 308.41 86.3159 309.73L82.6859 311.68C82.2659 310.92 81.7359 310.36 81.0959 310C80.4759 309.64 79.7959 309.46 79.0559 309.46C78.2559 309.46 77.5359 309.64 76.8959 310C76.2559 310.36 75.7459 310.87 75.3659 311.53C75.0059 312.19 74.8259 312.99 74.8259 313.93C74.8259 314.87 75.0059 315.67 75.3659 316.33C75.7459 316.99 76.2559 317.5 76.8959 317.86C77.5359 318.22 78.2559 318.4 79.0559 318.4C79.7959 318.4 80.4759 318.23 81.0959 317.89C81.7359 317.53 82.2659 316.96 82.6859 316.18L86.3159 318.16C85.7159 319.46 84.7859 320.47 83.5259 321.19C82.2659 321.89 80.7859 322.24 79.0859 322.24Z" fill="#2E2F3B"/>
<path d="M79.0859 322.24C77.3459 322.24 75.7959 321.89 74.4359 321.19C73.0759 320.47 72.0059 319.48 71.2259 318.22C70.4659 316.96 70.0859 315.53 70.0859 313.93C70.0859 312.31 70.4659 310.88 71.2259 309.64C72.0059 308.38 73.0759 307.4 74.4359 306.7C75.7959 305.98 77.3459 305.62 79.0859 305.62C80.7859 305.62 82.2659 305.98 83.5259 306.7C84.7859 307.4 85.7159 308.41 86.3159 309.73L82.6859 311.68C82.2659 310.92 81.7359 310.36 81.0959 310C80.4759 309.64 79.7959 309.46 79.0559 309.46C78.2559 309.46 77.5359 309.64 76.8959 310C76.2559 310.36 75.7459 310.87 75.3659 311.53C75.0059 312.19 74.8259 312.99 74.8259 313.93C74.8259 314.87 75.0059 315.67 75.3659 316.33C75.7459 316.99 76.2559 317.5 76.8959 317.86C77.5359 318.22 78.2559 318.4 79.0559 318.4C79.7959 318.4 80.4759 318.23 81.0959 317.89C81.7359 317.53 82.2659 316.96 82.6859 316.18L86.3159 318.16C85.7159 319.46 84.7859 320.47 83.5259 321.19C82.2659 321.89 80.7859 322.24 79.0859 322.24Z" fill="white"/>
<path d="M95.8855 322.24C94.1655 322.24 92.6355 321.88 91.2955 321.16C89.9755 320.44 88.9255 319.46 88.1455 318.22C87.3855 316.96 87.0055 315.53 87.0055 313.93C87.0055 312.31 87.3855 310.88 88.1455 309.64C88.9255 308.38 89.9755 307.4 91.2955 306.7C92.6355 305.98 94.1655 305.62 95.8855 305.62C97.5855 305.62 99.1055 305.98 100.445 306.7C101.785 307.4 102.835 308.37 103.595 309.61C104.355 310.85 104.735 312.29 104.735 313.93C104.735 315.53 104.355 316.96 103.595 318.22C102.835 319.46 101.785 320.44 100.445 321.16C99.1055 321.88 97.5855 322.24 95.8855 322.24ZM95.8855 318.4C96.6655 318.4 97.3655 318.22 97.9855 317.86C98.6055 317.5 99.0955 316.99 99.4555 316.33C99.8155 315.65 99.9955 314.85 99.9955 313.93C99.9955 312.99 99.8155 312.19 99.4555 311.53C99.0955 310.87 98.6055 310.36 97.9855 310C97.3655 309.64 96.6655 309.46 95.8855 309.46C95.1055 309.46 94.4055 309.64 93.7855 310C93.1655 310.36 92.6655 310.87 92.2855 311.53C91.9255 312.19 91.7455 312.99 91.7455 313.93C91.7455 314.85 91.9255 315.65 92.2855 316.33C92.6655 316.99 93.1655 317.5 93.7855 317.86C94.4055 318.22 95.1055 318.4 95.8855 318.4Z" fill="#2E2F3B"/>
<path d="M95.8855 322.24C94.1655 322.24 92.6355 321.88 91.2955 321.16C89.9755 320.44 88.9255 319.46 88.1455 318.22C87.3855 316.96 87.0055 315.53 87.0055 313.93C87.0055 312.31 87.3855 310.88 88.1455 309.64C88.9255 308.38 89.9755 307.4 91.2955 306.7C92.6355 305.98 94.1655 305.62 95.8855 305.62C97.5855 305.62 99.1055 305.98 100.445 306.7C101.785 307.4 102.835 308.37 103.595 309.61C104.355 310.85 104.735 312.29 104.735 313.93C104.735 315.53 104.355 316.96 103.595 318.22C102.835 319.46 101.785 320.44 100.445 321.16C99.1055 321.88 97.5855 322.24 95.8855 322.24ZM95.8855 318.4C96.6655 318.4 97.3655 318.22 97.9855 317.86C98.6055 317.5 99.0955 316.99 99.4555 316.33C99.8155 315.65 99.9955 314.85 99.9955 313.93C99.9955 312.99 99.8155 312.19 99.4555 311.53C99.0955 310.87 98.6055 310.36 97.9855 310C97.3655 309.64 96.6655 309.46 95.8855 309.46C95.1055 309.46 94.4055 309.64 93.7855 310C93.1655 310.36 92.6655 310.87 92.2855 311.53C91.9255 312.19 91.7455 312.99 91.7455 313.93C91.7455 314.85 91.9255 315.65 92.2855 316.33C92.6655 316.99 93.1655 317.5 93.7855 317.86C94.4055 318.22 95.1055 318.4 95.8855 318.4Z" fill="white"/>
<path d="M117.074 305.62C118.354 305.62 119.494 305.88 120.494 306.4C121.514 306.9 122.314 307.68 122.894 308.74C123.474 309.78 123.764 311.12 123.764 312.76V322H119.084V313.48C119.084 312.18 118.794 311.22 118.214 310.6C117.654 309.98 116.854 309.67 115.814 309.67C115.074 309.67 114.404 309.83 113.804 310.15C113.224 310.45 112.764 310.92 112.424 311.56C112.104 312.2 111.944 313.02 111.944 314.02V322H107.264V305.86H111.734V310.33L110.894 308.98C111.474 307.9 112.304 307.07 113.384 306.49C114.464 305.91 115.694 305.62 117.074 305.62Z" fill="#2E2F3B"/>
<path d="M117.074 305.62C118.354 305.62 119.494 305.88 120.494 306.4C121.514 306.9 122.314 307.68 122.894 308.74C123.474 309.78 123.764 311.12 123.764 312.76V322H119.084V313.48C119.084 312.18 118.794 311.22 118.214 310.6C117.654 309.98 116.854 309.67 115.814 309.67C115.074 309.67 114.404 309.83 113.804 310.15C113.224 310.45 112.764 310.92 112.424 311.56C112.104 312.2 111.944 313.02 111.944 314.02V322H107.264V305.86H111.734V310.33L110.894 308.98C111.474 307.9 112.304 307.07 113.384 306.49C114.464 305.91 115.694 305.62 117.074 305.62Z" fill="white"/>
<path d="M134.006 322.24C132.106 322.24 130.626 321.76 129.566 320.8C128.506 319.82 127.976 318.37 127.976 316.45V302.29H132.656V316.39C132.656 317.07 132.836 317.6 133.196 317.98C133.556 318.34 134.046 318.52 134.666 318.52C135.406 318.52 136.036 318.32 136.556 317.92L137.816 321.22C137.336 321.56 136.756 321.82 136.076 322C135.416 322.16 134.726 322.24 134.006 322.24ZM125.486 309.82V306.22H136.676V309.82H125.486Z" fill="#2E2F3B"/>
<path d="M134.006 322.24C132.106 322.24 130.626 321.76 129.566 320.8C128.506 319.82 127.976 318.37 127.976 316.45V302.29H132.656V316.39C132.656 317.07 132.836 317.6 133.196 317.98C133.556 318.34 134.046 318.52 134.666 318.52C135.406 318.52 136.036 318.32 136.556 317.92L137.816 321.22C137.336 321.56 136.756 321.82 136.076 322C135.416 322.16 134.726 322.24 134.006 322.24ZM125.486 309.82V306.22H136.676V309.82H125.486Z" fill="white"/>
<path d="M147.355 322.24C145.515 322.24 143.895 321.88 142.495 321.16C141.115 320.44 140.045 319.46 139.285 318.22C138.525 316.96 138.145 315.53 138.145 313.93C138.145 312.31 138.515 310.88 139.255 309.64C140.015 308.38 141.045 307.4 142.345 306.7C143.645 305.98 145.115 305.62 146.755 305.62C148.335 305.62 149.755 305.96 151.015 306.64C152.295 307.3 153.305 308.26 154.045 309.52C154.785 310.76 155.155 312.25 155.155 313.99C155.155 314.17 155.145 314.38 155.125 314.62C155.105 314.84 155.085 315.05 155.065 315.25H141.955V312.52H152.605L150.805 313.33C150.805 312.49 150.635 311.76 150.295 311.14C149.955 310.52 149.485 310.04 148.885 309.7C148.285 309.34 147.585 309.16 146.785 309.16C145.985 309.16 145.275 309.34 144.655 309.7C144.055 310.04 143.585 310.53 143.245 311.17C142.905 311.79 142.735 312.53 142.735 313.39V314.11C142.735 314.99 142.925 315.77 143.305 316.45C143.705 317.11 144.255 317.62 144.955 317.98C145.675 318.32 146.515 318.49 147.475 318.49C148.335 318.49 149.085 318.36 149.725 318.1C150.385 317.84 150.985 317.45 151.525 316.93L154.015 319.63C153.275 320.47 152.345 321.12 151.225 321.58C150.105 322.02 148.815 322.24 147.355 322.24Z" fill="#2E2F3B"/>
<path d="M147.355 322.24C145.515 322.24 143.895 321.88 142.495 321.16C141.115 320.44 140.045 319.46 139.285 318.22C138.525 316.96 138.145 315.53 138.145 313.93C138.145 312.31 138.515 310.88 139.255 309.64C140.015 308.38 141.045 307.4 142.345 306.7C143.645 305.98 145.115 305.62 146.755 305.62C148.335 305.62 149.755 305.96 151.015 306.64C152.295 307.3 153.305 308.26 154.045 309.52C154.785 310.76 155.155 312.25 155.155 313.99C155.155 314.17 155.145 314.38 155.125 314.62C155.105 314.84 155.085 315.05 155.065 315.25H141.955V312.52H152.605L150.805 313.33C150.805 312.49 150.635 311.76 150.295 311.14C149.955 310.52 149.485 310.04 148.885 309.7C148.285 309.34 147.585 309.16 146.785 309.16C145.985 309.16 145.275 309.34 144.655 309.7C144.055 310.04 143.585 310.53 143.245 311.17C142.905 311.79 142.735 312.53 142.735 313.39V314.11C142.735 314.99 142.925 315.77 143.305 316.45C143.705 317.11 144.255 317.62 144.955 317.98C145.675 318.32 146.515 318.49 147.475 318.49C148.335 318.49 149.085 318.36 149.725 318.1C150.385 317.84 150.985 317.45 151.525 316.93L154.015 319.63C153.275 320.47 152.345 321.12 151.225 321.58C150.105 322.02 148.815 322.24 147.355 322.24Z" fill="white"/>
<path d="M163.101 322.24C161.721 322.24 160.391 322.08 159.111 321.76C157.851 321.42 156.851 321 156.111 320.5L157.671 317.14C158.411 317.6 159.281 317.98 160.281 318.28C161.301 318.56 162.301 318.7 163.281 318.7C164.361 318.7 165.121 318.57 165.561 318.31C166.021 318.05 166.251 317.69 166.251 317.23C166.251 316.85 166.071 316.57 165.711 316.39C165.371 316.19 164.911 316.04 164.331 315.94C163.751 315.84 163.111 315.74 162.411 315.64C161.731 315.54 161.041 315.41 160.341 315.25C159.641 315.07 159.001 314.81 158.421 314.47C157.841 314.13 157.371 313.67 157.011 313.09C156.671 312.51 156.501 311.76 156.501 310.84C156.501 309.82 156.791 308.92 157.371 308.14C157.971 307.36 158.831 306.75 159.951 306.31C161.071 305.85 162.411 305.62 163.971 305.62C165.071 305.62 166.191 305.74 167.331 305.98C168.471 306.22 169.421 306.57 170.181 307.03L168.621 310.36C167.841 309.9 167.051 309.59 166.251 309.43C165.471 309.25 164.711 309.16 163.971 309.16C162.931 309.16 162.171 309.3 161.691 309.58C161.211 309.86 160.971 310.22 160.971 310.66C160.971 311.06 161.141 311.36 161.481 311.56C161.841 311.76 162.311 311.92 162.891 312.04C163.471 312.16 164.101 312.27 164.781 312.37C165.481 312.45 166.181 312.58 166.881 312.76C167.581 312.94 168.211 313.2 168.771 313.54C169.351 313.86 169.821 314.31 170.181 314.89C170.541 315.45 170.721 316.19 170.721 317.11C170.721 318.11 170.421 319 169.821 319.78C169.221 320.54 168.351 321.14 167.211 321.58C166.091 322.02 164.721 322.24 163.101 322.24Z" fill="#2E2F3B"/>
<path d="M163.101 322.24C161.721 322.24 160.391 322.08 159.111 321.76C157.851 321.42 156.851 321 156.111 320.5L157.671 317.14C158.411 317.6 159.281 317.98 160.281 318.28C161.301 318.56 162.301 318.7 163.281 318.7C164.361 318.7 165.121 318.57 165.561 318.31C166.021 318.05 166.251 317.69 166.251 317.23C166.251 316.85 166.071 316.57 165.711 316.39C165.371 316.19 164.911 316.04 164.331 315.94C163.751 315.84 163.111 315.74 162.411 315.64C161.731 315.54 161.041 315.41 160.341 315.25C159.641 315.07 159.001 314.81 158.421 314.47C157.841 314.13 157.371 313.67 157.011 313.09C156.671 312.51 156.501 311.76 156.501 310.84C156.501 309.82 156.791 308.92 157.371 308.14C157.971 307.36 158.831 306.75 159.951 306.31C161.071 305.85 162.411 305.62 163.971 305.62C165.071 305.62 166.191 305.74 167.331 305.98C168.471 306.22 169.421 306.57 170.181 307.03L168.621 310.36C167.841 309.9 167.051 309.59 166.251 309.43C165.471 309.25 164.711 309.16 163.971 309.16C162.931 309.16 162.171 309.3 161.691 309.58C161.211 309.86 160.971 310.22 160.971 310.66C160.971 311.06 161.141 311.36 161.481 311.56C161.841 311.76 162.311 311.92 162.891 312.04C163.471 312.16 164.101 312.27 164.781 312.37C165.481 312.45 166.181 312.58 166.881 312.76C167.581 312.94 168.211 313.2 168.771 313.54C169.351 313.86 169.821 314.31 170.181 314.89C170.541 315.45 170.721 316.19 170.721 317.11C170.721 318.11 170.421 319 169.821 319.78C169.221 320.54 168.351 321.14 167.211 321.58C166.091 322.02 164.721 322.24 163.101 322.24Z" fill="white"/>
<path d="M179.608 322.24C177.708 322.24 176.228 321.76 175.168 320.8C174.108 319.82 173.578 318.37 173.578 316.45V302.29H178.258V316.39C178.258 317.07 178.438 317.6 178.798 317.98C179.158 318.34 179.648 318.52 180.268 318.52C181.008 318.52 181.638 318.32 182.158 317.92L183.418 321.22C182.938 321.56 182.358 321.82 181.678 322C181.018 322.16 180.328 322.24 179.608 322.24ZM171.088 309.82V306.22H182.278V309.82H171.088Z" fill="#2E2F3B"/>
<path d="M179.608 322.24C177.708 322.24 176.228 321.76 175.168 320.8C174.108 319.82 173.578 318.37 173.578 316.45V302.29H178.258V316.39C178.258 317.07 178.438 317.6 178.798 317.98C179.158 318.34 179.648 318.52 180.268 318.52C181.008 318.52 181.638 318.32 182.158 317.92L183.418 321.22C182.938 321.56 182.358 321.82 181.678 322C181.018 322.16 180.328 322.24 179.608 322.24ZM171.088 309.82V306.22H182.278V309.82H171.088Z" fill="white"/>
<path d="M203.241 322V318.85L202.941 318.16V312.52C202.941 311.52 202.631 310.74 202.011 310.18C201.411 309.62 200.481 309.34 199.221 309.34C198.361 309.34 197.511 309.48 196.671 309.76C195.851 310.02 195.151 310.38 194.571 310.84L192.891 307.57C193.771 306.95 194.831 306.47 196.071 306.13C197.311 305.79 198.571 305.62 199.851 305.62C202.311 305.62 204.221 306.2 205.581 307.36C206.941 308.52 207.621 310.33 207.621 312.79V322H203.241ZM198.321 322.24C197.061 322.24 195.981 322.03 195.081 321.61C194.181 321.17 193.491 320.58 193.011 319.84C192.531 319.1 192.291 318.27 192.291 317.35C192.291 316.39 192.521 315.55 192.981 314.83C193.461 314.11 194.211 313.55 195.231 313.15C196.251 312.73 197.581 312.52 199.221 312.52H203.511V315.25H199.731C198.631 315.25 197.871 315.43 197.451 315.79C197.051 316.15 196.851 316.6 196.851 317.14C196.851 317.74 197.081 318.22 197.541 318.58C198.021 318.92 198.671 319.09 199.491 319.09C200.271 319.09 200.971 318.91 201.591 318.55C202.211 318.17 202.661 317.62 202.941 316.9L203.661 319.06C203.321 320.1 202.701 320.89 201.801 321.43C200.901 321.97 199.741 322.24 198.321 322.24Z" fill="#2E2F3B"/>
<path d="M203.241 322V318.85L202.941 318.16V312.52C202.941 311.52 202.631 310.74 202.011 310.18C201.411 309.62 200.481 309.34 199.221 309.34C198.361 309.34 197.511 309.48 196.671 309.76C195.851 310.02 195.151 310.38 194.571 310.84L192.891 307.57C193.771 306.95 194.831 306.47 196.071 306.13C197.311 305.79 198.571 305.62 199.851 305.62C202.311 305.62 204.221 306.2 205.581 307.36C206.941 308.52 207.621 310.33 207.621 312.79V322H203.241ZM198.321 322.24C197.061 322.24 195.981 322.03 195.081 321.61C194.181 321.17 193.491 320.58 193.011 319.84C192.531 319.1 192.291 318.27 192.291 317.35C192.291 316.39 192.521 315.55 192.981 314.83C193.461 314.11 194.211 313.55 195.231 313.15C196.251 312.73 197.581 312.52 199.221 312.52H203.511V315.25H199.731C198.631 315.25 197.871 315.43 197.451 315.79C197.051 316.15 196.851 316.6 196.851 317.14C196.851 317.74 197.081 318.22 197.541 318.58C198.021 318.92 198.671 319.09 199.491 319.09C200.271 319.09 200.971 318.91 201.591 318.55C202.211 318.17 202.661 317.62 202.941 316.9L203.661 319.06C203.321 320.1 202.701 320.89 201.801 321.43C200.901 321.97 199.741 322.24 198.321 322.24Z" fill="white"/>
<path d="M221.067 305.62C222.347 305.62 223.487 305.88 224.487 306.4C225.507 306.9 226.307 307.68 226.887 308.74C227.467 309.78 227.757 311.12 227.757 312.76V322H223.077V313.48C223.077 312.18 222.787 311.22 222.207 310.6C221.647 309.98 220.847 309.67 219.807 309.67C219.067 309.67 218.397 309.83 217.797 310.15C217.217 310.45 216.757 310.92 216.417 311.56C216.097 312.2 215.937 313.02 215.937 314.02V322H211.257V305.86H215.727V310.33L214.887 308.98C215.467 307.9 216.297 307.07 217.377 306.49C218.457 305.91 219.687 305.62 221.067 305.62Z" fill="#2E2F3B"/>
<path d="M221.067 305.62C222.347 305.62 223.487 305.88 224.487 306.4C225.507 306.9 226.307 307.68 226.887 308.74C227.467 309.78 227.757 311.12 227.757 312.76V322H223.077V313.48C223.077 312.18 222.787 311.22 222.207 310.6C221.647 309.98 220.847 309.67 219.807 309.67C219.067 309.67 218.397 309.83 217.797 310.15C217.217 310.45 216.757 310.92 216.417 311.56C216.097 312.2 215.937 313.02 215.937 314.02V322H211.257V305.86H215.727V310.33L214.887 308.98C215.467 307.9 216.297 307.07 217.377 306.49C218.457 305.91 219.687 305.62 221.067 305.62Z" fill="white"/>
<path d="M238.446 322.24C236.926 322.24 235.556 321.9 234.336 321.22C233.116 320.52 232.146 319.55 231.426 318.31C230.726 317.07 230.376 315.61 230.376 313.93C230.376 312.23 230.726 310.76 231.426 309.52C232.146 308.28 233.116 307.32 234.336 306.64C235.556 305.96 236.926 305.62 238.446 305.62C239.806 305.62 240.996 305.92 242.016 306.52C243.036 307.12 243.826 308.03 244.386 309.25C244.946 310.47 245.226 312.03 245.226 313.93C245.226 315.81 244.956 317.37 244.416 318.61C243.876 319.83 243.096 320.74 242.076 321.34C241.076 321.94 239.866 322.24 238.446 322.24ZM239.256 318.4C240.016 318.4 240.706 318.22 241.326 317.86C241.946 317.5 242.436 316.99 242.796 316.33C243.176 315.65 243.366 314.85 243.366 313.93C243.366 312.99 243.176 312.19 242.796 311.53C242.436 310.87 241.946 310.36 241.326 310C240.706 309.64 240.016 309.46 239.256 309.46C238.476 309.46 237.776 309.64 237.156 310C236.536 310.36 236.036 310.87 235.656 311.53C235.296 312.19 235.116 312.99 235.116 313.93C235.116 314.85 235.296 315.65 235.656 316.33C236.036 316.99 236.536 317.5 237.156 317.86C237.776 318.22 238.476 318.4 239.256 318.4ZM243.486 322V318.7L243.576 313.9L243.276 309.13V299.74H247.956V322H243.486Z" fill="#2E2F3B"/>
<path d="M238.446 322.24C236.926 322.24 235.556 321.9 234.336 321.22C233.116 320.52 232.146 319.55 231.426 318.31C230.726 317.07 230.376 315.61 230.376 313.93C230.376 312.23 230.726 310.76 231.426 309.52C232.146 308.28 233.116 307.32 234.336 306.64C235.556 305.96 236.926 305.62 238.446 305.62C239.806 305.62 240.996 305.92 242.016 306.52C243.036 307.12 243.826 308.03 244.386 309.25C244.946 310.47 245.226 312.03 245.226 313.93C245.226 315.81 244.956 317.37 244.416 318.61C243.876 319.83 243.096 320.74 242.076 321.34C241.076 321.94 239.866 322.24 238.446 322.24ZM239.256 318.4C240.016 318.4 240.706 318.22 241.326 317.86C241.946 317.5 242.436 316.99 242.796 316.33C243.176 315.65 243.366 314.85 243.366 313.93C243.366 312.99 243.176 312.19 242.796 311.53C242.436 310.87 241.946 310.36 241.326 310C240.706 309.64 240.016 309.46 239.256 309.46C238.476 309.46 237.776 309.64 237.156 310C236.536 310.36 236.036 310.87 235.656 311.53C235.296 312.19 235.116 312.99 235.116 313.93C235.116 314.85 235.296 315.65 235.656 316.33C236.036 316.99 236.536 317.5 237.156 317.86C237.776 318.22 238.476 318.4 239.256 318.4ZM243.486 322V318.7L243.576 313.9L243.276 309.13V299.74H247.956V322H243.486Z" fill="white"/>
<path d="M263.274 322L257.454 305.86H261.864L266.694 319.75H264.594L269.634 305.86H273.594L278.484 319.75H276.384L281.364 305.86H285.504L279.654 322H275.124L270.834 310.09H272.214L267.774 322H263.274Z" fill="#2E2F3B"/>
<path d="M263.274 322L257.454 305.86H261.864L266.694 319.75H264.594L269.634 305.86H273.594L278.484 319.75H276.384L281.364 305.86H285.504L279.654 322H275.124L270.834 310.09H272.214L267.774 322H263.274Z" fill="white"/>
<path d="M287.08 322V305.86H291.76V322H287.08ZM289.42 303.61C288.56 303.61 287.86 303.36 287.32 302.86C286.78 302.36 286.51 301.74 286.51 301C286.51 300.26 286.78 299.64 287.32 299.14C287.86 298.64 288.56 298.39 289.42 298.39C290.28 298.39 290.98 298.63 291.52 299.11C292.06 299.57 292.33 300.17 292.33 300.91C292.33 301.69 292.06 302.34 291.52 302.86C291 303.36 290.3 303.61 289.42 303.61Z" fill="#2E2F3B"/>
<path d="M287.08 322V305.86H291.76V322H287.08ZM289.42 303.61C288.56 303.61 287.86 303.36 287.32 302.86C286.78 302.36 286.51 301.74 286.51 301C286.51 300.26 286.78 299.64 287.32 299.14C287.86 298.64 288.56 298.39 289.42 298.39C290.28 298.39 290.98 298.63 291.52 299.11C292.06 299.57 292.33 300.17 292.33 300.91C292.33 301.69 292.06 302.34 291.52 302.86C291 303.36 290.3 303.61 289.42 303.61Z" fill="white"/>
<path d="M305.313 305.62C306.593 305.62 307.733 305.88 308.733 306.4C309.753 306.9 310.553 307.68 311.133 308.74C311.713 309.78 312.003 311.12 312.003 312.76V322H307.323V313.48C307.323 312.18 307.033 311.22 306.453 310.6C305.893 309.98 305.093 309.67 304.053 309.67C303.313 309.67 302.643 309.83 302.043 310.15C301.463 310.45 301.003 310.92 300.663 311.56C300.343 312.2 300.183 313.02 300.183 314.02V322H295.503V305.86H299.973V310.33L299.133 308.98C299.713 307.9 300.543 307.07 301.623 306.49C302.703 305.91 303.933 305.62 305.313 305.62Z" fill="#2E2F3B"/>
<path d="M305.313 305.62C306.593 305.62 307.733 305.88 308.733 306.4C309.753 306.9 310.553 307.68 311.133 308.74C311.713 309.78 312.003 311.12 312.003 312.76V322H307.323V313.48C307.323 312.18 307.033 311.22 306.453 310.6C305.893 309.98 305.093 309.67 304.053 309.67C303.313 309.67 302.643 309.83 302.043 310.15C301.463 310.45 301.003 310.92 300.663 311.56C300.343 312.2 300.183 313.02 300.183 314.02V322H295.503V305.86H299.973V310.33L299.133 308.98C299.713 307.9 300.543 307.07 301.623 306.49C302.703 305.91 303.933 305.62 305.313 305.62Z" fill="white"/>
<path d="M333.081 322.24C331.661 322.24 330.441 321.94 329.421 321.34C328.401 320.74 327.621 319.83 327.081 318.61C326.541 317.37 326.271 315.81 326.271 313.93C326.271 312.03 326.551 310.47 327.111 309.25C327.691 308.03 328.491 307.12 329.511 306.52C330.531 305.92 331.721 305.62 333.081 305.62C334.601 305.62 335.961 305.96 337.161 306.64C338.381 307.32 339.341 308.28 340.041 309.52C340.761 310.76 341.121 312.23 341.121 313.93C341.121 315.61 340.761 317.07 340.041 318.31C339.341 319.55 338.381 320.52 337.161 321.22C335.961 321.9 334.601 322.24 333.081 322.24ZM323.541 322V299.74H328.221V309.13L327.921 313.9L328.011 318.7V322H323.541ZM332.271 318.4C333.051 318.4 333.741 318.22 334.341 317.86C334.961 317.5 335.451 316.99 335.811 316.33C336.191 315.65 336.381 314.85 336.381 313.93C336.381 312.99 336.191 312.19 335.811 311.53C335.451 310.87 334.961 310.36 334.341 310C333.741 309.64 333.051 309.46 332.271 309.46C331.491 309.46 330.791 309.64 330.171 310C329.551 310.36 329.061 310.87 328.701 311.53C328.341 312.19 328.161 312.99 328.161 313.93C328.161 314.85 328.341 315.65 328.701 316.33C329.061 316.99 329.551 317.5 330.171 317.86C330.791 318.22 331.491 318.4 332.271 318.4Z" fill="#2E2F3B"/>
<path d="M333.081 322.24C331.661 322.24 330.441 321.94 329.421 321.34C328.401 320.74 327.621 319.83 327.081 318.61C326.541 317.37 326.271 315.81 326.271 313.93C326.271 312.03 326.551 310.47 327.111 309.25C327.691 308.03 328.491 307.12 329.511 306.52C330.531 305.92 331.721 305.62 333.081 305.62C334.601 305.62 335.961 305.96 337.161 306.64C338.381 307.32 339.341 308.28 340.041 309.52C340.761 310.76 341.121 312.23 341.121 313.93C341.121 315.61 340.761 317.07 340.041 318.31C339.341 319.55 338.381 320.52 337.161 321.22C335.961 321.9 334.601 322.24 333.081 322.24ZM323.541 322V299.74H328.221V309.13L327.921 313.9L328.011 318.7V322H323.541ZM332.271 318.4C333.051 318.4 333.741 318.22 334.341 317.86C334.961 317.5 335.451 316.99 335.811 316.33C336.191 315.65 336.381 314.85 336.381 313.93C336.381 312.99 336.191 312.19 335.811 311.53C335.451 310.87 334.961 310.36 334.341 310C333.741 309.64 333.051 309.46 332.271 309.46C331.491 309.46 330.791 309.64 330.171 310C329.551 310.36 329.061 310.87 328.701 311.53C328.341 312.19 328.161 312.99 328.161 313.93C328.161 314.85 328.341 315.65 328.701 316.33C329.061 316.99 329.551 317.5 330.171 317.86C330.791 318.22 331.491 318.4 332.271 318.4Z" fill="white"/>
<path d="M343.654 322V305.86H348.334V322H343.654ZM345.994 303.61C345.134 303.61 344.434 303.36 343.894 302.86C343.354 302.36 343.084 301.74 343.084 301C343.084 300.26 343.354 299.64 343.894 299.14C344.434 298.64 345.134 298.39 345.994 298.39C346.854 298.39 347.554 298.63 348.094 299.11C348.634 299.57 348.904 300.17 348.904 300.91C348.904 301.69 348.634 302.34 348.094 302.86C347.574 303.36 346.874 303.61 345.994 303.61Z" fill="#2E2F3B"/>
<path d="M343.654 322V305.86H348.334V322H343.654ZM345.994 303.61C345.134 303.61 344.434 303.36 343.894 302.86C343.354 302.36 343.084 301.74 343.084 301C343.084 300.26 343.354 299.64 343.894 299.14C344.434 298.64 345.134 298.39 345.994 298.39C346.854 298.39 347.554 298.63 348.094 299.11C348.634 299.57 348.904 300.17 348.904 300.91C348.904 301.69 348.634 302.34 348.094 302.86C347.574 303.36 346.874 303.61 345.994 303.61Z" fill="white"/>
<path d="M359.668 328.06C358.148 328.06 356.678 327.87 355.258 327.49C353.858 327.13 352.688 326.58 351.748 325.84L353.608 322.48C354.288 323.04 355.148 323.48 356.188 323.8C357.248 324.14 358.288 324.31 359.308 324.31C360.968 324.31 362.168 323.94 362.908 323.2C363.668 322.46 364.048 321.36 364.048 319.9V317.47L364.348 313.42L364.288 309.34V305.86H368.728V319.3C368.728 322.3 367.948 324.51 366.388 325.93C364.828 327.35 362.588 328.06 359.668 328.06ZM358.948 321.22C357.448 321.22 356.088 320.9 354.868 320.26C353.668 319.6 352.698 318.69 351.958 317.53C351.238 316.35 350.878 314.98 350.878 313.42C350.878 311.84 351.238 310.47 351.958 309.31C352.698 308.13 353.668 307.22 354.868 306.58C356.088 305.94 357.448 305.62 358.948 305.62C360.308 305.62 361.508 305.9 362.548 306.46C363.588 307 364.398 307.85 364.978 309.01C365.558 310.15 365.848 311.62 365.848 313.42C365.848 315.2 365.558 316.67 364.978 317.83C364.398 318.97 363.588 319.82 362.548 320.38C361.508 320.94 360.308 321.22 358.948 321.22ZM359.878 317.38C360.698 317.38 361.428 317.22 362.068 316.9C362.708 316.56 363.208 316.09 363.568 315.49C363.928 314.89 364.108 314.2 364.108 313.42C364.108 312.62 363.928 311.93 363.568 311.35C363.208 310.75 362.708 310.29 362.068 309.97C361.428 309.63 360.698 309.46 359.878 309.46C359.058 309.46 358.328 309.63 357.688 309.97C357.048 310.29 356.538 310.75 356.158 311.35C355.798 311.93 355.618 312.62 355.618 313.42C355.618 314.2 355.798 314.89 356.158 315.49C356.538 316.09 357.048 316.56 357.688 316.9C358.328 317.22 359.058 317.38 359.878 317.38Z" fill="#2E2F3B"/>
<path d="M359.668 328.06C358.148 328.06 356.678 327.87 355.258 327.49C353.858 327.13 352.688 326.58 351.748 325.84L353.608 322.48C354.288 323.04 355.148 323.48 356.188 323.8C357.248 324.14 358.288 324.31 359.308 324.31C360.968 324.31 362.168 323.94 362.908 323.2C363.668 322.46 364.048 321.36 364.048 319.9V317.47L364.348 313.42L364.288 309.34V305.86H368.728V319.3C368.728 322.3 367.948 324.51 366.388 325.93C364.828 327.35 362.588 328.06 359.668 328.06ZM358.948 321.22C357.448 321.22 356.088 320.9 354.868 320.26C353.668 319.6 352.698 318.69 351.958 317.53C351.238 316.35 350.878 314.98 350.878 313.42C350.878 311.84 351.238 310.47 351.958 309.31C352.698 308.13 353.668 307.22 354.868 306.58C356.088 305.94 357.448 305.62 358.948 305.62C360.308 305.62 361.508 305.9 362.548 306.46C363.588 307 364.398 307.85 364.978 309.01C365.558 310.15 365.848 311.62 365.848 313.42C365.848 315.2 365.558 316.67 364.978 317.83C364.398 318.97 363.588 319.82 362.548 320.38C361.508 320.94 360.308 321.22 358.948 321.22ZM359.878 317.38C360.698 317.38 361.428 317.22 362.068 316.9C362.708 316.56 363.208 316.09 363.568 315.49C363.928 314.89 364.108 314.2 364.108 313.42C364.108 312.62 363.928 311.93 363.568 311.35C363.208 310.75 362.708 310.29 362.068 309.97C361.428 309.63 360.698 309.46 359.878 309.46C359.058 309.46 358.328 309.63 357.688 309.97C357.048 310.29 356.538 310.75 356.158 311.35C355.798 311.93 355.618 312.62 355.618 313.42C355.618 314.2 355.798 314.89 356.158 315.49C356.538 316.09 357.048 316.56 357.688 316.9C358.328 317.22 359.058 317.38 359.878 317.38Z" fill="white"/>
<defs>
<linearGradient id="paint0_linear_10_2381" x1="236.901" y1="245" x2="233.207" y2="342.067" gradientUnits="userSpaceOnUse">
<stop stop-color="#FFD236"/>
<stop offset="1" stop-color="#FF8F3D"/>
</linearGradient>
</defs>
</svg>
